<?xml version="1.0" encoding="utf-8"?>
<!-- Generator: Adobe Illustrator 24.0.0, SVG Export Plug-In . SVG Version: 6.00 Build 0)  -->
<svg version="1.1" id="图层_1" xmlns="http://www.w3.org/2000/svg" xmlns:xlink="http://www.w3.org/1999/xlink" x="0px" y="0px"
	 viewBox="0 0 40 40" style="enable-background:new 0 0 40 40;" xml:space="preserve">
<style type="text/css">
	.st0{fill:#0FBD8C;}
	.st1{fill:#FFFFFF;}
</style>
<title>扩展插件配图设计</title>
<g id="_11._UART">
	<rect class="st0" width="40" height="40"/>
	<path class="st1" d="M2.5,20.4v-5.6h2v5.8c0,2.1,0.7,2.8,1.9,2.8s2-0.7,2-2.8v-5.8h1.9v5.6c0,3.4-1.4,4.8-3.9,4.8
		S2.5,23.8,2.5,20.4z"/>
	<path class="st1" d="M17.4,22.4h-3.3L13.4,25h-2.1l3.3-10.2H17L20.3,25h-2.1L17.4,22.4z M17,20.8l-0.3-1.1
		c-0.3-1.1-0.6-2.2-0.9-3.3l0,0c-0.3,1.1-0.6,2.3-0.9,3.3l-0.3,1.1H17z"/>
	<path class="st1" d="M27,25l-2.1-3.8h-1.4V25h-2V14.8H25c2.1,0,3.8,0.7,3.8,3.1c0.1,1.3-0.7,2.5-1.9,2.9l2.4,4.2L27,25z M23.5,19.5
		h1.3c1.3,0,2-0.6,2-1.6c0-1.1-0.7-1.5-2-1.5h-1.3L23.5,19.5z"/>
	<path class="st1" d="M32.6,16.5h-2.9v-1.7h7.8v1.7h-2.9v8.4h-2V16.5z"/>
</g>
</svg>
