<?xml version="1.0" encoding="utf-8"?>
<!-- Generator: Adobe Illustrator 24.0.0, SVG Export Plug-In . SVG Version: 6.00 Build 0)  -->
<svg version="1.1" id="图层_1" xmlns="http://www.w3.org/2000/svg" xmlns:xlink="http://www.w3.org/1999/xlink" x="0px" y="0px"
	 viewBox="0 0 40 40" style="enable-background:new 0 0 40 40;" xml:space="preserve">
<style type="text/css">
	.st0{fill:#0FBD8C;}
</style>
<title>扩展插件配图设计</title>
<g id="_32._微信">
	<path class="st0" d="M39.5,24.7c0-5.4-5.2-9.7-11.8-9.7S16,19.3,16,24.7s5.2,9.7,11.8,9.7c1.4,0,2.9-0.2,4.3-0.7l3.5,1.9
		c0.1,0,0.1,0,0.1-0.1c0,0,0,0,0-0.1l-0.9-3l0,0C37.6,30.9,39.4,27.9,39.5,24.7L39.5,24.7z M23.5,22.9c-0.9,0-1.6-0.7-1.6-1.6
		s0.7-1.6,1.6-1.6c0.9,0,1.6,0.7,1.6,1.6C25.1,22.2,24.4,22.9,23.5,22.9L23.5,22.9z M31.5,22.9c-0.9,0-1.6-0.7-1.6-1.6
		c0,0,0-0.1,0-0.1c0.1-0.9,0.8-1.5,1.7-1.4c0.9,0.1,1.5,0.8,1.4,1.7C33,22.2,32.3,22.9,31.5,22.9L31.5,22.9z"/>
	<path class="st0" d="M26.9,14.3h0.5C26.7,8.7,21,4.3,14,4.3C6.6,4.3,0.5,9.4,0.5,15.5c0.1,3.7,2.2,7.2,5.5,9l0,0L4.9,28
		c0,0.1,0,0.1,0.1,0.1c0,0,0,0,0.1,0l4.1-2.2c1.6,0.5,3.2,0.8,4.9,0.8c0.5,0,1.1,0,1.6-0.1c-0.3-0.8-0.4-1.7-0.4-2.6
		C15.1,18.6,20.4,14.3,26.9,14.3L26.9,14.3z M18.9,9.8c1,0,1.8,0.7,1.9,1.7c0,1-0.7,1.8-1.7,1.9c-1,0-1.8-0.7-1.9-1.7c0,0,0,0,0-0.1
		C17.2,10.6,18,9.8,18.9,9.8L18.9,9.8z M9.8,13.4c-1,0-1.8-0.8-1.8-1.8c0-1,0.8-1.8,1.8-1.8c1,0,1.8,0.8,1.8,1.8
		C11.6,12.6,10.8,13.4,9.8,13.4z"/>
</g>
</svg>
