<?xml version="1.0" encoding="utf-8"?>
<!-- Generator: Adobe Illustrator 24.0.0, SVG Export Plug-In . SVG Version: 6.00 Build 0)  -->
<svg version="1.1" id="图层_1" xmlns="http://www.w3.org/2000/svg" xmlns:xlink="http://www.w3.org/1999/xlink" x="0px" y="0px"
	 viewBox="0 0 40 40" style="enable-background:new 0 0 40 40;" xml:space="preserve">
<style type="text/css">
	.st0{fill-rule:evenodd;clip-rule:evenodd;fill:#FFFFFF;}
	.st1{fill:#7439EA;}
	.st2{enable-background:new    ;}
	.st3{fill:#1F91E1;}
	.st4{fill:none;stroke:#4D43FF;stroke-width:0.5;}
	.st5{fill:#4D43FF;}
	.st6{fill:#FFFFFF;}
</style>
<title>编组 24</title>
<desc>Created with Sketch.</desc>
<g id="页面-1">
	<g id="合成" transform="translate(-13.000000, -13.000000)">
		<g id="编组-24">
			<g id="编组-4" transform="translate(13.000000, 13.000000)">
				<g id="编组-2">
					<g id="矩形_1_">
						<path class="st0" d="M5.82,4h17.82c1,0,1.82,0.81,1.82,1.82v17.82c0,1-0.81,1.82-1.82,1.82H5.82c-1,0-1.82-0.81-1.82-1.82
							V5.82C4,4.81,4.81,4,5.82,4z"/>
						<path class="st1" d="M23.64,25.76H5.82c-1.17,0-2.12-0.95-2.12-2.12V5.82c0-1.17,0.95-2.12,2.12-2.12h17.82
							c1.17,0,2.12,0.95,2.12,2.12v17.82C25.76,24.81,24.81,25.76,23.64,25.76z M5.82,4.3C4.98,4.3,4.3,4.98,4.3,5.82v17.82
							c0,0.84,0.68,1.52,1.52,1.52h17.82c0.84,0,1.52-0.68,1.52-1.52V5.82c0-0.84-0.68-1.52-1.52-1.52H5.82z"/>
					</g>
					<g class="st2">
						<path class="st3" d="M19.68,12.68h-0.55c-0.15-0.43-0.38-0.89-0.71-1.38c-0.32-0.49-0.62-0.76-0.9-0.8
							c-0.15-0.02-0.34-0.04-0.56-0.05c-0.22-0.01-0.41-0.02-0.57-0.02h-0.33v7.91c0,0.17,0.03,0.32,0.09,0.45
							c0.06,0.13,0.18,0.23,0.36,0.31c0.11,0.04,0.28,0.09,0.51,0.13c0.23,0.04,0.42,0.08,0.59,0.1v0.55h-5.62v-0.55
							c0.14-0.01,0.33-0.03,0.58-0.06s0.42-0.06,0.51-0.1c0.18-0.08,0.31-0.18,0.37-0.31s0.09-0.28,0.09-0.45v-7.98H13.2
							c-0.16,0-0.35,0.01-0.57,0.02c-0.22,0.01-0.41,0.03-0.56,0.05c-0.27,0.04-0.57,0.3-0.9,0.8c-0.32,0.49-0.56,0.95-0.71,1.38
							H9.91V9.8h9.77V12.68z"/>
					</g>
					<g class="st2">
						<path class="st4" d="M19.68,12.68h-0.55c-0.15-0.43-0.38-0.89-0.71-1.38c-0.32-0.49-0.62-0.76-0.9-0.8
							c-0.15-0.02-0.34-0.04-0.56-0.05c-0.22-0.01-0.41-0.02-0.57-0.02h-0.33v7.91c0,0.17,0.03,0.32,0.09,0.45
							c0.06,0.13,0.18,0.23,0.36,0.31c0.11,0.04,0.28,0.09,0.51,0.13c0.23,0.04,0.42,0.08,0.59,0.1v0.55h-5.62v-0.55
							c0.14-0.01,0.33-0.03,0.58-0.06s0.42-0.06,0.51-0.1c0.18-0.08,0.31-0.18,0.37-0.31s0.09-0.28,0.09-0.45v-7.98H13.2
							c-0.16,0-0.35,0.01-0.57,0.02c-0.22,0.01-0.41,0.03-0.56,0.05c-0.27,0.04-0.57,0.3-0.9,0.8c-0.32,0.49-0.56,0.95-0.71,1.38
							H9.91V9.8h9.77V12.68z"/>
					</g>
				</g>
				<g id="编组-3" transform="translate(17.400000, 17.400000)">
					<g id="矩形_2_">
						<path class="st0" d="M-1.04-2.85h17.82c1,0,1.82,0.81,1.82,1.82v17.82c0,1-0.81,1.82-1.82,1.82H-1.04
							c-1,0-1.82-0.81-1.82-1.82V-1.04C-2.85-2.04-2.04-2.85-1.04-2.85z"/>
						<path class="st1" d="M16.78,18.91H-1.04c-1.17,0-2.12-0.95-2.12-2.12V-1.04c0.01-1.17,0.96-2.11,2.12-2.11h17.82
							c1.17,0,2.12,0.95,2.12,2.12v17.82C18.9,17.96,17.95,18.91,16.78,18.91z M-1.04-2.55c-0.83,0-1.51,0.68-1.52,1.51v17.83
							c0,0.84,0.68,1.52,1.52,1.52h17.82c0.84,0,1.52-0.68,1.52-1.52V-1.03c0-0.84-0.68-1.52-1.52-1.52H-1.04z"/>
					</g>
					<g id="编组" transform="translate(11.400000, 8.400000)">
						<g id="路径">
							<path class="st3" d="M-3.44,1.84c1.26,0,2.27-1,2.27-2.24v-3.71c0-1.24-1.02-2.24-2.27-2.24s-2.27,1-2.27,2.24v3.71
								C-5.68,0.84-4.69,1.84-3.44,1.84z"/>
							<path class="st5" d="M-3.44,2.09c-1.38,0-2.49-1.09-2.52-2.48v-3.72c0-1.37,1.13-2.49,2.52-2.49s2.52,1.12,2.52,2.49v3.71
								C-0.92,0.97-2.05,2.09-3.44,2.09z M-3.44-6.1c-1.11,0-2.02,0.89-2.02,1.99v3.71c0.03,1.11,0.92,1.99,2.02,1.99
								c1.11,0,2.02-0.89,2.02-1.99v-3.71C-1.42-5.21-2.33-6.1-3.44-6.1z"/>
						</g>
						<g id="路径_1_">
							<path class="st3" d="M0.02-1.87c-0.24,0-0.45,0.2-0.45,0.43v1.17c0,1.63-1.38,2.95-3.1,2.95s-3.1-1.32-3.1-2.95v-1.29
								c0-0.23-0.21-0.43-0.45-0.43s-0.45,0.2-0.45,0.43v1.29c0,1.95,1.56,3.58,3.55,3.78v0.92h-1.5c-0.24,0-0.45,0.2-0.45,0.43
								s0.21,0.43,0.45,0.43h3.91c0.24,0,0.45-0.2,0.45-0.43s-0.21-0.43-0.45-0.43h-1.5V3.52c1.99-0.2,3.55-1.83,3.55-3.78v-1.17
								C0.47-1.7,0.26-1.87,0.02-1.87z"/>
							<path class="st5" d="M-1.57,5.54h-3.91c-0.38,0-0.7-0.31-0.7-0.68s0.32-0.68,0.7-0.68h1.25V3.73c-2.01-0.31-3.55-2.03-3.55-4
								v-1.29c0-0.37,0.32-0.68,0.7-0.68s0.7,0.31,0.7,0.68v1.29c0,1.49,1.28,2.7,2.85,2.7c1.57,0,2.85-1.21,2.85-2.7v-1.17
								c0-0.37,0.32-0.68,0.7-0.68c0.39,0,0.69,0.29,0.71,0.68v1.18c0,1.97-1.54,3.69-3.55,4v0.44h1.25c0.38,0,0.7,0.31,0.7,0.68
								S-1.19,5.54-1.57,5.54z M-5.48,4.68c-0.1,0-0.2,0.09-0.2,0.18c0,0.09,0.1,0.18,0.2,0.18h3.91c0.1,0,0.2-0.09,0.2-0.18
								c0-0.09-0.1-0.18-0.2-0.18h-1.75V3.29l0.22-0.02c1.87-0.19,3.33-1.74,3.33-3.53v-1.17C0.22-1.69-0.18-1.62-0.18-1.44v1.17
								c0,1.76-1.5,3.2-3.35,3.2c-1.85,0-3.35-1.44-3.35-3.2v-1.29c0-0.09-0.1-0.18-0.2-0.18c-0.1,0-0.2,0.09-0.2,0.18v1.29
								c0,1.79,1.46,3.34,3.33,3.53l0.23,0.02v1.4H-5.48z"/>
						</g>
					</g>
				</g>
				
					<g id="编组_1_" transform="translate(44.983494, 8.201795) scale(-1, 1) rotate(-60.000000) translate(-44.983494, -8.201795) translate(38.483494, 4.201795)">
					<g id="路径_2_">
						<path class="st6" d="M12.04,15.18v-1.17L9.15,15.8c-0.19,0.12-0.19,0.32,0,0.44l2.88,1.79l0-1.17c1.63,0,3.14,0.25,4.43,1.51
							C15.88,16.02,13.44,15.18,12.04,15.18"/>
						<path class="st1" d="M8.78,16.28c0.05,0.08,0.12,0.16,0.21,0.21l3.34,2.08l0-1.41c1.34,0.03,2.73,0.26,3.92,1.42L17,19.32
							l-0.25-1.02c-0.57-2.35-2.85-3.3-4.41-3.41l0-1.42l-3.35,2.07c-0.18,0.12-0.28,0.29-0.28,0.48
							C8.71,16.11,8.73,16.2,8.78,16.28z M11.73,17.49l-2.36-1.47l2.37-1.47l0,0.93l0.3,0c1.08,0,2.82,0.55,3.7,1.95
							c-1.21-0.75-2.53-0.87-3.71-0.87l-0.3,0L11.73,17.49z"/>
					</g>
				</g>
			</g>
		</g>
	</g>
</g>
</svg>
