<?xml version="1.0" encoding="utf-8"?>
<!-- Generator: Adobe Illustrator 24.1.0, SVG Export Plug-In . SVG Version: 6.00 Build 0)  -->
<svg version="1.1" id="图层_1" xmlns="http://www.w3.org/2000/svg" xmlns:xlink="http://www.w3.org/1999/xlink" x="0px" y="0px"
	 viewBox="0 0 40 40" style="enable-background:new 0 0 40 40;" xml:space="preserve">
<style type="text/css">
	.st0{fill:#0FBD8C;}
	.st1{fill:#F35F85;}
	.st2{fill:#FFFFFF;}
	.st3{fill:#5785CB;}
	.st4{fill:#F2466B;}
</style>
<g id="toio2">
	<g>
		<rect class="st0" width="40" height="40"/>
	</g>
	<g>
		<path class="st1" d="M26.8,35H8.2c-0.6,0-1.1-0.5-1.1-1.1l0,0V10.4c0-0.6,0.5-1.1,1.1-1.1h23.6c0.6,0,1.1,0.5,1.1,1.1v18.7
			C31.5,30.4,28.1,33.7,26.8,35z"/>
		<path class="st2" d="M27,35.5H8.2c-0.9,0-1.6-0.7-1.6-1.6V10.4c0-0.9,0.7-1.6,1.6-1.6h23.6c0.9,0,1.6,0.7,1.6,1.6v18.9l-0.2,0.1
			c-0.7,0.7-1.9,1.8-3.1,3c-1.2,1.1-2.3,2.3-3,3L27,35.5z M8.2,9.8c-0.3,0-0.6,0.3-0.6,0.6v23.5c0,0.3,0.3,0.6,0.6,0.6h18.3
			c0.7-0.7,1.8-1.7,2.9-2.8c1.1-1.1,2.2-2.2,2.9-2.8V10.4c0-0.3-0.3-0.6-0.6-0.6H8.2z"/>
	</g>
	<g>
		<circle class="st3" cx="20" cy="9.4" r="4.4"/>
		<path class="st2" d="M20,14.3c-2.7,0-4.9-2.2-4.9-4.9s2.2-4.9,4.9-4.9s4.9,2.2,4.9,4.9S22.7,14.3,20,14.3z M20,5.5
			c-2.2,0-3.9,1.8-3.9,3.9s1.8,3.9,3.9,3.9c2.2,0,3.9-1.8,3.9-3.9S22.2,5.5,20,5.5z"/>
	</g>
	<g>
		<path class="st4" d="M26,35v-6.8h6.8c0.3,1.8-0.3,3.6-1.5,5C29.9,34.6,28,35.3,26,35z"/>
		<path class="st2" d="M26.8,35.6c-0.3,0-0.6,0-0.9-0.1l-0.4-0.1v-7.7h7.7l0.1,0.4c0.3,2-0.3,3.9-1.6,5.4
			C30.4,34.8,28.6,35.6,26.8,35.6z M26.5,34.5c1.6,0.1,3.3-0.5,4.4-1.7c1-1.1,1.5-2.6,1.4-4.1h-5.9V34.5z"/>
	</g>
	<g>
		<path class="st2" d="M11.8,17.4H22c0.4,0,0.8,0.3,0.8,0.8v0.1c0,0.4-0.3,0.8-0.8,0.8H11.8c-0.4,0-0.8-0.3-0.8-0.8v-0.1
			C11.1,17.8,11.4,17.4,11.8,17.4z"/>
	</g>
	<g>
		<path class="st2" d="M11.8,21.7h7.1c0.4,0,0.8,0.3,0.8,0.8v0.1c0,0.4-0.3,0.8-0.8,0.8h-7.1c-0.4,0-0.8-0.3-0.8-0.8v-0.1
			C11.1,22,11.4,21.7,11.8,21.7z"/>
	</g>
</g>
</svg>
