<?xml version="1.0" encoding="utf-8"?>
<!-- Generator: Adobe Illustrator 24.0.0, SVG Export Plug-In . SVG Version: 6.00 Build 0)  -->
<svg version="1.1" id="图层_1" xmlns="http://www.w3.org/2000/svg" xmlns:xlink="http://www.w3.org/1999/xlink" x="0px" y="0px"
	 viewBox="0 0 40 40" style="enable-background:new 0 0 40 40;" xml:space="preserve">
<style type="text/css">
	.st0{fill:#0FBD8C;}
	.st1{fill:#FFFFFF;}
</style>
<title>扩展插件配图设计</title>
<g id="_3._Python">
	<rect class="st0" width="40" height="40"/>
	<path class="st0" d="M16.8,10.29c-0.55,0-1,0.45-1,1c-0.02,0.49,0.37,0.9,0.86,0.92c0.02,0,0.04,0,0.06,0c0.55,0,1-0.45,1-1
		c0.03-0.48-0.34-0.89-0.82-0.92C16.87,10.29,16.83,10.29,16.8,10.29z"/>
	<path class="st1" d="M19.27,19.3H23c2.05-0.01,3.71-1.66,3.73-3.7V8.12c-0.65-4.93-14.07-4.16-14.07-0.5v3.6h7.08v1.54H9.42
		c-6.09,0.24-5.68,14.15,0,14.15h2.26C11.31,19.11,13.05,19.3,19.27,19.3z M15.62,9.47c-0.66,0.02-1.22-0.5-1.24-1.16
		c0-0.03,0-0.05,0-0.08c0-0.74,0.6-1.35,1.35-1.35c0.65-0.04,1.2,0.45,1.24,1.1c0,0.05,0,0.09,0,0.14
		C16.97,8.87,16.37,9.47,15.62,9.47C15.62,9.47,15.62,9.47,15.62,9.47z"/>
	<path class="st1" d="M20.73,20.7H17c-2.05,0.01-3.71,1.66-3.73,3.7v7.47c0.65,4.93,14.07,4.16,14.07,0.5v-3.6h-7.06v-1.54h10.3
		c6.09-0.24,5.68-14.15,0-14.15h-2.26C28.69,20.89,26.95,20.7,20.73,20.7z M24.38,30.53c0.66-0.02,1.22,0.5,1.24,1.16
		c0,0.03,0,0.05,0,0.08c0,0.74-0.6,1.35-1.35,1.35c-0.65,0.04-1.2-0.45-1.24-1.1c0-0.05,0-0.09,0-0.14
		C23.03,31.13,23.63,30.53,24.38,30.53z"/>
</g>
</svg>
