<?xml version="1.0" encoding="utf-8"?>
<!-- Generator: Adobe Illustrator 24.0.0, SVG Export Plug-In . SVG Version: 6.00 Build 0)  -->
<svg version="1.1" id="素材" xmlns="http://www.w3.org/2000/svg" xmlns:xlink="http://www.w3.org/1999/xlink" x="0px" y="0px"
	 viewBox="0 0 40 40" style="enable-background:new 0 0 40 40;" xml:space="preserve">
<style type="text/css">
	.st0{fill:#0FBD8C;}
	.st1{fill:#FFFFFF;}
</style>
<title>扩展插件配图设计</title>
<rect class="st0" width="40" height="40"/>
<g>
	<path class="st1" d="M18.04,25.88h-4.67c-0.93,0-1.77,0.65-2.05,1.49l-0.84,3.08c-0.28,0.93-1.03,1.49-2.05,1.49H8.05
		C6.93,31.95,6,31.01,6,29.89c0-0.19,0-0.47,0.09-0.65l6.35-19.88c0.28-0.84,1.12-1.4,1.96-1.4h2.61c0.93,0,1.68,0.56,1.96,1.4
		l6.53,19.97c0.37,1.12-0.28,2.24-1.31,2.61c-0.19,0.09-0.47,0.09-0.65,0.09h-0.56c-0.93,0-1.77-0.65-2.05-1.49L20,27.47
		C19.72,26.53,18.97,25.88,18.04,25.88z M16.64,22.15c0.84,0,1.49-0.65,1.49-1.49c0-0.09,0-0.28-0.09-0.37l-0.19-0.84
		c-0.37-1.31-0.75-2.61-1.03-3.92l0,0c-0.19-0.56-0.75-0.93-1.4-0.75c-0.37,0.09-0.65,0.37-0.75,0.75v0.09
		c-0.37,1.31-0.75,2.61-1.03,3.92l-0.19,0.84c-0.19,0.75,0.28,1.59,1.03,1.77c0.09,0,0.28,0.09,0.37,0.09L16.64,22.15z"/>
	<path class="st1" d="M31.29,7.96h0.65c1.12,0,2.05,0.93,2.05,2.05l0,0v19.88c0,1.12-0.93,2.05-2.05,2.05l0,0h-0.65
		c-1.12,0-2.05-0.93-2.05-2.05l0,0V10.01C29.15,8.89,30.08,7.96,31.29,7.96L31.29,7.96z"/>
</g>
</svg>
