<?xml version="1.0" encoding="utf-8"?>
<!-- Generator: Adobe Illustrator 24.0.0, SVG Export Plug-In . SVG Version: 6.00 Build 0)  -->
<svg version="1.1" id="图层_1" xmlns="http://www.w3.org/2000/svg" xmlns:xlink="http://www.w3.org/1999/xlink" x="0px" y="0px"
	 viewBox="0 0 40 40" style="enable-background:new 0 0 40 40;" xml:space="preserve">
<style type="text/css">
	.st0{fill:#0FBD8C;}
	.st1{fill:#642B15;}
	.st2{fill:#909AB1;}
	.st3{fill:#F2CCAD;}
	.st4{fill:#7B3519;}
	.st5{fill:#FFFFFF;}
	.st6{fill:#3B1BB9;}
	.st7{fill:#C65B4E;}
	.st8{fill:#E58079;}
</style>
<title>扩展插件配图设计</title>
<g id="素材">
	<rect class="st0" width="40" height="40"/>
</g>
<g id="_36._我的世界">
	<path class="st1" d="M5.6,8.2h28.8c0.2,0,0.3,0.1,0.3,0.3v23c0,0.2-0.1,0.3-0.3,0.3H5.6c-0.2,0-0.3-0.1-0.3-0.3v-23
		C5.3,8.3,5.4,8.2,5.6,8.2z"/>
	<path class="st2" d="M34.4,8.5v23H5.6v-23H34.4 M34.4,7.9H5.6C5.3,7.9,5,8.2,5,8.5v23c0,0.3,0.3,0.6,0.6,0.6h28.8
		c0.3,0,0.6-0.3,0.6-0.6v-23C35,8.2,34.7,7.9,34.4,7.9z"/>
	<rect x="5.6" y="8.5" class="st3" width="28.8" height="23"/>
	<rect x="5.6" y="8.5" class="st4" width="28.8" height="5.9"/>
	<rect x="5.6" y="14.4" class="st4" width="3.5" height="3"/>
	<rect x="30.9" y="14.4" class="st4" width="3.5" height="3"/>
	<rect x="23.5" y="20.7" class="st5" width="7.3" height="2.9"/>
	<rect x="9.1" y="20.7" class="st5" width="7.3" height="2.9"/>
	<rect x="12.8" y="20.7" class="st6" width="3.7" height="2.9"/>
	<rect x="23.5" y="20.7" class="st6" width="3.7" height="2.9"/>
	<rect x="16.5" y="23.6" class="st7" width="7" height="2.8"/>
	<rect x="13.2" y="26.4" class="st4" width="14" height="5.1"/>
	<rect x="16.5" y="26.4" class="st8" width="7" height="2.8"/>
</g>
</svg>
