<?xml version="1.0" encoding="utf-8"?>
<!-- Generator: Adobe Illustrator 24.0.0, SVG Export Plug-In . SVG Version: 6.00 Build 0)  -->
<svg version="1.1" id="图层_1" xmlns="http://www.w3.org/2000/svg" xmlns:xlink="http://www.w3.org/1999/xlink" x="0px" y="0px"
	 viewBox="0 0 40 40" style="enable-background:new 0 0 40 40;" xml:space="preserve">
<style type="text/css">
	.st0{fill:#2B8261;}
	.st1{fill:#909AB1;}
	.st2{fill:#CCCCCC;}
	.st3{fill:#454545;}
	.st4{fill:#FEBE2D;}
</style>
<title>扩展插件配图设计</title>
<g id="_12._Simple_Pyboard">
	<g>
		<path class="st0" d="M4.6,5.4h30.7c1.4,0,2.4,1.1,2.4,2.4v25c0,1.4-1.1,2.4-2.4,2.4H4.6c-1.4,0-2.4-1.1-2.4-2.4v-25
			C2.2,6.4,3.3,5.4,4.6,5.4z"/>
		<path class="st1" d="M35.4,35.6H4.6c-1.5,0-2.9-1.2-2.9-2.9v-25c0-1.5,1.2-2.9,2.9-2.9h30.7c1.5,0,2.9,1.2,2.9,2.9v25
			C38.3,34.3,36.9,35.6,35.4,35.6z M4.6,5.7c-1.2,0-2.1,0.9-2.1,2.1v25c0,1.2,0.9,2.1,2.1,2.1h30.7c1.2,0,2.1-0.9,2.1-2.1v-25
			c0-1.2-0.9-2.1-2.1-2.1H4.6z"/>
	</g>
	<g>
		<path class="st2" d="M29.3,16.3L29.3,16.3c0,0.3-0.2,0.5-0.5,0.5h-1.1c-0.3,0-0.5-0.2-0.5-0.5l0,0c0-0.3,0.2-0.5,0.5-0.5h1.1
			C29,15.9,29.3,16,29.3,16.3z"/>
	</g>
	<g>
		<path class="st2" d="M29.3,18L29.3,18c0,0.3-0.2,0.5-0.5,0.5h-1.1c-0.3,0-0.5-0.2-0.5-0.5l0,0c0-0.3,0.2-0.5,0.5-0.5h1.1
			C29,17.5,29.3,17.7,29.3,18z"/>
	</g>
	<g>
		<path class="st2" d="M29.3,19.7L29.3,19.7c0,0.3-0.2,0.5-0.5,0.5h-1.2c-0.3,0-0.5-0.2-0.5-0.5l0,0c0-0.3,0.2-0.5,0.5-0.5h1.1
			C29,19.2,29.3,19.3,29.3,19.7z"/>
	</g>
	<g>
		<path class="st2" d="M29.3,21.3L29.3,21.3c0,0.3-0.2,0.5-0.5,0.5h-1.1c-0.3,0-0.5-0.2-0.5-0.5l0,0c0-0.3,0.2-0.5,0.5-0.5h1.1
			C29,20.9,29.3,21,29.3,21.3z"/>
	</g>
	<g>
		<path class="st2" d="M29.3,23L29.3,23c0,0.3-0.2,0.5-0.5,0.5h-1.1c-0.3,0-0.5-0.2-0.5-0.5l0,0c0-0.3,0.2-0.5,0.5-0.5h1.1
			C29,22.5,29.3,22.7,29.3,23z"/>
	</g>
	<g>
		<path class="st2" d="M12.7,16.3L12.7,16.3c0,0.3-0.2,0.5-0.5,0.5h-1.1c-0.3,0-0.5-0.2-0.5-0.5l0,0c0-0.3,0.2-0.5,0.5-0.5h1.1
			C12.5,15.9,12.7,16,12.7,16.3z"/>
	</g>
	<g>
		<path class="st2" d="M12.7,18L12.7,18c0,0.3-0.2,0.5-0.5,0.5h-1.1c-0.3,0-0.5-0.2-0.5-0.5l0,0c0-0.3,0.2-0.5,0.5-0.5h1.1
			C12.5,17.5,12.7,17.7,12.7,18z"/>
	</g>
	<g>
		<path class="st2" d="M12.7,19.7L12.7,19.7c0,0.3-0.2,0.5-0.5,0.5h-1.1c-0.3,0-0.5-0.2-0.5-0.5l0,0c0-0.3,0.2-0.5,0.5-0.5h1.1
			C12.5,19.2,12.7,19.3,12.7,19.7z"/>
	</g>
	<g>
		<path class="st2" d="M12.7,21.3L12.7,21.3c0,0.3-0.2,0.5-0.5,0.5h-1.1c-0.3,0-0.5-0.2-0.5-0.5l0,0c0-0.3,0.2-0.5,0.5-0.5h1.1
			C12.5,20.9,12.7,21,12.7,21.3z"/>
	</g>
	<g>
		<path class="st2" d="M12.7,23L12.7,23c0,0.3-0.2,0.5-0.5,0.5h-1.1c-0.3,0-0.5-0.2-0.5-0.5l0,0c0-0.3,0.2-0.5,0.5-0.5h1.2
			C12.5,22.5,12.7,22.7,12.7,23z"/>
	</g>
	<g>
		<path class="st2" d="M16.7,10.2L16.7,10.2c0.3,0,0.5,0.2,0.5,0.5v1.1c0,0.3-0.2,0.5-0.5,0.5l0,0c-0.3,0-0.5-0.2-0.5-0.5v-1.1
			C16.2,10.5,16.3,10.2,16.7,10.2z"/>
	</g>
	<g>
		<path class="st2" d="M18.3,10.2L18.3,10.2c0.3,0,0.5,0.2,0.5,0.5v1.1c0,0.3-0.2,0.5-0.5,0.5l0,0c-0.3,0-0.5-0.2-0.5-0.5v-1.1
			C17.9,10.5,18,10.2,18.3,10.2z"/>
	</g>
	<g>
		<path class="st2" d="M20,10.2L20,10.2c0.3,0,0.5,0.2,0.5,0.5v1.1c0,0.3-0.2,0.5-0.5,0.5l0,0c-0.3,0-0.5-0.2-0.5-0.5v-1.1
			C19.5,10.5,19.7,10.2,20,10.2z"/>
	</g>
	<g>
		<path class="st2" d="M21.7,10.2L21.7,10.2c0.3,0,0.5,0.2,0.5,0.5v1.1c0,0.3-0.2,0.5-0.5,0.5l0,0c-0.3,0-0.5-0.2-0.5-0.5v-1.1
			C21.2,10.5,21.4,10.2,21.7,10.2z"/>
	</g>
	<g>
		<path class="st2" d="M23.3,10.2L23.3,10.2c0.3,0,0.5,0.2,0.5,0.5v1.1c0,0.3-0.2,0.5-0.5,0.5l0,0c-0.3,0-0.5-0.2-0.5-0.5v-1.1
			C22.9,10.5,23,10.2,23.3,10.2z"/>
	</g>
	<g>
		<path class="st2" d="M16.7,26.8L16.7,26.8c0.3,0,0.5,0.2,0.5,0.5v1.1c0,0.3-0.2,0.5-0.5,0.5l0,0c-0.3,0-0.5-0.2-0.5-0.5v-1.1
			C16.2,27,16.3,26.8,16.7,26.8z"/>
	</g>
	<g>
		<path class="st2" d="M18.3,26.8L18.3,26.8c0.3,0,0.5,0.2,0.5,0.5v1.1c0,0.3-0.2,0.5-0.5,0.5l0,0c-0.3,0-0.5-0.2-0.5-0.5v-1.1
			C17.9,27,18,26.8,18.3,26.8z"/>
	</g>
	<g>
		<path class="st2" d="M20,26.8L20,26.8c0.3,0,0.5,0.2,0.5,0.5v1.1c0,0.3-0.2,0.5-0.5,0.5l0,0c-0.3,0-0.5-0.2-0.5-0.5v-1.1
			C19.5,27,19.7,26.8,20,26.8z"/>
	</g>
	<g>
		<path class="st2" d="M21.7,26.8L21.7,26.8c0.3,0,0.5,0.2,0.5,0.5v1.1c0,0.3-0.2,0.5-0.5,0.5l0,0c-0.3,0-0.5-0.2-0.5-0.5v-1.1
			C21.2,27,21.4,26.8,21.7,26.8z"/>
	</g>
	<g>
		<path class="st2" d="M23.3,26.8L23.3,26.8c0.3,0,0.5,0.2,0.5,0.5v1.1c0,0.3-0.2,0.5-0.5,0.5l0,0c-0.3,0-0.5-0.2-0.5-0.5v-1.1
			C22.9,27,23,26.8,23.3,26.8z"/>
	</g>
	<g>
		<path class="st3" d="M13.3,12h13.5c0.5,0,0.9,0.5,0.9,0.9v13.5c0,0.5-0.5,0.9-0.9,0.9H13.3c-0.5,0-0.9-0.5-0.9-0.9V13
			C12.4,12.4,12.8,12,13.3,12z"/>
		<path class="st1" d="M26.7,27.6H13.2c-0.8,0-1.2-0.6-1.2-1.2V12.8c0-0.8,0.6-1.2,1.2-1.2h13.5c0.8,0,1.2,0.6,1.2,1.2v13.5
			C27.9,27.1,27.5,27.6,26.7,27.6z M13.3,12.4c-0.3,0-0.5,0.2-0.5,0.5v13.5c0,0.3,0.2,0.5,0.5,0.5h13.5c0.3,0,0.5-0.2,0.5-0.5V12.8
			c0-0.3-0.2-0.5-0.5-0.5C26.8,12.4,13.3,12.4,13.3,12.4z"/>
	</g>
	<g>
		<path class="st4" d="M32.3,6c-1.5,0-2.7-1.2-2.7-2.7s1.2-2.7,2.7-2.7c1.5,0,2.7,1.2,2.7,2.7S33.7,6,32.3,6z M32.3,2.2
			c-0.6,0-1.2,0.5-1.2,1.2s0.5,1.2,1.2,1.2c0.8,0,1.2-0.5,1.2-1.2S32.9,2.2,32.3,2.2z"/>
	</g>
	<g>
		<path class="st4" d="M7.2,39.5c-1.5,0-2.7-1.2-2.7-2.7c0-1.5,1.2-2.7,2.7-2.7s2.7,1.2,2.7,2.7C10,38.3,8.6,39.5,7.2,39.5z
			 M7.2,35.7c-0.6,0-1.2,0.5-1.2,1.2c0,0.8,0.5,1.2,1.2,1.2s1.2-0.5,1.2-1.2C8.4,36.2,7.8,35.7,7.2,35.7z"/>
	</g>
</g>
</svg>
