<?xml version="1.0" encoding="utf-8"?>
<!-- Generator: Adobe Illustrator 24.0.0, SVG Export Plug-In . SVG Version: 6.00 Build 0)  -->
<svg version="1.1" id="图层_1" xmlns="http://www.w3.org/2000/svg" xmlns:xlink="http://www.w3.org/1999/xlink" x="0px" y="0px"
	 viewBox="0 0 40 40" style="enable-background:new 0 0 40 40;" xml:space="preserve">
<style type="text/css">
	.st0{fill:#1E74F2;}
</style>
<title>扩展插件配图设计</title>
<g>
	<g id="_14._HCI_人机交互模拟">
		<g>
			<path class="st0" d="M29.61,30.7c2.09,0,3.86-1.77,3.86-3.86s-1.77-3.86-3.86-3.86c-1.11,0-2.17,0.45-2.91,1.24
				c-0.68,0.73-1.02,1.66-0.95,2.63C25.76,28.94,27.53,30.7,29.61,30.7z"/>
			<path class="st0" d="M29.18,31.65c-3.82,0.28-6.8,3.26-7.08,7.11c0,0.3,0.26,0.74,0.74,0.74h13.54c0.31,0,0.75-0.26,0.74-0.77
				C36.84,34.54,33.27,31.36,29.18,31.65z"/>
		</g>
		<path class="st0" d="M14.34,0.5l-7.07,0c-2.05,0-3.71,1.59-3.86,3.72l0,7.07c0.15,2.15,1.85,3.84,3.86,3.84h6.91
			c2.05,0,3.71-1.59,3.86-3.72V4.36C18.04,2.31,16.45,0.65,14.34,0.5z M14.25,10.72c0,0.35-0.26,0.61-0.61,0.61H7.95
			c-0.35,0-0.61-0.26-0.61-0.61V5.04c0-0.35,0.26-0.61,0.61-0.61h5.69c0.35,0,0.61,0.26,0.61,0.61V10.72z"/>
	</g>
	<path class="st0" d="M36.15,18.51C35.31,10.36,28.28,4.02,20,4.02h-0.34v2.97L19.99,7c6.81,0.13,12.34,4.95,13.3,11.51h-1.82
		l2.58,4.55c0.11,0.21,0.31,0.38,0.55,0.46c0.11,0.04,0.22,0.05,0.32,0.05c0.12,0,0.23-0.02,0.33-0.06c0.21-0.04,0.31-0.2,0.36-0.28
		c0.02-0.04,0.04-0.06,0.06-0.09l2.64-4.64H36.15z"/>
	<path class="st0" d="M20.13,33.95c-0.09,0-0.18,0-0.26,0c-6.63,0-12.2-4.82-13.16-11.38h1.82l-2.58-4.55
		c-0.1-0.21-0.31-0.38-0.55-0.46c-0.22-0.07-0.46-0.07-0.65,0.01c-0.21,0.04-0.31,0.2-0.36,0.28c-0.02,0.04-0.04,0.06-0.06,0.09
		l-2.64,4.64h2.17c0.97,8.21,7.92,14.36,16.28,14.36h0.34v-2.99L20.13,33.95z"/>
</g>
</svg>
