<?xml version="1.0" encoding="utf-8"?>
<!-- Generator: Adobe Illustrator 24.0.0, SVG Export Plug-In . SVG Version: 6.00 Build 0)  -->
<svg version="1.1" id="图层_1" xmlns="http://www.w3.org/2000/svg" xmlns:xlink="http://www.w3.org/1999/xlink" x="0px" y="0px"
	 viewBox="0 0 40 40" style="enable-background:new 0 0 40 40;" xml:space="preserve">
<style type="text/css">
	.st0{fill:#231815;}
</style>
<title>扩展插件配图设计</title>
<g>
	<g id="_37._IFTT">
		<rect x="0.5" y="14.9" class="st0" width="3.3" height="10.2"/>
		<rect x="5.5" y="14.9" class="st0" width="3.3" height="10.2"/>
		<rect x="5.5" y="14.9" class="st0" width="7.7" height="3.3"/>
		<rect x="14.4" y="14.9" class="st0" width="7.7" height="3.3"/>
		<rect x="5.5" y="19.3" class="st0" width="6.5" height="3.3"/>
		<rect x="16.6" y="14.9" class="st0" width="3.3" height="10.2"/>
		<rect x="23.1" y="14.9" class="st0" width="7.7" height="3.3"/>
		<rect x="25.3" y="14.9" class="st0" width="3.3" height="10.2"/>
		<rect x="31.8" y="14.9" class="st0" width="7.7" height="3.3"/>
		<rect x="34" y="14.9" class="st0" width="3.3" height="10.2"/>
		<rect x="5.5" y="14.9" class="st0" width="3.3" height="3.3"/>
		<rect x="16.6" y="14.9" class="st0" width="3.3" height="3.3"/>
		<rect x="25.3" y="14.9" class="st0" width="3.3" height="3.3"/>
		<rect x="34" y="14.9" class="st0" width="3.3" height="3.3"/>
		<rect x="5.5" y="19.3" class="st0" width="3.3" height="3.3"/>
	</g>
</g>
</svg>
