<?xml version="1.0" encoding="utf-8"?>
<!-- Generator: Adobe Illustrator 24.0.0, SVG Export Plug-In . SVG Version: 6.00 Build 0)  -->
<svg version="1.1" id="图层_1" xmlns="http://www.w3.org/2000/svg" xmlns:xlink="http://www.w3.org/1999/xlink" x="0px" y="0px"
	 viewBox="0 0 40 40" style="enable-background:new 0 0 40 40;" xml:space="preserve">
<style type="text/css">
	.st0{fill:#E19B93;}
	.st1{fill:#909AB1;}
	.st2{fill:#F7C6BA;}
	.st3{fill:#B96332;}
</style>
<title>扩展插件配图设计</title>
<g id="_24._Faceapi">
	<g>
		<path d="M5.6,36.6H2.4c-1,0-1.9-0.9-1.9-1.7v-2.8c0-0.4,0.3-0.7,0.7-0.7l0,0c0.4,0,0.7,0.3,0.7,0.7l0,0v2.8c0,0.3,0.1,0.4,0.4,0.4
			h3.2c0.4,0,0.7,0.3,0.7,0.7C6.3,36.5,6,36.8,5.6,36.6L5.6,36.6z"/>
	</g>
	<g>
		<path d="M5.6,36.6H2.4c-1,0-1.9-0.9-1.9-1.7v-2.8c0-0.4,0.3-0.7,0.7-0.7l0,0c0.4,0,0.7,0.3,0.7,0.7l0,0v2.8c0,0.3,0.1,0.4,0.4,0.4
			h3.2c0.4,0,0.7,0.3,0.7,0.7C6.3,36.5,6,36.8,5.6,36.6L5.6,36.6z"/>
	</g>
	<g>
		<path d="M1.2,8.7C0.8,8.7,0.5,8.4,0.5,8l0,0V5.2c0-1,0.9-1.9,1.9-1.7h3.2c0.4,0,0.7,0.3,0.7,0.7S6,4.9,5.6,4.9H2.4
			C2.1,4.9,2,5.1,2,5.4v2.8C2,8.4,1.7,8.7,1.2,8.7z"/>
	</g>
	<g>
		<path d="M1.2,8.7C0.8,8.7,0.5,8.4,0.5,8l0,0V5.2c0-1,0.9-1.9,1.9-1.7h3.2c0.4,0,0.7,0.3,0.7,0.7S6,4.9,5.6,4.9H2.4
			C2.1,4.9,2,5.1,2,5.4v2.8C2,8.4,1.7,8.7,1.2,8.7z"/>
	</g>
	<g>
		<path d="M37.6,36.6h-3.2c-0.4,0-0.7-0.3-0.7-0.7c0-0.4,0.3-0.7,0.7-0.7h3.2c0.3,0,0.4-0.1,0.4-0.4V32c0-0.4,0.3-0.7,0.7-0.7l0,0
			c0.4,0,0.7,0.3,0.7,0.7l0,0v2.8C39.5,35.8,38.6,36.6,37.6,36.6L37.6,36.6z"/>
	</g>
	<g>
		<path d="M37.6,36.6h-3.2c-0.4,0-0.7-0.3-0.7-0.7c0-0.4,0.3-0.7,0.7-0.7h3.2c0.3,0,0.4-0.1,0.4-0.4V32c0-0.4,0.3-0.7,0.7-0.7l0,0
			c0.4,0,0.7,0.3,0.7,0.7l0,0v2.8C39.5,35.8,38.6,36.6,37.6,36.6L37.6,36.6z"/>
	</g>
	<g>
		<path d="M38.8,8.7C38.3,8.7,38,8.4,38,8l0,0V5.2c0-0.3-0.1-0.4-0.4-0.4h-3.2c-0.4,0-0.7-0.3-0.7-0.7s0.3-0.7,0.7-0.7h3.2
			c1,0,1.9,0.9,1.9,1.7v2.8C39.5,8.4,39.2,8.7,38.8,8.7L38.8,8.7z"/>
	</g>
	<g>
		<path d="M38.8,8.7C38.3,8.7,38,8.4,38,8l0,0V5.2c0-0.3-0.1-0.4-0.4-0.4h-3.2c-0.4,0-0.7-0.3-0.7-0.7s0.3-0.7,0.7-0.7h3.2
			c1,0,1.9,0.9,1.9,1.7v2.8C39.5,8.4,39.2,8.7,38.8,8.7L38.8,8.7z"/>
	</g>
	<g>
		<path class="st0" d="M30.9,22.4L30.9,22.4c0,1.2-1,2.2-2.2,2.2H11.1c-1.2,0-2.2-1-2.2-2.2l0,0c0-1.2,1-2.2,2.2-2.2h17.6
			C30,20.2,30.9,21.2,30.9,22.4z"/>
		<path class="st1" d="M28.7,24.9H11.3c-1.3,0-2.5-1.2-2.5-2.5c0-1.3,1.2-2.5,2.5-2.5h17.5c1.3,0,2.5,1.2,2.5,2.5
			C31.4,23.7,30.2,24.9,28.7,24.9z M11.3,20.6c-1,0-1.7,0.7-1.7,1.7s0.7,1.7,1.7,1.7h17.5c1,0,1.7-0.7,1.7-1.7s-0.7-1.7-1.7-1.7
			H11.3z"/>
	</g>
	<g>
		<path class="st2" d="M20,11L20,11c5.2,0,9.5,4.2,9.5,9.5v2.9c0,5.2-4.2,9.5-9.5,9.5l0,0c-5.2,0-9.5-4.2-9.5-9.5v-2.9
			C10.5,15.4,14.8,11,20,11z"/>
		<path class="st1" d="M20,33.3c-5.4,0-9.9-4.4-9.9-9.9v-2.9c0-5.4,4.4-9.9,9.9-9.9c5.4,0,9.9,4.4,9.9,9.9v2.9
			C29.9,28.9,25.4,33.3,20,33.3z M20,11.5c-4.9,0-9,4.1-9,9v2.9c0,4.9,4.1,9,9,9s9-4.1,9-9v-2.9C29,15.5,24.9,11.5,20,11.5z"/>
	</g>
	<g>
		<path class="st3" d="M28.7,11.6c-0.7-2-2.6-3.3-4.8-3.2c-0.6,0-1.2,0.1-1.6,0.3c-1.2-1-2.6-1.5-4.1-1.5c-2.2-0.1-4.4,1.2-5.2,3.2
			c-1.3,0.3-2.3,1.5-2.3,2.9c0,0.3,0,0.6,0.1,0.9c-0.1,0.1-0.1,0.3-0.1,0.6v6h1c0.6,0,1-0.4,1-1l0,0v-2.3c1,0.4,2,0.6,3.1,0.6
			c2.3,0.1,4.5-0.6,6.3-2.2c0.7,0.3,1.3,0.4,2,0.4c1.3,0,2.5-0.4,3.5-1.2v3.2c0,1.2,0.9,2,2,2v-7.6C29.5,12.1,29.2,11.8,28.7,11.6z"
			/>
		<path class="st1" d="M11.6,21.1h-1c-0.1,0-0.3-0.1-0.3-0.3v-6c0-0.1,0-0.4,0.1-0.6c-0.1-0.3-0.1-0.6-0.1-0.9c0-1.6,1-2.8,2.5-3.2
			c1-2,3.2-3.2,5.5-3.2c1.5,0,2.9,0.4,4.1,1.5c0.6-0.1,1-0.3,1.6-0.1c2.2-0.1,4.4,1.2,5.1,3.2c0.4,0.1,0.7,0.7,0.9,1.2v7.7
			c0,0.1-0.1,0.3-0.3,0.3c-1.3,0-2.3-1-2.3-2.3v-2.6c-0.9,0.6-2,0.9-3.1,0.9c0,0,0,0-0.1,0c-0.7,0-1.3-0.1-2-0.3
			c-1.7,1.5-4.1,2.2-6.3,2c-0.9,0-1.9-0.1-2.8-0.4v1.7C12.9,20.3,12.3,21.1,11.6,21.1z M11,20.3h0.6c0.3,0,0.6-0.3,0.6-0.6v-2.3
			c0-0.1,0-0.3,0.1-0.3s0.3-0.1,0.3,0c0.9,0.4,1.9,0.6,2.9,0.6c2.2,0.1,4.4-0.6,6-2c0.1-0.1,0.3-0.1,0.4,0c0.6,0.3,1.3,0.3,1.9,0.3
			c0,0,0,0,0.1,0c1.2,0,2.3-0.4,3.2-1.2c0.1-0.1,0.3-0.1,0.4,0c0.1,0,0.1,0.1,0.1,0.3v3.2c0,0.7,0.6,1.5,1.3,1.6v-7.3
			c0-0.3-0.1-0.6-0.4-0.6c-0.1,0-0.1-0.1-0.3-0.3c-0.6-1.9-2.5-3.1-4.4-2.9l0,0c-0.6,0-1,0.1-1.6,0.3c-0.1,0-0.3,0-0.3,0
			c-1-0.9-2.5-1.5-3.8-1.3c-2,0-4.1,1-4.9,2.9c0,0.1-0.1,0.1-0.3,0.1c-1.2,0.3-2,1.3-2.2,2.6c0,0.3,0,0.4,0.1,0.7c0,0.1,0,0.3,0,0.3
			c0,0.1-0.1,0.1-0.1,0.3v5.5H11z"/>
	</g>
</g>
</svg>
