<?xml version="1.0" encoding="utf-8"?>
<!-- Generator: Adobe Illustrator 24.0.0, SVG Export Plug-In . SVG Version: 6.00 Build 0)  -->
<svg version="1.1" id="图层_1" xmlns="http://www.w3.org/2000/svg" xmlns:xlink="http://www.w3.org/1999/xlink" x="0px" y="0px"
	 viewBox="0 0 40 40" style="enable-background:new 0 0 40 40;" xml:space="preserve">
<title>扩展插件配图设计</title>
<g id="_18._Aqara">
	<path d="M27,20c0-2.1-1.7-3.9-3.9-3.9c-2.1,0-3.9,1.7-3.9,3.9c0,2.1,1.7,3.9,3.9,3.9c0.9,0,1.7-0.3,2.4-0.9v0.9H27v-3.7l0,0V20z
		 M23.2,22.5c-1.4,0-2.5-1.1-2.5-2.4c0-1.4,1.1-2.5,2.4-2.5s2.5,1.1,2.5,2.4c0,0,0,0,0,0C25.6,21.4,24.5,22.5,23.2,22.5
		C23.2,22.5,23.2,22.5,23.2,22.5L23.2,22.5z"/>
	<path d="M14.9,16.1c-2.1,0-3.8,1.8-3.8,3.9s1.8,3.8,3.9,3.8c0.9,0,1.7-0.3,2.4-0.8v2.6h1.4V20C18.7,17.9,17,16.1,14.9,16.1z
		 M14.9,22.5c-1.4,0-2.5-1.1-2.5-2.4c0-1.4,1.1-2.5,2.4-2.5c1.4,0,2.5,1.1,2.5,2.4c0,0,0,0,0,0C17.3,21.4,16.2,22.5,14.9,22.5z"/>
	<path d="M39.5,20c0-2.1-1.7-3.9-3.9-3.9c-2.1,0-3.9,1.7-3.9,3.9c0,2.1,1.7,3.9,3.9,3.9c0.9,0,1.7-0.3,2.4-0.9v0.9h1.4v-3.7l0,0V20z
		 M35.6,22.5c-1.4,0-2.5-1.1-2.5-2.4c0-1.4,1.1-2.5,2.4-2.5c1.4,0,2.5,1.1,2.5,2.4c0,0,0,0,0,0C38.1,21.4,37,22.5,35.6,22.5
		C35.6,22.5,35.6,22.5,35.6,22.5L35.6,22.5z"/>
	<path d="M29.2,23.9h-1.4v-3.4c-0.1-1.4,0.5-2.7,1.5-3.6c0.7-0.5,1.5-0.8,2.3-0.8v1.4c-0.5,0-1,0.2-1.5,0.5c-0.7,0.6-1,1.5-1,2.4
		L29.2,23.9L29.2,23.9z"/>
	<circle cx="5.1" cy="20.1" r="1.3"/>
	<path d="M8.4,16.3c-0.3-1.1-1.3-1.9-2.4-1.9c-1.1,0.1-2.1,0.8-2.4,1.9l-3.1,7.5H2l1.3-3c0-0.1,0-0.2,0-0.2
		c-0.1-0.3-0.1-0.6-0.1-0.9c0.1-0.6,0.4-1.1,0.9-1.3c0.1,0,0.2-0.1,0.2-0.2l0.6-1.4c0.3-0.7,0.7-1,1.1-1s0.9,0.4,1.1,1l2.8,7h1.5
		L8.4,16.3z"/>
</g>
</svg>
