<?xml version="1.0" encoding="utf-8"?>
<!-- Generator: Adobe Illustrator 24.0.0, SVG Export Plug-In . SVG Version: 6.00 Build 0)  -->
<svg version="1.1" id="图层_1" xmlns="http://www.w3.org/2000/svg" xmlns:xlink="http://www.w3.org/1999/xlink" x="0px" y="0px"
	 viewBox="0 0 40 40" style="enable-background:new 0 0 40 40;" xml:space="preserve">
<style type="text/css">
	.st0{fill:#0FBD8C;}
	.st1{fill:#FFFFFF;}
</style>
<title>扩展插件配图设计</title>
<g id="_16._JSON">
	<rect class="st0" width="40" height="40"/>
	<path class="st1" d="M2.5,23.3l1.4-1c0.3,0.6,0.8,1,1.5,1c0.9,0,1.3-0.5,1.3-1.8v-6.6h2v6.7c0,1.9-0.9,3.4-3.1,3.4
		C4.3,25.1,3.1,24.5,2.5,23.3z"/>
	<path class="st1" d="M10.4,23.7l1.1-1.4c0.7,0.7,1.6,1.1,2.5,1.1c1,0,1.6-0.4,1.6-1.1c0-0.7-0.6-1-1.5-1.3l-1.3-0.6
		c-1.2-0.4-2-1.4-2-2.7c0-1.6,1.4-2.9,3.5-2.9c1.2,0,2.3,0.5,3.1,1.3l-1,1.2c-0.6-0.5-1.3-0.8-2.1-0.8c-0.9,0-1.4,0.4-1.4,1.1
		c0,0.7,0.7,1,1.6,1.3l1.3,0.5c1.2,0.3,2.1,1.4,2.1,2.7c0,1.6-1.4,3-3.7,3C12.7,25.2,11.4,24.7,10.4,23.7z"/>
	<path class="st1" d="M19,20c0-3.2,1.8-5.1,4.4-5.1s4.4,1.9,4.4,5.1s-1.8,5.2-4.4,5.2S19,23.2,19,20z M25.9,20
		c0-2.1-0.9-3.4-2.4-3.4C22,16.6,21,17.8,21,20s0.9,3.5,2.4,3.5C24.9,23.5,25.9,22.1,25.9,20z"/>
	<path class="st1" d="M29.9,15h2l2.9,5.3l1,2.2h0.1c-0.1-1.2-0.2-2.3-0.3-3.5v-4h1.9v10h-2l-2.9-5.3l-1-2.1h-0.1
		c0.1,1.1,0.2,2.3,0.2,3.5v4h-1.9V15z"/>
</g>
</svg>
