<?xml version="1.0" encoding="utf-8"?>
<!-- Generator: Adobe Illustrator 24.0.0, SVG Export Plug-In . SVG Version: 6.00 Build 0)  -->
<svg version="1.1" id="图层_1" xmlns="http://www.w3.org/2000/svg" xmlns:xlink="http://www.w3.org/1999/xlink" x="0px" y="0px"
	 viewBox="0 0 40 40" style="enable-background:new 0 0 40 40;" xml:space="preserve">
<style type="text/css">
	.st0{fill:#FFFFFF;}
	.st1{fill:#909AB1;}
	.st2{fill:#3C6DD1;}
	.st3{fill:#F8D966;}
</style>
<g>
	<g>
		<path class="st0" d="M37.6,6.78H2.61c-0.89,0-1.67,0.67-1.67,1.67l0,0v13c2.33,2.33,5.78,3.78,9,3.89
			c3.78,0.11,7.55-1.33,10.11-3.89c2.56-2.33,6-3.67,9.44-3.67c3.67,0,6.89,1.33,9.78,3.67V8.56C39.27,7.34,38.38,6.45,37.6,6.78
			C37.6,6.45,37.6,6.45,37.6,6.78z"/>
		<path class="st1" d="M10.39,25.55c-0.11,0-0.22,0-0.44,0c-3.44-0.11-6.78-1.56-9.33-4L0.5,21.44V8.22c0-0.56,0.22-1.11,0.67-1.44
			s0.89-0.56,1.44-0.56h34.88c0.56,0,1.04,0.18,1.44,0.56c0.37,0.33,0.56,0.78,0.56,1.44v13.66l-0.56-0.44
			c-2.56-2.22-6-3.44-9.44-3.44l0,0c-3.33,0-6.67,1.33-9.11,3.44C17.72,24.11,14.16,25.55,10.39,25.55z M1.17,21.11
			c2.33,2.22,5.44,3.67,8.67,3.78C13.5,25,17.05,23.55,19.72,21c2.56-2.33,6.11-3.78,9.78-3.78l0,0c3.33,0,6.55,1.11,9.33,3.22V8.34
			c0-0.33-0.11-0.67-0.33-0.89C38.27,7.22,37.83,7,37.49,7l0,0H2.61C2.28,7,1.94,7.22,1.72,7.45S1.28,8,1.28,8.34v13L1.17,21.11z"/>
	</g>
	<g>
		<path class="st2" d="M20.16,21.33c-2.78,2.56-6.33,4-10.11,3.89c-3.33-0.11-6.67-1.56-9-3.89v10.44c0,0.89,0.78,1.67,1.67,1.67
			l0,0h34.99c0.89,0,1.67-0.67,1.67-1.67l0,0V21.11c-2.78-2.33-6.11-3.67-9.78-3.67C26.05,17.67,22.83,19.11,20.16,21.33z"/>
		<path class="st1" d="M37.6,33.78L37.6,33.78H2.61c-1.22,0-2.11-0.78-2.11-2V20.67l0.56,0.44c2.33,2.33,5.55,3.78,8.67,3.89
			c3.67,0.11,7.33-1.33,9.89-3.89l0,0c2.56-2.33,6.11-3.78,9.78-3.78l0,0c3.67,0,7,1.33,9.89,3.67l0.22,0.22V32
			c0.04,0.72-0.04,0.97-0.56,1.44C38.71,33.78,38.16,33.78,37.6,33.78z M37.6,33c0.44,0,0.67-0.11,0.89-0.44
			c0.22-0.22,0.44-0.56,0.44-0.89V21.22c-2.56-2.22-6-3.55-9.33-3.33c-3.55,0-6.67,1.33-9.33,3.55c-2.78,2.56-6.55,4.11-10.44,4
			C6.61,25.33,3.61,24,1.28,21.89v9.78c0,0.67,0.56,1.33,1.44,1.33l0,0L37.6,33L37.6,33C37.6,33,37.6,33,37.6,33z"/>
	</g>
	<g>
		<circle class="st3" cx="8.61" cy="13.22" r="3.78"/>
	</g>
</g>
</svg>
