<?xml version="1.0" encoding="utf-8"?>
<!-- Generator: Adobe Illustrator 24.0.0, SVG Export Plug-In . SVG Version: 6.00 Build 0)  -->
<svg version="1.1" id="图层_1" xmlns="http://www.w3.org/2000/svg" xmlns:xlink="http://www.w3.org/1999/xlink" x="0px" y="0px"
	 viewBox="0 0 40 40" style="enable-background:new 0 0 40 40;" xml:space="preserve">
<title>17. MQTT 协议-2</title>
<g id="_17._MQTT_协议">
	<path d="M6.3,20.09c0.09,0.18,0.16,0.38,0.24,0.58c0.08-0.2,0.16-0.39,0.25-0.59l0.26-0.54l2.53-4.96c0.03-0.07,0.08-0.14,0.14-0.2
		c0.04-0.05,0.1-0.09,0.16-0.11c0.06-0.01,0.13-0.01,0.2,0h2.01v9.86h-2.02v-5.73c0-0.28,0-0.58,0-0.89l-2.57,5.06
		c-0.07,0.15-0.18,0.28-0.33,0.37c-0.14,0.08-0.3,0.12-0.47,0.12H6.39c-0.17,0.01-0.35-0.04-0.5-0.12
		c-0.14-0.09-0.25-0.22-0.33-0.37l-2.59-5.07v0.48c0,0.15,0,0.29,0,0.42v5.68H1v-9.86h2.01c0.06-0.01,0.13-0.01,0.2,0
		c0.06,0.02,0.12,0.06,0.16,0.11c0.06,0.06,0.1,0.12,0.14,0.2l2.54,5.01c0.08,0.17,0.17,0.35,0.25,0.53L6.3,20.09z M22.9,19.13
		c0,0.41-0.04,0.82-0.13,1.23c-0.08,0.38-0.21,0.74-0.38,1.09c-0.17,0.34-0.37,0.66-0.61,0.96c-0.24,0.29-0.52,0.55-0.83,0.77
		l2.5,2.73h-1.88c-0.25,0-0.5-0.03-0.74-0.1c-0.23-0.07-0.43-0.21-0.59-0.39l-1.23-1.37c-0.2,0.04-0.4,0.08-0.61,0.1
		c-0.21,0.01-0.42,0.01-0.63,0c-0.73,0.02-1.45-0.1-2.13-0.35c-1.22-0.5-2.17-1.48-2.64-2.7c-0.25-0.63-0.37-1.31-0.37-1.99
		c0-0.68,0.12-1.36,0.37-2c0.25-0.6,0.62-1.14,1.09-1.6c0.46-0.47,1.02-0.84,1.63-1.09c0.67-0.24,1.38-0.35,2.1-0.33
		c0.72-0.01,1.43,0.12,2.1,0.39c0.61,0.25,1.16,0.62,1.62,1.09c0.45,0.45,0.8,1,1.03,1.6c0.25,0.63,0.38,1.31,0.37,1.99L22.9,19.13z
		 M20.55,19.13c0-0.44-0.06-0.88-0.18-1.3c-0.11-0.37-0.3-0.71-0.54-1c-0.24-0.27-0.54-0.48-0.87-0.62c-0.76-0.29-1.6-0.29-2.36,0
		c-0.34,0.13-0.64,0.35-0.88,0.62c-0.24,0.3-0.43,0.63-0.54,1c-0.14,0.42-0.2,0.87-0.2,1.31c-0.01,0.45,0.06,0.9,0.2,1.32
		c0.11,0.36,0.29,0.7,0.54,0.99c0.24,0.27,0.54,0.49,0.88,0.63c0.76,0.29,1.6,0.29,2.36,0c0.33-0.14,0.63-0.36,0.87-0.63
		c0.24-0.29,0.43-0.63,0.54-0.99C20.5,20.04,20.56,19.58,20.55,19.13z M30.25,14.2v1.81H27.6v8.06h-2.31v-8.06h-2.67V14.2
		L30.25,14.2z M39,14.2v1.81h-2.71v8.06h-2.35v-8.06h-2.67V14.2L39,14.2z"/>
</g>
</svg>
