<?xml version="1.0" encoding="utf-8"?>
<!-- Generator: Adobe Illustrator 24.0.0, SVG Export Plug-In . SVG Version: 6.00 Build 0)  -->
<svg version="1.1" id="图层_1" xmlns="http://www.w3.org/2000/svg" xmlns:xlink="http://www.w3.org/1999/xlink" x="0px" y="0px"
	 viewBox="0 0 40 40" style="enable-background:new 0 0 40 40;" xml:space="preserve">
<style type="text/css">
	.st0{fill:#0FBD8C;}
	.st1{fill:#2B8261;}
	.st2{fill:#909AB1;}
	.st3{fill:#CCCCCC;}
	.st4{fill:#454545;}
	.st5{fill:#FEBE2D;}
</style>
<title>扩展插件配图设计</title>
<g id="_12._Simple_Pyboard">
	<g>
		<rect class="st0" width="40" height="40"/>
	</g>
	<g>
		<path class="st1" d="M7.4,7.9h25.2c1.1,0,2,0.9,2,2v20.5c0,1.1-0.9,2-2,2H7.4c-1.1,0-2-0.9-2-2V9.9C5.4,8.8,6.3,7.9,7.4,7.9z"/>
		<path class="st2" d="M32.6,32.8H7.4c-1.2,0-2.4-1-2.4-2.4V9.9c0-1.2,1-2.4,2.4-2.4h25.2c1.2,0,2.4,1,2.4,2.4v20.5
			C35,31.6,33.9,32.8,32.6,32.8z M7.4,8.1c-1,0-1.7,0.8-1.7,1.8v20.5c0,1,0.8,1.7,1.7,1.7h25.2c1,0,1.8-0.7,1.8-1.7V9.9
			c0-1-0.8-1.8-1.8-1.8H7.4z"/>
	</g>
	<g>
		<path class="st3" d="M27.6,16.9L27.6,16.9c0,0.2-0.1,0.4-0.4,0.4h-0.9c-0.2,0-0.4-0.1-0.4-0.4l0,0c0-0.3,0.1-0.4,0.4-0.4h0.9
			C27.4,16.5,27.6,16.6,27.6,16.9z"/>
	</g>
	<g>
		<path class="st3" d="M27.6,18.3L27.6,18.3c0,0.2-0.1,0.4-0.4,0.4h-0.9c-0.2,0-0.4-0.1-0.4-0.4l0,0c0-0.3,0.1-0.4,0.4-0.4h0.9
			C27.4,17.9,27.6,18,27.6,18.3z"/>
	</g>
	<g>
		<path class="st3" d="M27.6,19.6L27.6,19.6c0,0.3-0.1,0.4-0.4,0.4h-1c-0.3,0-0.4-0.1-0.4-0.4l0,0c0-0.2,0.1-0.4,0.4-0.4h0.9
			C27.4,19.3,27.6,19.4,27.6,19.6z"/>
	</g>
	<g>
		<path class="st3" d="M27.6,21L27.6,21c0,0.3-0.1,0.4-0.4,0.4h-0.9c-0.2,0-0.4-0.1-0.4-0.4l0,0c0-0.2,0.1-0.4,0.4-0.4h0.9
			C27.4,20.6,27.6,20.8,27.6,21z"/>
	</g>
	<g>
		<path class="st3" d="M27.6,22.4L27.6,22.4c0,0.3-0.1,0.4-0.4,0.4h-0.9c-0.2,0-0.4-0.1-0.4-0.4l0,0c0-0.2,0.1-0.4,0.4-0.4h0.9
			C27.4,22,27.6,22.1,27.6,22.4z"/>
	</g>
	<g>
		<path class="st3" d="M14,16.9L14,16.9c0,0.2-0.1,0.4-0.4,0.4h-0.9c-0.2,0-0.4-0.1-0.4-0.4l0,0c0-0.3,0.1-0.4,0.4-0.4h0.9
			C13.9,16.5,14,16.6,14,16.9z"/>
	</g>
	<g>
		<path class="st3" d="M14,18.3L14,18.3c0,0.2-0.1,0.4-0.4,0.4h-0.9c-0.2,0-0.4-0.1-0.4-0.4l0,0c0-0.3,0.1-0.4,0.4-0.4h0.9
			C13.9,17.9,14,18,14,18.3z"/>
	</g>
	<g>
		<path class="st3" d="M14,19.6L14,19.6c0,0.3-0.1,0.4-0.4,0.4h-0.9c-0.2,0-0.4-0.1-0.4-0.4l0,0c0-0.2,0.1-0.4,0.4-0.4h0.9
			C13.9,19.3,14,19.4,14,19.6z"/>
	</g>
	<g>
		<path class="st3" d="M14,21L14,21c0,0.3-0.1,0.4-0.4,0.4h-0.9c-0.2,0-0.4-0.1-0.4-0.4l0,0c0-0.2,0.1-0.4,0.4-0.4h0.9
			C13.9,20.6,14,20.8,14,21z"/>
	</g>
	<g>
		<path class="st3" d="M14,22.4L14,22.4c0,0.3-0.1,0.4-0.4,0.4h-0.9c-0.2,0-0.4-0.1-0.4-0.4l0,0c0-0.2,0.1-0.4,0.4-0.4h1
			C13.9,22,14,22.1,14,22.4z"/>
	</g>
	<g>
		<path class="st3" d="M17.2,11.9L17.2,11.9c0.2,0,0.4,0.1,0.4,0.4v0.9c0,0.2-0.1,0.4-0.4,0.4l0,0c-0.3,0-0.4-0.1-0.4-0.4v-0.9
			C16.9,12.1,17,11.9,17.2,11.9z"/>
	</g>
	<g>
		<path class="st3" d="M18.6,11.9L18.6,11.9c0.2,0,0.4,0.1,0.4,0.4v0.9c0,0.2-0.1,0.4-0.4,0.4l0,0c-0.3,0-0.4-0.1-0.4-0.4v-0.9
			C18.2,12.1,18.4,11.9,18.6,11.9z"/>
	</g>
	<g>
		<path class="st3" d="M20,11.9L20,11.9c0.3,0,0.4,0.1,0.4,0.4v0.9c0,0.2-0.1,0.4-0.4,0.4l0,0c-0.2,0-0.4-0.1-0.4-0.4v-0.9
			C19.6,12.1,19.8,11.9,20,11.9z"/>
	</g>
	<g>
		<path class="st3" d="M21.4,11.9L21.4,11.9c0.3,0,0.4,0.1,0.4,0.4v0.9c0,0.2-0.1,0.4-0.4,0.4l0,0c-0.2,0-0.4-0.1-0.4-0.4v-0.9
			C21,12.1,21.1,11.9,21.4,11.9z"/>
	</g>
	<g>
		<path class="st3" d="M22.8,11.9L22.8,11.9c0.2,0,0.4,0.1,0.4,0.4v0.9c0,0.2-0.1,0.4-0.4,0.4l0,0c-0.3,0-0.4-0.1-0.4-0.4v-0.9
			C22.4,12.1,22.5,11.9,22.8,11.9z"/>
	</g>
	<g>
		<path class="st3" d="M17.2,25.5L17.2,25.5c0.2,0,0.4,0.1,0.4,0.4v0.9c0,0.3-0.1,0.4-0.4,0.4l0,0c-0.3,0-0.4-0.1-0.4-0.4v-0.9
			C16.9,25.6,17,25.5,17.2,25.5z"/>
	</g>
	<g>
		<path class="st3" d="M18.6,25.5L18.6,25.5c0.2,0,0.4,0.1,0.4,0.4v0.9c0,0.3-0.1,0.4-0.4,0.4l0,0c-0.3,0-0.4-0.1-0.4-0.4v-0.9
			C18.2,25.6,18.4,25.5,18.6,25.5z"/>
	</g>
	<g>
		<path class="st3" d="M20,25.5L20,25.5c0.3,0,0.4,0.1,0.4,0.4v0.9c0,0.3-0.1,0.4-0.4,0.4l0,0c-0.2,0-0.4-0.1-0.4-0.4v-0.9
			C19.6,25.6,19.8,25.5,20,25.5z"/>
	</g>
	<g>
		<path class="st3" d="M21.4,25.5L21.4,25.5c0.3,0,0.4,0.1,0.4,0.4v0.9c0,0.3-0.1,0.4-0.4,0.4l0,0c-0.2,0-0.4-0.1-0.4-0.4v-0.9
			C21,25.6,21.1,25.5,21.4,25.5z"/>
	</g>
	<g>
		<path class="st3" d="M22.8,25.5L22.8,25.5c0.2,0,0.4,0.1,0.4,0.4v0.9c0,0.3-0.1,0.4-0.4,0.4l0,0c-0.3,0-0.4-0.1-0.4-0.4v-0.9
			C22.4,25.6,22.5,25.5,22.8,25.5z"/>
	</g>
	<g>
		<path class="st4" d="M14.5,13.4h11.1c0.4,0,0.8,0.4,0.8,0.8v11.1c0,0.4-0.4,0.8-0.8,0.8H14.5c-0.4,0-0.8-0.4-0.8-0.8V14.1
			C13.8,13.6,14.1,13.4,14.5,13.4z"/>
		<path class="st2" d="M25.5,26.1H14.4c-0.6,0-1-0.5-1-1V14c0-0.6,0.5-1,1-1h11.1c0.6,0,1,0.5,1,1v11.1
			C26.5,25.8,26.1,26.1,25.5,26.1z M14.5,13.6c-0.2,0-0.4,0.1-0.4,0.4v11.1c0,0.2,0.1,0.4,0.4,0.4h11.1c0.2,0,0.4-0.1,0.4-0.4V14
			c0-0.2-0.1-0.4-0.4-0.4C25.6,13.6,14.5,13.6,14.5,13.6z"/>
	</g>
	<g>
		<path class="st5" d="M30.1,8.8c-1.2,0-2.2-1-2.2-2.2s1-2.3,2.2-2.3s2.2,1,2.2,2.3S31.2,8.8,30.1,8.8z M30.1,5.6c-0.5,0-1,0.4-1,1
			s0.4,1,1,1s1-0.4,1-1S30.6,5.6,30.1,5.6z"/>
	</g>
	<g>
		<path class="st5" d="M9.5,35.6c-1.2,0-2.3-1-2.3-2.2s1-2.2,2.3-2.2s2.2,1,2.2,2.2S10.6,35.6,9.5,35.6z M9.5,32.5c-0.5,0-1,0.4-1,1
			s0.4,1,1,1s1-0.4,1-1S10,32.5,9.5,32.5z"/>
	</g>
</g>
</svg>
