<?xml version="1.0" encoding="utf-8"?>
<!-- Generator: Adobe Illustrator 24.0.0, SVG Export Plug-In . SVG Version: 6.00 Build 0)  -->
<svg version="1.1" id="图层_1" xmlns="http://www.w3.org/2000/svg" xmlns:xlink="http://www.w3.org/1999/xlink" x="0px" y="0px"
	 viewBox="0 0 40 40" style="enable-background:new 0 0 40 40;" xml:space="preserve">
<style type="text/css">
	.st0{fill:#0FBD8C;}
	.st1{fill:#FFFFFF;}
</style>
<title>扩展插件配图设计</title>
<g id="_14._HCI_人机交互模拟">
	<rect class="st0" width="40" height="40"/>
	<path class="st1" d="M15.6,5.2L15.6,5.2h-5.4c-1.4,0-2.6,1.1-2.7,2.6v0.1v5.3c0.1,1.5,1.3,2.7,2.7,2.7h5.3c1.5,0,2.6-1.1,2.7-2.6
		v-0.1V7.9C18.2,6.5,17.1,5.3,15.6,5.2z"/>
	<path class="st0" d="M10.7,7.7H15c0.4,0,0.7,0.3,0.7,0.7v4.3c0,0.4-0.3,0.7-0.7,0.7h-4.3c-0.4,0-0.7-0.3-0.7-0.7V8.4
		C10,8,10.3,7.7,10.7,7.7z"/>
	<path class="st1" d="M34,18.9c0-0.1-0.1-0.1-0.2-0.1h-1.2C31.8,12.4,26.4,7.6,20,7.6c-0.2,0-0.3,0.2-0.3,0.3v1.8
		c0,0.2,0.2,0.3,0.3,0.3c5.1,0,9.4,3.8,10.2,8.8h-0.9c-0.1,0-0.1,0-0.2,0.1c0,0.1,0,0.2,0,0.3l1.8,3.1c0.1,0.3,0.3,0.4,0.6,0.4
		s0.6-0.1,0.7-0.4l1.8-3.1C34.1,19.1,34.1,19,34,18.9z"/>
	<path class="st1" d="M20,30.7c-5.2,0-9.5-3.7-10.3-8.8h1c0.1,0,0.2,0,0.2-0.1c0-0.1,0-0.2,0-0.3l-1.8-3.1C9,18.3,9,18.3,8.8,18.3
		c-0.3-0.2-0.8-0.1-1,0.2L6,21.6c0,0,0,0.1,0,0.3c0,0,0.1,0.1,0.2,0.1h1.2c0.8,6.3,6.2,11,12.6,11c0.1,0,0.3-0.1,0.3-0.2V31
		C20.3,30.8,20.1,30.7,20,30.7z"/>
	<g>
		<circle class="st1" cx="27.3" cy="25.2" r="3"/>
		<path class="st1" d="M27.7,28.9c-3.3-0.2-6,2.3-6.2,5.5c0,0.1,0.1,0.3,0.2,0.4c0.1,0.1,0.3,0.2,0.4,0.2h10.5
			c0.2,0,0.3-0.1,0.5-0.2c0.1-0.1,0.1-0.2,0.1-0.4C33,31.4,30.6,29.1,27.7,28.9z"/>
	</g>
</g>
</svg>
