<?xml version="1.0" encoding="utf-8"?>
<!-- Generator: Adobe Illustrator 24.0.0, SVG Export Plug-In . SVG Version: 6.00 Build 0)  -->
<svg version="1.1" id="图层_1" xmlns="http://www.w3.org/2000/svg" xmlns:xlink="http://www.w3.org/1999/xlink" x="0px" y="0px"
	 viewBox="0 0 40 40" style="enable-background:new 0 0 40 40;" xml:space="preserve">
<style type="text/css">
	.st0{fill:#0FBD8C;}
	.st1{fill:#FFFFFF;}
</style>
<title>扩展插件配图设计</title>
<g id="_34._leapmotion">
	<g>
		<rect class="st0" width="40" height="40"/>
	</g>
	<g>
		<path class="st1" d="M9.7,23.78H5.52V15.6c0-0.27-0.25-0.52-0.52-0.52s-0.52,0.25-0.52,0.52v9.23H9.8c0.16,0,0.43-0.07,0.43-0.53
			C10.22,24.05,10.09,23.78,9.7,23.78z"/>
		<path class="st1" d="M17.32,15.7c0-0.27-0.26-0.53-0.53-0.53h-4.7c-0.27,0-0.52,0.26-0.52,0.53v8.6c0,0.27,0.25,0.53,0.52,0.53
			h4.7c0.39,0,0.53-0.27,0.53-0.53s-0.14-0.52-0.53-0.52h-4.17v-7.55h4.17C17.07,16.23,17.32,15.97,17.32,15.7z"/>
		<path class="st1" d="M23.8,15.42c-0.15-0.23-0.39-0.34-0.7-0.34c-0.25,0-0.38,0.13-0.49,0.24l-3.83,8.64l-0.01,0.15
			c0,0.33,0.13,0.53,0.37,0.61c0.01,0.01,0.24,0.12,0.49,0.01c0.08-0.01,0.13-0.06,0.17-0.1h0.08l3.32-7.52l3.38,7.34
			c0.03,0.1,0.12,0.27,0.3,0.35c0.06,0.03,0.14,0.04,0.21,0.04c0.08,0,0.16,0,0.25-0.04c0.03-0.02,0.08-0.04,0.12-0.08
			c0.11-0.06,0.21-0.13,0.26-0.32c0.05-0.18,0.01-0.28-0.03-0.35L23.8,15.42z"/>
		<path class="st1" d="M13.7,19.48c-0.27,0-0.53,0.36-0.53,0.52c0,0.27,0.26,0.53,0.53,0.53h2.2c0.27,0,0.52-0.36,0.52-0.53
			c0-0.25-0.14-0.52-0.52-0.52H13.7z"/>
		<path class="st1" d="M24.09,20.55h-1.76c-0.31,0-0.56,0.28-0.56,0.63c0,0.31,0.28,0.56,0.63,0.56h1.76c0.31,0,0.56-0.28,0.56-0.63
			C24.73,20.8,24.44,20.55,24.09,20.55z"/>
		<path class="st1" d="M32.8,15.08h-3.52v9.22c0,0.27,0.25,0.53,0.52,0.53c0.36,0,0.53-0.25,0.53-0.42v-8.08H33
			c0.38,0,0.84,0.19,1.11,0.46c0.25,0.25,0.46,0.71,0.36,1.11c0,0.38-0.2,0.84-0.46,1.11c-0.25,0.25-0.59,0.35-1.21,0.36H31
			c-0.27,0-0.53,0.36-0.53,0.52c0,0.27,0.25,0.52,0.53,0.52h1.8c1.53,0,2.73-1.2,2.73-2.72C35.53,16.2,34.35,15.08,32.8,15.08z"/>
	</g>
</g>
</svg>
