<?xml version="1.0" encoding="utf-8"?>
<!-- Generator: Adobe Illustrator 24.0.0, SVG Export Plug-In . SVG Version: 6.00 Build 0)  -->
<svg version="1.1" id="图层_1" xmlns="http://www.w3.org/2000/svg" xmlns:xlink="http://www.w3.org/1999/xlink" x="0px" y="0px"
	 viewBox="0 0 40 40" style="enable-background:new 0 0 40 40;" xml:space="preserve">
<style type="text/css">
	.st0{fill:#FFFFFF;}
</style>
<title>扩展插件配图设计</title>
<g>
	<path class="st0" d="M36.85,21.38l-3.6-3.69v-6.25c0-0.28-0.22-0.5-0.5-0.5h-3.11c-0.28,0-0.5,0.22-0.5,0.5v2.07l-0.32-0.33
		l-8.49-8.68c-0.19-0.2-0.51-0.2-0.71,0l-8.49,8.68l-8,8.2c-0.3,0.31-0.08,0.85,0.36,0.85h2.98v12.92c0,0.28,0.22,0.5,0.5,0.5h12.46
		v-5.17l-5.66-5.66c-0.39,0.23-0.84,0.37-1.32,0.37c-1.46,0-2.65-1.19-2.65-2.65c0-1.46,1.19-2.65,2.65-2.65s2.65,1.19,2.65,2.65
		c0,0.56-0.18,1.08-0.49,1.52l4.83,4.83v-9.39c-1.19-0.26-2.08-1.31-2.08-2.58c0-1.46,1.19-2.65,2.65-2.65s2.65,1.19,2.65,2.65
		c0,1.26-0.89,2.32-2.08,2.58v9.38l4.83-4.83c-0.3-0.43-0.49-0.95-0.49-1.52c0-1.46,1.19-2.65,2.65-2.65s2.65,1.19,2.65,2.65
		s-1.19,2.65-2.65,2.65c-0.49,0-0.93-0.14-1.32-0.37l-5.66,5.66v5.17h12.46c0.28,0,0.5-0.22,0.5-0.5V22.23h2.98
		C36.95,22.23,37.17,21.69,36.85,21.38z"/>
	<path class="st0" d="M10.93,22.53c0,0.84,0.68,1.51,1.51,1.51c0.83,0,1.51-0.68,1.51-1.51c0-0.84-0.68-1.51-1.51-1.51
		C11.61,21.02,10.93,21.7,10.93,22.53z"/>
	<path class="st0" d="M21.5,16.9c0-0.84-0.68-1.51-1.51-1.51c-0.84,0-1.51,0.68-1.51,1.51c0,0.84,0.68,1.51,1.51,1.51
		C20.83,18.41,21.5,17.74,21.5,16.9z"/>
	<path class="st0" d="M27.55,24.05c0.84,0,1.51-0.68,1.51-1.51c0-0.84-0.68-1.51-1.51-1.51c-0.84,0-1.51,0.68-1.51,1.51
		C26.04,23.37,26.72,24.05,27.55,24.05z"/>
</g>
</svg>
