<?xml version="1.0" encoding="utf-8"?>
<!-- Generator: Adobe Illustrator 24.0.0, SVG Export Plug-In . SVG Version: 6.00 Build 0)  -->
<svg version="1.1" id="图层_1" xmlns="http://www.w3.org/2000/svg" xmlns:xlink="http://www.w3.org/1999/xlink" x="0px" y="0px"
	 viewBox="0 0 40 40" style="enable-background:new 0 0 40 40;" xml:space="preserve">
<style type="text/css">
	.st0{fill:#0FBD8C;}
	.st1{fill:#FFFFFF;}
</style>
<title>扩展插件配图设计</title>
<g id="_13._HomeAssistant">
	<rect class="st0" width="40" height="40"/>
</g>
<g>
	<path class="st1" d="M34.87,21.22l-3.18-3.25v-5.52c0-0.24-0.2-0.44-0.44-0.44h-2.74c-0.24,0-0.44,0.2-0.44,0.44v1.82l-0.28-0.29
		l-7.49-7.65c-0.17-0.18-0.45-0.18-0.63,0l-7.49,7.65l-7.07,7.23c-0.27,0.28-0.07,0.74,0.31,0.74h2.63v11.4
		c0,0.24,0.2,0.44,0.44,0.44h11v-4.56l-5-5c-0.34,0.2-0.74,0.32-1.17,0.32c-1.29,0-2.33-1.05-2.33-2.33s1.05-2.33,2.33-2.33
		s2.33,1.05,2.33,2.33c0,0.5-0.16,0.96-0.43,1.34l4.26,4.26v-8.28c-1.05-0.23-1.83-1.16-1.83-2.28c0-1.29,1.05-2.33,2.33-2.33
		s2.33,1.05,2.33,2.33c0,1.11-0.79,2.05-1.83,2.28v8.28l4.26-4.26c-0.27-0.38-0.43-0.84-0.43-1.34c0-1.29,1.05-2.33,2.33-2.33
		S29,20.95,29,22.23s-1.05,2.33-2.33,2.33c-0.43,0-0.82-0.12-1.17-0.32l-5,5v4.56h11c0.24,0,0.44-0.2,0.44-0.44v-11.4h2.63
		C34.95,21.96,35.15,21.49,34.87,21.22z"/>
	<path class="st1" d="M12,22.23c0,0.74,0.6,1.33,1.33,1.33s1.33-0.6,1.33-1.33c0-0.73-0.6-1.33-1.33-1.33S12,21.5,12,22.23z"/>
	<path class="st1" d="M21.33,17.27c0-0.73-0.6-1.33-1.33-1.33c-0.73,0-1.33,0.6-1.33,1.33s0.6,1.33,1.33,1.33
		C20.74,18.6,21.33,18,21.33,17.27z"/>
	<path class="st1" d="M26.66,23.57c0.73,0,1.33-0.6,1.33-1.33c0-0.73-0.6-1.33-1.33-1.33c-0.74,0-1.33,0.6-1.33,1.33
		C25.33,22.97,25.93,23.57,26.66,23.57z"/>
</g>
</svg>
