<?xml version="1.0" encoding="utf-8"?>
<!-- Generator: Adobe Illustrator 24.0.0, SVG Export Plug-In . SVG Version: 6.00 Build 0)  -->
<svg version="1.1" id="图层_1" xmlns="http://www.w3.org/2000/svg" xmlns:xlink="http://www.w3.org/1999/xlink" x="0px" y="0px"
	 viewBox="0 0 40 40" style="enable-background:new 0 0 40 40;" xml:space="preserve">
<style type="text/css">
	.st0{fill:#0FBD8C;}
	.st1{fill:#1A1A1A;}
	.st2{fill:#FFFFFF;}
	.st3{fill:#F2F2F2;}
</style>
<title>扩展插件配图设计</title>
<g id="_23._YOLO">
	<rect class="st0" width="40" height="40"/>
	<path class="st1" d="M22.3,28.5c-0.2,0-0.3-0.1-0.4-0.2c-0.1-0.1-0.1-0.3,0-0.4l0.4-0.6c0.3-0.5,0.5-1,0.7-1.5
		c0.5-1.3,0.6-2.4,0.4-6.8c0-0.5,0-1,0-1.4c-0.3,0.1-0.7,0.2-1,0.3h-0.1c-0.1,0-0.2,0-0.2-0.1c-0.1-0.1-0.2-0.2-0.2-0.3v-0.5
		c0-0.2,0.1-0.3,0.3-0.4c0.4-0.1,0.7-0.2,1.1-0.3l0,0h-3c-0.2,0-0.4-0.2-0.4-0.5c0,0,0,0,0,0v-0.6c0-0.2,0.2-0.4,0.4-0.4
		c0,0,0,0,0,0h2.7c-0.1-0.3-0.2-0.6-0.4-0.8c-0.3-0.5-0.6-1-1-1.4l-0.3-0.4c-0.1-0.1-0.1-0.3,0-0.5c0.1-0.1,0.2-0.2,0.4-0.2l0,0
		c1.1,0,2.3,0.1,3.5,0.1s2.4,0,3.5-0.1l0,0c0.2,0,0.3,0.1,0.4,0.3l0.1,0.4c0,0.1,0,0.2,0,0.3c-0.1,0.1-0.2,0.2-0.3,0.2
		c-0.5,0.1-1,0.4-1.3,0.7c-0.4,0.4-0.7,0.9-0.9,1.4h3.6c0.2,0,0.4,0.2,0.4,0.4c0,0,0,0,0,0v0.6c0,0.2-0.2,0.4-0.4,0.4c0,0,0,0,0,0
		h-3.1c0.5,0.1,0.9,0.2,1.4,0.4c0.2,0.1,0.3,0.2,0.3,0.4v0.5c0,0.1-0.1,0.3-0.2,0.3c-0.1,0.1-0.2,0.1-0.2,0.1h-0.1
		c-0.7-0.3-1.4-0.4-2.1-0.5c0,1.1,0,2.1,0.1,3.2c0.1,1.3,0.2,2.6,0.2,3.9c0.2,0.1,0.5,0.1,0.7,0.1c0.5,0,1-0.1,1.4-0.5
		c0.2-0.2,0.4-0.5,0.5-0.9c0-0.1,0-0.2,0-0.3c0-0.3,0.1-0.6,0.3-0.7c0.1,0,0.2-0.1,0.3-0.1c0.3,0,0.5,0.1,0.7,0.3
		c0.2,0.2,0.4,0.4,0.6,0.6c0.1,0.1,0.1,0.2,0.1,0.2v4.2c0,0.2-0.1,0.4-0.3,0.4c-0.6,0.1-1.1,0.2-1.7,0.3c-0.6,0.1-0.8,0.1-1.3,0.1
		l-1.1,0.1l-1.2,0.1l-1.2,0.1L22.3,28.5L22.3,28.5z"/>
	<path class="st2" d="M28.8,11.7l0.1,0.4c-0.6,0.1-1.1,0.4-1.5,0.8c-0.6,0.6-1,1.3-1.1,2.1h4.2v0.6h-4.3c0,0.3-0.1,0.5-0.1,0.7
		c0.9,0.1,1.8,0.2,2.6,0.6v0.5c-0.9-0.3-1.7-0.5-2.7-0.5c-0.1,1.3,0,2.5,0.1,3.8c0.1,1.4,0.2,2.8,0.1,4.1c0.4,0.1,0.7,0.2,1.1,0.2
		c0.6,0,1.3-0.2,1.7-0.6c0.3-0.3,0.5-0.7,0.6-1.1c0-0.3,0-0.6,0.1-0.7h0.1c0.2,0,0.3,0.1,0.4,0.2c0.2,0.1,0.4,0.3,0.5,0.5v4.2
		c-0.4,0.1-1,0.2-1.7,0.3s-1,0.1-2.5,0.1c-1.3,0.1-1.5,0.1-2.4,0.1c-0.9,0-1.4,0-1.8,0l0.4-0.6c0.3-0.5,0.5-1.1,0.8-1.6
		c0.5-1.4,0.6-2.5,0.4-7c0-0.8,0-1.4-0.1-1.9c-0.5,0.1-1,0.2-1.5,0.4v-0.5c0.5-0.2,1-0.3,1.5-0.4c0-0.3,0-0.6-0.1-0.8h-3.4v-0.6h3.3
		c-0.1-0.5-0.3-1-0.6-1.5c-0.3-0.5-0.7-1-1.1-1.5l-0.3-0.4c1.1,0.1,2.2,0.1,3.5,0.1h0.1c1.2,0,2.4,0,3.5-0.1 M21.7,10.7
		c-0.5,0-0.9,0.3-0.9,0.8c0,0.3,0.1,0.5,0.3,0.7l0.1,0.2l0.2,0.2v0.1c0.4,0.4,0.7,0.8,1,1.3l0.1,0.2h-2.1c-0.5,0-0.8,0.4-0.8,0.8
		v0.6c0,0.5,0.4,0.8,0.8,0.8h1.2c-0.1,0.1-0.1,0.2-0.1,0.4v0.5c0,0.5,0.4,0.8,0.8,0.8c0,0,0,0,0,0c0.1,0,0.2,0,0.3,0l0.4-0.1
		c0,0.3,0,0.6,0,0.9c0.1,4.4,0.1,5.4-0.4,6.7c-0.2,0.5-0.4,1-0.7,1.4l-0.4,0.5c-0.2,0.3-0.2,0.6-0.1,0.9c0.1,0.3,0.4,0.5,0.7,0.5
		l0,0c0.4,0,1.1,0,1.8,0h1.2l1.2-0.1l1.2-0.1c0.5,0,0.9,0,1.4-0.1c0.6-0.1,1.2-0.2,1.8-0.3c0.4-0.1,0.7-0.4,0.7-0.8v-4.3
		c0-0.2-0.1-0.3-0.2-0.5c-0.2-0.3-0.4-0.5-0.7-0.7c-0.3-0.2-0.6-0.4-0.9-0.4c-0.2,0-0.3,0-0.5,0.1c-0.4,0.2-0.6,0.7-0.5,1.1
		c0,0.1,0,0.1,0,0.2l0,0c-0.1,0.2-0.2,0.4-0.4,0.6c-0.3,0.3-0.7,0.4-1.1,0.3H27c0-1.2,0-2.4-0.2-3.5v-0.1c-0.1-0.9-0.1-1.8-0.1-2.7
		c0.5,0.1,1,0.2,1.6,0.4c0.1,0,0.2,0,0.3,0c0.5,0,0.8-0.4,0.8-0.8c0,0,0,0,0,0v-0.5c0-0.1,0-0.3-0.1-0.4h1.1c0.5,0,0.8-0.4,0.8-0.8
		v-0.6c0-0.5-0.4-0.8-0.8-0.8h-2.9c0.1-0.2,0.3-0.5,0.5-0.6c0.3-0.3,0.7-0.5,1.1-0.6c0.2-0.1,0.4-0.2,0.5-0.4c0.1-0.2,0.1-0.5,0-0.7
		l-0.1-0.1l-0.1-0.2c-0.1-0.3-0.4-0.5-0.8-0.5l0,0c-1.1,0.1-2.2,0.1-3.4,0.1h-0.1C24,10.9,22.9,10.9,21.7,10.7L21.7,10.7z"/>
	<path class="st1" d="M18.2,24.8c-2.7,0-4.9-2.6-4.9-5.7s2.2-5.7,4.9-5.7s4.9,2.6,4.9,5.7S21,24.8,18.2,24.8z"/>
	<path class="st2" d="M18.2,13.7c2.5,0,4.5,2.4,4.5,5.3s-2,5.3-4.5,5.3S13.7,22,13.7,19S15.8,13.7,18.2,13.7 M18.2,12.9
		c-2.9,0-5.4,2.8-5.4,6.2s2.4,6.2,5.4,6.2s5.4-2.8,5.4-6.2S21.2,12.9,18.2,12.9z"/>
	<path class="st1" d="M32.7,24.8c-2.7,0-4.9-2.6-4.9-5.7s2.2-5.7,4.9-5.7s4.9,2.6,4.9,5.7S35.4,24.8,32.7,24.8z"/>
	<path class="st2" d="M32.7,13.7c2.5,0,4.5,2.4,4.5,5.3s-2,5.3-4.5,5.3S28.2,22,28.2,19S30.2,13.7,32.7,13.7 M32.7,12.9
		c-2.9,0-5.4,2.8-5.4,6.2s2.4,6.2,5.4,6.2S38,22.4,38,19S35.6,12.9,32.7,12.9L32.7,12.9z"/>
	<path class="st3" d="M17,16.6c-1.1,1.5-1.1,1.7-1.2,1.6c-0.3-0.1-0.4-1.2,0-2.1c0-0.1,0.6-1.2,1.4-1.2c0.2,0,0.4,0.1,0.5,0.2
		C17.8,15.4,17.5,15.8,17,16.6z"/>
	<path class="st3" d="M31.1,16.6c-1.1,1.5-1.1,1.7-1.2,1.6c-0.3-0.1-0.4-1.2,0-2.1c0-0.1,0.6-1.2,1.4-1.2c0.1,0,0.4,0,0.5,0.2
		C31.9,15.4,31.7,15.8,31.1,16.6z"/>
	<path class="st1" d="M6.4,28.9c-0.2,0-0.3-0.1-0.4-0.3l-0.1-0.3c-0.1-0.2,0-0.4,0.2-0.5c1-0.4,1.8-1.3,2.2-2.3v-0.1
		c0.1-0.7,0-1.4-0.2-2.1c-0.1-0.4-0.3-0.8-0.5-1.1c-0.4-0.9-0.9-1.9-1.4-2.8c-0.5-0.9-0.9-1.9-1.4-2.8c-0.1-0.3-0.3-0.5-0.6-0.7
		c-0.3-0.3-0.6-0.4-1-0.5c-0.1,0-0.3-0.1-0.3-0.2l-0.4-0.6c-0.1-0.1-0.1-0.3,0-0.4c0.1-0.1,0.2-0.2,0.4-0.2l0,0
		c0.4,0,1.7,0.1,2.8,0.1h2.9h0.5l0,0c0.2,0,0.3,0.1,0.4,0.2c0.1,0.2,0.1,0.3-0.1,0.5l-0.3,0.4c-0.2,0.3-0.3,0.6-0.3,0.9
		c-0.1,1,0.2,2,0.9,2.7c0.4-0.5,0.7-1.1,1-1.7c0.6-0.9,0.7-2.1,0.5-3.1c-0.1-0.2-0.2-0.4-0.3-0.5L10.1,13c-0.2,0-0.3-0.2-0.3-0.4
		v-0.6c0-0.1,0.1-0.3,0.2-0.3c0.1-0.1,0.2-0.1,0.2-0.1c0,0,0.1,0,0.1,0c0,0,0.3,0,1.8,0h1.4h1.1h2.1l0,0c0.1,0,0.2,0.1,0.3,0.1
		c0.1,0.1,0.1,0.2,0.1,0.4l-0.1,0.5c0,0.1-0.1,0.2-0.3,0.3c-0.3,0.1-0.6,0.3-0.8,0.4c-0.9,0.6-1.6,1.5-2,2.5c-1,1.5-1.7,3.1-2.3,4.8
		c-0.2,0.6-0.3,1.1-0.4,1.7c-0.1,0.9,0,1.9,0.2,2.8c0,0.1,0,0.2,0.1,0.3c0,0.1,0.2,0.2,0.4,0.4c0.3,0.2,0.7,0.4,1,0.5
		c0.2,0.1,0.3,0.2,0.3,0.4v0.3c0,0.2-0.1,0.4-0.3,0.4l-3.3,0.7L6.4,28.9L6.4,28.9z"/>
	<path class="st2" d="M16.9,12l-0.1,0.5c-0.3,0.1-0.6,0.3-0.9,0.5c-0.9,0.7-1.7,1.6-2.2,2.6c-1,1.5-1.8,3.2-2.3,4.9
		c-0.2,0.6-0.3,1.2-0.4,1.8c-0.1,1,0,2,0.3,2.9c0,0.1,0,0.2,0.1,0.3c0.1,0.3,0.4,0.5,0.6,0.6c0.3,0.2,0.7,0.4,1.1,0.5V27l-3.3,0.7
		l-3.4,0.7c0-0.1-0.1-0.2-0.1-0.3c1.2-0.5,2.1-1.4,2.5-2.6v-0.2c0.1-0.8,0-1.6-0.2-2.3c-0.1-0.4-0.3-0.8-0.5-1.2
		c-0.9-1.9-1.9-3.7-2.8-5.5c-0.2-0.3-0.4-0.6-0.7-0.8c-0.3-0.3-0.8-0.5-1.3-0.6l-0.4-0.6c0.4,0,1.7,0.1,2.8,0.1h2h0.9
		c0.2,0,0.4,0,0.6,0l-0.3,0.4c-0.2,0.3-0.4,0.7-0.4,1.1c-0.1,1.3,0.4,2.6,1.3,3.5c0.6-0.7,1.1-1.4,1.4-2.2c0.6-1,0.8-2.3,0.4-3.5
		c-0.1-0.3-0.3-0.5-0.4-0.7l-0.9-0.2v-0.6c0.6,0.1,1.3,0.1,1.9,0.1h1.5C14,12.1,16.8,12.1,16.9,12 M9.1,14.3L9.1,14.3 M16.9,11.2
		h-0.1h-2.1h-1.2h-1.4c-1.3,0-1.6,0-1.7,0h-0.2c-0.2,0-0.3,0.1-0.5,0.2c-0.2,0.2-0.3,0.4-0.3,0.7v0.6c0,0.4,0.3,0.7,0.7,0.8l0.6,0.1
		c0.1,0.1,0.1,0.2,0.2,0.3c0.2,1,0.1,2-0.4,2.8c-0.2,0.4-0.4,0.8-0.7,1.1c-0.4-0.6-0.6-1.3-0.5-2c0-0.3,0.1-0.5,0.3-0.8l0.2-0.3
		c0.3-0.3,0.3-0.9,0-1.2c-0.2-0.2-0.4-0.2-0.6-0.2H9H8.5H7.7h-2c-1,0-2.2-0.1-2.8-0.1l0,0c-0.3,0-0.6,0.2-0.7,0.4
		C2,14,2,14.3,2.1,14.6l0.2,0.3l0.2,0.3c0.2,0.2,0.4,0.4,0.7,0.4c0.3,0.1,0.6,0.2,0.8,0.4c0.2,0.1,0.4,0.3,0.5,0.5
		c0.4,0.9,0.9,1.9,1.4,2.8s0.9,1.9,1.4,2.8c0.2,0.4,0.4,0.7,0.5,1.1c0.2,0.6,0.3,1.3,0.2,2l0,0v0.1c-0.3,0.9-1.1,1.7-2,2
		c-0.4,0.2-0.5,0.6-0.4,1l0.1,0.3c0.1,0.3,0.4,0.6,0.8,0.6h0.2l3.4-0.7l3.3-0.7c0.4-0.1,0.6-0.4,0.7-0.8v-0.3c0-0.4-0.2-0.7-0.5-0.8
		c-0.3-0.1-0.6-0.3-1-0.5c-0.2-0.1-0.3-0.2-0.3-0.2c0-0.1,0-0.1,0-0.2c-0.2-0.9-0.3-1.7-0.2-2.6c0.1-0.6,0.2-1.1,0.3-1.6
		c0.5-1.7,1.3-3.3,2.2-4.8c0.4-0.9,1.1-1.7,1.9-2.3c0.2-0.2,0.5-0.3,0.8-0.4c0.3-0.1,0.5-0.3,0.5-0.6l0.1-0.2l0-0.3
		c0.1-0.3,0-0.6-0.2-0.8C17.4,11.2,17.2,11.1,16.9,11.2L16.9,11.2z"/>
</g>
</svg>
