<?xml version="1.0" encoding="utf-8"?>
<!-- Generator: Adobe Illustrator 24.1.0, SVG Export Plug-In . SVG Version: 6.00 Build 0)  -->
<svg version="1.1" id="图层_1" xmlns="http://www.w3.org/2000/svg" xmlns:xlink="http://www.w3.org/1999/xlink" x="0px" y="0px"
	 viewBox="0 0 40 40" style="enable-background:new 0 0 40 40;" xml:space="preserve">
<style type="text/css">
	.st0{fill:#F35F85;}
	.st1{fill:#FFFFFF;}
	.st2{fill:#5785CB;}
	.st3{fill:#F2466B;}
</style>
<g id="toio2">
	<g>
		<path class="st0" d="M27,35.5H7.8c-0.6,0-1.1-0.5-1.1-1.1V10c0-0.6,0.5-1.1,1.1-1.1h24.3c0.6,0,1.1,0.5,1.1,1.1v19.4
			C31.9,30.7,28.4,34.1,27,35.5z"/>
		<path class="st1" d="M27.2,36H7.8c-0.9,0-1.6-0.7-1.6-1.6V10c0-0.9,0.8-1.6,1.6-1.6c0,0,0,0,0,0h24.3c0,0,0,0,0,0
			c0.9,0,1.6,0.7,1.6,1.5v19.6l-0.2,0.1c-0.8,0.7-2.1,2-3.4,3.3c-1.1,1.1-2.2,2.2-2.9,2.8L27.2,36z M7.8,9.4c-0.3,0-0.6,0.3-0.6,0.6
			l0,24.4c0,0.3,0.3,0.6,0.6,0.6h19c0.7-0.6,1.7-1.6,2.7-2.7c1.2-1.2,2.5-2.4,3.3-3.2V10c0-0.3-0.3-0.6-0.6-0.6h0H7.8
			C7.8,9.4,7.8,9.4,7.8,9.4z"/>
	</g>
	<g>
		<circle class="st2" cx="20" cy="9.1" r="4.6"/>
		<path class="st1" d="M20,14.1c-2.8,0-5.1-2.3-5.1-5.1C14.9,6.3,17.2,4,20,4c2.8,0,5.1,2.3,5.1,5.1C25.1,11.9,22.8,14.1,20,14.1z
			 M20,5c-2.2,0-4.1,1.8-4.1,4.1s1.8,4.1,4.1,4.1s4.1-1.8,4.1-4.1S22.2,5,20,5z"/>
	</g>
	<g>
		<path class="st3" d="M26.2,35.5v-7h7c0.3,1.9-0.3,3.7-1.5,5.2C30.2,35,28.2,35.7,26.2,35.5z"/>
		<path class="st1" d="M27,36c-0.3,0-0.6,0-0.9-0.1l-0.4-0.1V28h7.9l0.1,0.4c0.3,2-0.3,4-1.7,5.6C30.7,35.3,28.9,36,27,36z M26.7,35
			c1.7,0.1,3.4-0.5,4.6-1.8c1-1.2,1.6-2.7,1.4-4.3h-6.1V35z"/>
	</g>
	<g>
		<path class="st1" d="M11.5,17.4h10.6c0.4,0,0.8,0.3,0.8,0.8v0.2c0,0.4-0.3,0.8-0.8,0.8H11.5c-0.4,0-0.8-0.3-0.8-0.8v-0.2
			C10.8,17.7,11.1,17.4,11.5,17.4z"/>
	</g>
	<g>
		<path class="st1" d="M11.5,21.8h7.3c0.4,0,0.8,0.3,0.8,0.8v0.2c0,0.4-0.3,0.8-0.8,0.8h-7.3c-0.4,0-0.8-0.3-0.8-0.8v-0.2
			C10.8,22.1,11.1,21.8,11.5,21.8z"/>
	</g>
</g>
</svg>
