<?xml version="1.0" encoding="utf-8"?>
<!-- Generator: Adobe Illustrator 24.0.0, SVG Export Plug-In . SVG Version: 6.00 Build 0)  -->
<svg version="1.1" id="图层_1" xmlns="http://www.w3.org/2000/svg" xmlns:xlink="http://www.w3.org/1999/xlink" x="0px" y="0px"
	 viewBox="0 0 40 40" style="enable-background:new 0 0 40 40;" xml:space="preserve">
<style type="text/css">
	.st0{fill:#0FBD8C;}
	.st1{fill:#FFFFFF;}
</style>
<title>扩展插件配图设计</title>
<g id="_28._Arduino">
	<rect class="st0" width="40" height="40"/>
	<path class="st1" d="M28.6,11.5c-1.5,0-3.9,0.5-6.8,3.1c-0.7,0.6-1.3,1.3-1.9,2c-0.6-0.7-1.2-1.4-1.9-2c-2.8-2.6-5.3-3.1-6.8-3.1
		c-4.8-0.1-8.7,3.6-8.9,8.4c0,0,0,0.1,0,0.1c0,2.4,1,4.6,2.7,6.2c1.7,1.5,3.9,2.3,6.1,2.3c2.5-0.1,4.9-1.2,6.7-3
		c0.7-0.6,1.3-1.3,1.9-2c0.6,0.7,1.2,1.4,1.9,2c1.8,1.8,4.2,2.9,6.7,3c2.3,0,4.4-0.8,6.1-2.2c1.8-1.6,2.8-3.8,2.7-6.2
		c0-4.8-3.9-8.6-8.7-8.6C28.7,11.5,28.7,11.5,28.6,11.5z M11.4,25.3c-3,0.2-5.5-2-5.7-5c0-0.1,0-0.2,0-0.3c0-3,2.5-5.5,5.5-5.4
		c0.1,0,0.1,0,0.2,0c3.2,0,6.9,4.3,6.9,5.4C18.3,21.1,14.5,25.3,11.4,25.3z M28.6,25.3c-3.2,0-6.9-4.2-6.9-5.3
		c0-1.1,3.8-5.4,6.9-5.4c3-0.1,5.6,2.2,5.7,5.2c0,0.1,0,0.1,0,0.2c-0.1,3-2.5,5.3-5.5,5.3C28.8,25.3,28.7,25.3,28.6,25.3z"/>
	<rect x="8.3" y="19" class="st1" width="6" height="1.3"/>
	<rect x="26.2" y="18.8" class="st1" width="4.8" height="1.7"/>
	<rect x="27.8" y="17.3" class="st1" width="1.7" height="4.8"/>
</g>
</svg>
