<?xml version="1.0" encoding="utf-8"?>
<!-- Generator: Adobe Illustrator 24.0.0, SVG Export Plug-In . SVG Version: 6.00 Build 0)  -->
<svg version="1.1" id="图层_1" xmlns="http://www.w3.org/2000/svg" xmlns:xlink="http://www.w3.org/1999/xlink" x="0px" y="0px"
	 viewBox="0 0 40 40" style="enable-background:new 0 0 40 40;" xml:space="preserve">
<style type="text/css">
	.st0{fill:#FFFFFF;}
	.st1{fill:#909AB1;}
	.st2{fill:#3C6DD1;}
	.st3{fill:#F8D966;}
</style>
<title>扩展插件配图设计</title>
<g id="_19._图片分类">
	<g>
		<path class="st0" d="M34.51,14.13H5.49c-0.75,0-1.28,0.53-1.28,1.28v0.11l0.75,10.67l0.43,7.89c0.11,0.75,0.53,1.17,1.28,1.17
			h26.56c0.75,0,1.28-0.43,1.28-1.17l0.43-7.89l0.75-10.67C35.79,14.88,35.25,14.24,34.51,14.13
			C34.61,14.13,34.51,14.13,34.51,14.13z"/>
		<path class="st1" d="M6.67,35.68c-0.85,0-1.49-0.53-1.49-1.39L4,15.63v-0.11c0-0.43,0.11-0.85,0.43-1.07
			c0.32-0.21,0.75-0.43,1.07-0.43h29.01h0.11c0.43,0,0.85,0.21,1.07,0.53c0.21,0.32,0.32,0.75,0.32,1.17l-1.17,18.56
			c-0.11,0.85-0.85,1.39-1.6,1.39l0,0L6.67,35.68C6.77,35.68,6.67,35.68,6.67,35.68z M5.49,14.56c-0.21,0-0.43,0.11-0.75,0.21
			c-0.21,0.21-0.21,0.43-0.21,0.75c0,0,0,0,0,0.11l1.17,18.56c0,0.43,0.43,0.96,1.07,0.96l0,0h26.56c0.53,0,0.96-0.32,1.07-0.96
			l1.17-18.56c0-0.53-0.32-1.07-0.96-1.07c0,0,0,0-0.11,0H5.49L5.49,14.56z"/>
	</g>
	<g>
		<path class="st0" d="M32.59,15.95H7.41c-0.75,0-1.17,0.43-1.17,1.17l0.43,8.96c1.71,1.49,3.95,2.45,6.29,2.56
			c2.56,0.11,5.12-0.85,7.04-2.56c1.92-1.49,4.16-2.45,6.61-2.45s4.8,0.85,6.61,2.35l0.43-8.85C33.76,16.48,33.33,15.95,32.59,15.95
			L32.59,15.95z"/>
		<path class="st1" d="M13.39,28.96c-0.11,0-0.21,0-0.32,0c-2.35-0.11-4.85-1.15-6.56-2.75L6.4,26.1l-0.43-9.07
			c0-0.85,0.9-1.41,1.55-1.41h25.17c0.85,0,1.39,0.75,1.39,1.49l-0.53,9.49l-0.43-0.32c-1.71-1.49-4.05-2.35-6.4-2.35H26.4
			c-2.35,0-4.69,0.85-6.4,2.35C18.4,28.11,15.95,28.96,13.39,28.96z M6.99,25.97c1.6,1.39,3.73,2.35,5.97,2.45
			c2.56,0.11,4.91-0.85,6.83-2.45s4.37-2.45,6.83-2.45h0.11c2.35,0,4.59,0.75,6.29,2.13l0.43-8.43c0-0.43-0.32-0.85-0.85-0.85v-0.21
			v0.21H7.41c-0.43,0-0.96,0.32-0.96,0.96L6.99,25.97z"/>
	</g>
	<g>
		<path class="st2" d="M20,26.08c-1.92,1.71-4.48,2.67-7.04,2.56c-2.35-0.11-4.59-1.07-6.29-2.56l0.32,6.61
			c0.11,0.53,0.53,1.07,1.17,1.07h23.47c0.53,0,1.07-0.43,1.17-1.07l0.32-6.83c-1.92-1.49-4.16-2.45-6.61-2.35S21.92,24.59,20,26.08
			z"/>
		<path class="st1" d="M31.63,34.08L31.63,34.08H8.16l0,0c-0.75,0-1.39-0.53-1.39-1.28l-0.42-7.61l0.42,0.57
			c1.71,1.49,3.84,2.35,6.19,2.45c2.56,0.11,4.91-0.85,6.83-2.45l0,0c1.92-1.49,4.37-2.45,6.83-2.45h0.11
			c2.45,0,4.91,0.85,6.83,2.45l0.05,0.05l-0.43,6.93C33.06,33.49,32.37,34.08,31.63,34.08z M6.99,26.83l0.32,5.97
			c0,0.43,0.43,0.75,0.85,0.75l0,0h23.47l0,0c0.43,0,0.85-0.32,0.85-0.85l0.32-6.51c-1.71-1.49-4.05-2.24-6.4-2.24
			s-4.59,0.85-6.29,2.35c-2.03,1.71-4.59,2.67-7.25,2.67C10.83,28.85,8.69,28.11,6.99,26.83z"/>
	</g>
	<g>
		<path class="st3" d="M14.35,20.53c0,1.39-1.07,2.56-2.45,2.56h-0.11c-1.39,0-2.56-1.17-2.67-2.56c-0.11-1.39,0.96-2.56,2.35-2.56
			c0.11,0,0.11,0,0.21,0C13.17,17.97,14.35,19.15,14.35,20.53z"/>
		<path class="st1" d="M11.89,23.52C11.89,23.52,11.89,23.41,11.89,23.52c-1.6,0-2.88-1.28-2.99-2.77
			c-0.11-1.49,1.07-2.77,2.67-2.88c0.11,0,0.11,0,0.21,0l0,0c1.6,0,2.88,1.28,2.99,2.88l0,0C14.77,22.13,13.6,23.41,11.89,23.52
			C12.11,23.41,11.89,23.52,11.89,23.52z M11.89,22.77L11.89,22.77c1.28,0,2.24-1.07,2.24-2.24c0-1.28-1.17-2.35-2.45-2.35l0,0
			h-0.11c-1.17,0-2.13,1.07-2.13,2.35C9.65,21.92,10.61,22.77,11.89,22.77L11.89,22.77z"/>
	</g>
	<g>
		<path class="st3" d="M6.35,9.12h27.31c0.75,0,1.28,0.53,1.28,1.28l0,0c0,0.75-0.53,1.28-1.28,1.28H6.35
			c-0.75,0-1.28-0.53-1.28-1.28l0,0C5.07,9.76,5.6,9.12,6.35,9.12z"/>
		<path class="st1" d="M33.65,11.89H6.35c-0.85,0-1.49-0.75-1.49-1.49c0-0.75,0.75-1.49,1.49-1.49h27.31c0.85,0,1.49,0.75,1.49,1.49
			C35.15,11.15,34.51,11.89,33.65,11.89z M6.35,9.33c-0.53,0-0.96,0.43-0.96,0.96c0,0.53,0.43,0.96,0.96,0.96h27.31
			c0.53,0,0.96-0.43,0.96-0.96s-0.53-0.96-0.96-0.96H6.35z"/>
	</g>
	<g>
		<path class="st3" d="M8.48,4.43h23.15c0.64,0,1.17,0.64,1.17,1.28l0,0c0,0.75-0.53,1.28-1.28,1.28H8.48
			c-0.75,0-1.28-0.53-1.28-1.28l0,0C7.2,5.07,7.73,4.43,8.48,4.43z"/>
		<path class="st1" d="M31.52,7.31H8.48c-0.85,0-1.49-0.75-1.49-1.49s0.75-1.49,1.49-1.49h23.15c0.85,0,1.49,0.75,1.49,1.49
			C33.12,6.56,32.37,7.31,31.52,7.31z M8.48,4.75c-0.43,0-0.96,0.43-0.96,1.07c0,0.53,0.43,0.96,0.96,0.96h23.15
			c0.53,0,0.96-0.43,0.96-0.96c0-0.43-0.43-1.07-0.96-1.07C31.63,4.75,8.48,4.75,8.48,4.75z"/>
	</g>
</g>
</svg>
