<?xml version="1.0" encoding="utf-8"?>
<!-- Generator: Adobe Illustrator 24.0.0, SVG Export Plug-In . SVG Version: 6.00 Build 0)  -->
<svg version="1.1" id="图层_1" xmlns="http://www.w3.org/2000/svg" xmlns:xlink="http://www.w3.org/1999/xlink" x="0px" y="0px"
	 viewBox="0 0 40 40" style="enable-background:new 0 0 40 40;" xml:space="preserve">
<style type="text/css">
	.st0{fill:#1A1A1A;}
	.st1{fill:#00FFFB;}
	.st2{fill:#F2F2F2;}
</style>
<title>扩展插件配图设计</title>
<g id="_23._YOLO">
	<path class="st0" d="M22.5,29.1c-0.2,0-0.3-0.1-0.4-0.2c-0.1-0.1-0.1-0.3,0-0.5l0.5-0.6c0.3-0.5,0.6-1.1,0.8-1.6
		c0.5-1.4,0.6-2.6,0.5-7.4c0-0.6,0-1.1,0-1.5c-0.4,0.1-0.7,0.2-1.1,0.3h-0.2c-0.1,0-0.2,0-0.3-0.1c-0.1-0.1-0.2-0.2-0.2-0.4v-0.6
		c0-0.2,0.1-0.4,0.3-0.4c0.4-0.1,0.8-0.3,1.2-0.4l0,0h-3.3c-0.2,0-0.4-0.2-0.4-0.5c0,0,0,0,0,0v-0.7c0-0.2,0.2-0.5,0.4-0.5
		c0,0,0,0,0,0h3c-0.1-0.3-0.2-0.6-0.4-0.9c-0.3-0.5-0.7-1-1.1-1.5l-0.4-0.4c-0.1-0.2-0.1-0.3,0-0.5c0.1-0.2,0.2-0.2,0.4-0.2l0,0
		c1.2,0,2.5,0.1,3.8,0.1s2.6,0,3.8-0.1l0,0c0.2,0,0.4,0.1,0.4,0.3l0.2,0.4c0,0.1,0,0.3,0,0.4c-0.1,0.1-0.2,0.2-0.3,0.2
		c-0.5,0.1-1,0.4-1.4,0.8c-0.4,0.4-0.7,0.9-0.9,1.5h3.9c0.3,0,0.5,0.2,0.5,0.5v0.7c0,0.3-0.2,0.5-0.5,0.5H28c0.5,0.1,1,0.2,1.5,0.4
		c0.2,0.1,0.3,0.2,0.3,0.4V17c0,0.2-0.1,0.3-0.2,0.4c-0.1,0.1-0.2,0.1-0.3,0.1h-0.2c-0.7-0.3-1.5-0.5-2.3-0.5c0,1.2,0,2.3,0.1,3.4
		c0.1,1.4,0.2,2.8,0.2,4.3c0.3,0.1,0.5,0.1,0.8,0.1c0.6,0,1.1-0.2,1.5-0.5c0.3-0.3,0.4-0.6,0.5-0.9c0-0.1,0-0.2,0-0.3
		c0-0.3,0.1-0.6,0.3-0.8c0.1,0,0.2-0.1,0.3-0.1c0.3,0,0.5,0.1,0.7,0.3c0.3,0.2,0.5,0.4,0.6,0.6c0.1,0.1,0.1,0.2,0.1,0.3V28
		c0,0.2-0.2,0.4-0.4,0.5c-0.6,0.1-1.2,0.2-1.9,0.3c-0.7,0.1-0.8,0.1-1.5,0.1l-1.2,0.1L25.8,29l-1.3,0.1L22.5,29.1L22.5,29.1z"/>
	<path class="st1" d="M29.5,10.9l0.2,0.4c-0.6,0.2-1.2,0.5-1.6,0.9c-0.6,0.6-1,1.4-1.2,2.3h4.5v0.7h-4.7c0,0.3-0.1,0.5-0.1,0.7
		c1,0.1,1.9,0.3,2.8,0.6V17c-0.9-0.3-1.9-0.5-2.9-0.6c-0.1,1.4,0,2.7,0.1,4.1c0.1,1.5,0.2,3,0.1,4.5c0.4,0.1,0.8,0.2,1.2,0.2
		c0.7,0,1.4-0.2,1.9-0.7c0.3-0.3,0.5-0.8,0.6-1.2c0-0.3,0-0.6,0.1-0.7h0.1c0.2,0,0.3,0.1,0.5,0.3c0.2,0.1,0.4,0.3,0.5,0.5V28
		c-0.4,0.1-1,0.2-1.8,0.3c-0.8,0.1-1,0.1-2.7,0.2c-1.5,0.1-1.6,0.1-2.6,0.1c-1,0-1.5,0-2,0l0.5-0.6c0.3-0.6,0.6-1.1,0.8-1.7
		c0.6-1.5,0.6-2.7,0.5-7.6c0-0.8,0-1.5-0.1-2.1c-0.6,0.1-1.1,0.3-1.7,0.5v-0.6c0.5-0.2,1.1-0.4,1.6-0.5c0-0.3,0-0.6-0.1-0.9h-3.7
		v-0.7H24c-0.1-0.6-0.3-1.1-0.6-1.6c-0.3-0.6-0.7-1.1-1.2-1.6l-0.3-0.4c1.2,0.1,2.4,0.1,3.8,0.1h0.1c1.3,0,2.6,0,3.8-0.1 M21.8,9.9
		c-0.5,0-0.9,0.3-1,0.8c0,0.3,0.1,0.6,0.3,0.8l0.2,0.2l0.2,0.2v0.1c0.4,0.4,0.8,0.9,1,1.4l0.1,0.2h-2.2c-0.5,0-0.9,0.4-0.9,0.9v0.7
		c0,0.5,0.4,0.9,0.9,0.9h1.3c-0.1,0.1-0.1,0.3-0.1,0.4V17c0,0.5,0.4,0.9,0.9,0.9c0,0,0,0,0,0c0.1,0,0.2,0,0.3,0l0.5-0.2
		c0,0.3,0,0.6,0,1c0.1,4.8,0.1,5.8-0.4,7.2c-0.2,0.5-0.4,1.1-0.7,1.6l-0.4,0.6c-0.2,0.3-0.2,0.7-0.1,1c0.1,0.3,0.5,0.5,0.8,0.5l0,0
		c0.4,0,1.1,0,2,0h1.3l1.4-0.1l1.3-0.1c0.5,0,1,0,1.5-0.1c0.7-0.1,1.3-0.2,1.9-0.3c0.4-0.1,0.7-0.5,0.7-0.9v-4.7
		c0-0.2-0.1-0.4-0.2-0.5c-0.2-0.3-0.5-0.5-0.8-0.8c-0.3-0.2-0.6-0.4-1-0.4c-0.2,0-0.4,0-0.5,0.1c-0.4,0.3-0.6,0.7-0.6,1.2
		c0,0.1,0,0.1,0,0.2l0,0c-0.1,0.3-0.2,0.5-0.4,0.7c-0.3,0.3-0.8,0.4-1.2,0.4h-0.3c0-1.3,0-2.6-0.2-3.8v-0.1c-0.1-1-0.1-2-0.1-2.9
		c0.6,0.1,1.1,0.2,1.7,0.4c0.1,0,0.2,0,0.3,0c0.5,0,0.9-0.4,0.9-0.9c0,0,0,0,0,0v-0.6c0-0.1,0-0.3-0.1-0.4h1.1
		c0.5,0,0.9-0.4,0.9-0.9v-0.7c0-0.5-0.4-0.9-0.9-0.9h-3.2c0.1-0.3,0.3-0.5,0.5-0.7c0.4-0.3,0.8-0.5,1.2-0.7c0.3-0.1,0.5-0.2,0.6-0.5
		c0.1-0.2,0.1-0.5,0-0.8l-0.1-0.1l-0.1-0.3c-0.1-0.3-0.5-0.6-0.8-0.6l0,0C28.2,10,27,10,25.7,10h-0.1C24.4,10,23.2,10,21.8,9.9
		L21.8,9.9z"/>
	<path class="st0" d="M18.1,25.1c-2.9,0-5.3-2.8-5.3-6.2s2.4-6.2,5.3-6.2s5.3,2.8,5.3,6.2S21,25.1,18.1,25.1z"/>
	<path class="st1" d="M18.1,13.1c2.7,0,4.9,2.6,4.9,5.8s-2.2,5.8-4.9,5.8s-4.9-2.6-4.9-5.8S15.4,13.1,18.1,13.1 M18.1,12.2
		c-3.2,0-5.8,3-5.8,6.7s2.6,6.7,5.8,6.7s5.8-3,5.8-6.7S21.3,12.2,18.1,12.2z"/>
	<path class="st0" d="M33.7,25.1c-2.9,0-5.3-2.8-5.3-6.2s2.4-6.2,5.3-6.2s5.3,2.8,5.3,6.2S36.7,25.1,33.7,25.1z"/>
	<path class="st1" d="M33.7,13.1c2.7,0,4.9,2.6,4.9,5.8s-2.2,5.8-4.9,5.8s-4.9-2.6-4.9-5.8S31.1,13.1,33.7,13.1 M33.7,12.2
		c-3.2,0-5.8,3-5.8,6.7s2.6,6.7,5.8,6.7s5.8-3,5.8-6.7S36.9,12.2,33.7,12.2L33.7,12.2z"/>
	<path class="st2" d="M16.7,16.3c-1.1,1.7-1.2,1.8-1.4,1.8c-0.3-0.1-0.4-1.3,0-2.3c0-0.1,0.6-1.3,1.5-1.3c0.2,0,0.4,0.1,0.5,0.2
		C17.6,15,17.3,15.4,16.7,16.3z"/>
	<path class="st2" d="M32.1,16.3c-1.1,1.7-1.2,1.8-1.4,1.8c-0.3-0.1-0.4-1.3,0-2.3c0-0.1,0.6-1.3,1.5-1.3c0.1,0,0.4,0,0.5,0.2
		C32.9,15,32.7,15.4,32.1,16.3z"/>
	<path class="st0" d="M5.3,29.6c-0.2,0-0.4-0.1-0.4-0.3l-0.1-0.4c-0.1-0.2,0-0.4,0.2-0.5c1.1-0.5,2-1.4,2.4-2.5v-0.2
		c0.1-0.8,0-1.6-0.2-2.3c-0.1-0.4-0.3-0.8-0.5-1.2c-0.5-1-1-2-1.5-3s-1-2-1.5-3c-0.2-0.3-0.4-0.5-0.6-0.7c-0.3-0.3-0.7-0.5-1.1-0.5
		c-0.2,0-0.3-0.1-0.4-0.2L1,13.9c-0.1-0.1-0.1-0.3,0-0.5c0.1-0.1,0.2-0.2,0.4-0.2l0,0c0.5,0,1.9,0.1,3,0.1h3.1h0.6l0,0
		c0.2,0,0.3,0.1,0.4,0.2c0.1,0.2,0.1,0.4-0.1,0.5l-0.3,0.4c-0.2,0.3-0.3,0.6-0.4,1c-0.1,1.1,0.3,2.2,1,3c0.4-0.6,0.8-1.2,1.1-1.9
		c0.6-1,0.8-2.2,0.5-3.4c-0.1-0.2-0.2-0.4-0.3-0.6l-0.9-0.2c-0.2-0.1-0.4-0.2-0.4-0.5v-0.6c0-0.1,0.1-0.3,0.2-0.4
		c0.1-0.1,0.2-0.1,0.3-0.1c0,0,0.1,0,0.1,0c0,0,0.3,0,1.9,0H13h1.2h2.3l0,0c0.1,0,0.3,0.1,0.3,0.2c0.1,0.1,0.1,0.3,0.1,0.4L16.8,12
		c0,0.1-0.1,0.3-0.3,0.3c-0.3,0.1-0.6,0.3-0.9,0.5c-0.9,0.7-1.7,1.6-2.2,2.7c-1.1,1.6-1.9,3.4-2.5,5.3c-0.2,0.6-0.3,1.2-0.4,1.9
		c-0.1,1,0,2,0.3,3c0,0.1,0,0.2,0.1,0.3c0,0.1,0.2,0.2,0.5,0.4c0.4,0.2,0.7,0.4,1.1,0.6c0.2,0.1,0.3,0.2,0.3,0.4v0.3
		c0,0.2-0.2,0.4-0.4,0.4l-3.5,0.8L5.3,29.6L5.3,29.6z"/>
	<path class="st1" d="M16.6,11.3c0,0.2-0.1,0.4-0.1,0.5c-0.3,0.1-0.7,0.3-1,0.5c-1,0.7-1.8,1.7-2.3,2.8c-1.1,1.7-1.9,3.5-2.5,5.3
		c-0.2,0.6-0.3,1.3-0.4,2c-0.1,1.1,0,2.2,0.3,3.2c0,0.1,0,0.2,0.1,0.4c0.1,0.3,0.4,0.5,0.7,0.6c0.4,0.2,0.7,0.4,1.1,0.6v0.3
		l-3.5,0.8l-3.7,0.8c0-0.1-0.1-0.3-0.1-0.4c1.3-0.5,2.2-1.5,2.7-2.8v-0.2c0.1-0.8,0-1.7-0.3-2.5c-0.1-0.5-0.3-0.9-0.6-1.4
		c-1-2-2-4-3-6c-0.2-0.4-0.5-0.7-0.8-0.9c-0.4-0.4-0.9-0.6-1.4-0.6l-0.4-0.6c0.5,0,1.9,0.1,3.1,0.1h2.2h0.9c0.2,0,0.4,0,0.6,0
		l-0.3,0.4c-0.2,0.4-0.4,0.8-0.5,1.2c-0.1,1.4,0.4,2.8,1.5,3.7c0.6-0.7,1.1-1.6,1.5-2.4c0.7-1.1,0.8-2.5,0.5-3.7
		c-0.1-0.3-0.3-0.6-0.5-0.8l-1-0.2v-0.6c0.7,0.1,1.4,0.1,2.1,0.1H13C13.4,11.4,16.5,11.4,16.6,11.3 M8.2,13.8L8.2,13.8 M16.6,10.4
		L16.6,10.4h-2.3H13h-1.5c-1.4,0-1.8,0-1.9,0H9.4c-0.2,0-0.4,0.1-0.5,0.2c-0.2,0.2-0.4,0.5-0.4,0.7v0.6c0,0.4,0.3,0.8,0.7,0.9
		L9.9,13c0.1,0.1,0.1,0.2,0.2,0.3c0.2,1,0.1,2.1-0.5,3c-0.2,0.4-0.4,0.8-0.7,1.2c-0.4-0.6-0.6-1.4-0.5-2.1c0-0.3,0.2-0.6,0.3-0.8
		l0.3-0.3c0.4-0.4,0.4-0.9,0-1.3c-0.2-0.2-0.4-0.3-0.6-0.3H8.1H7.6H6.7H4.5c-1.1,0-2.4-0.1-3-0.1l0,0c-0.3,0-0.6,0.2-0.8,0.5
		c-0.2,0.3-0.2,0.7,0,1l0.2,0.3l0.2,0.3c0.2,0.3,0.4,0.4,0.7,0.4c0.3,0.1,0.6,0.2,0.8,0.4c0.2,0.2,0.4,0.4,0.5,0.6c0.5,1,1,2,1.5,3
		s1,2,1.5,3.1c0.2,0.4,0.4,0.8,0.5,1.2c0.2,0.7,0.3,1.4,0.2,2.2l0,0v0.1c-0.4,1-1.1,1.8-2.1,2.2c-0.4,0.2-0.6,0.7-0.5,1.1l0.1,0.4
		C4.5,29.8,4.9,30,5.3,30h0.2l3.7-0.8l3.6-0.8c0.4-0.1,0.7-0.4,0.7-0.9v-0.3c0-0.4-0.2-0.7-0.6-0.9c-0.4-0.2-0.7-0.3-1-0.5
		c-0.2-0.1-0.3-0.2-0.3-0.2c0-0.1,0-0.2,0-0.2c-0.3-0.9-0.3-1.9-0.3-2.9c0.1-0.6,0.2-1.2,0.4-1.8c0.6-1.8,1.4-3.5,2.4-5.2
		c0.5-1,1.2-1.9,2-2.5c0.3-0.2,0.5-0.3,0.8-0.4c0.3-0.1,0.5-0.4,0.6-0.6l0.1-0.6c0.1-0.3,0-0.6-0.2-0.8
		C17.2,10.5,16.9,10.4,16.6,10.4L16.6,10.4z"/>
</g>
</svg>
