<?xml version="1.0" encoding="utf-8"?>
<!-- Generator: Adobe Illustrator 24.0.0, SVG Export Plug-In . SVG Version: 6.00 Build 0)  -->
<svg version="1.1" id="图层_1" xmlns="http://www.w3.org/2000/svg" xmlns:xlink="http://www.w3.org/1999/xlink" x="0px" y="0px"
	 viewBox="0 0 40 40" style="enable-background:new 0 0 40 40;" xml:space="preserve">
<title>扩展插件配图设计</title>
<g id="_16._JSON">
	<path d="M0.5,23.7L2,22.6c0.3,0.7,0.9,1.1,1.7,1.1c1,0,1.5-0.5,1.5-2.1v-7.3h2.2v7.5c0,2.1-1.1,3.8-3.4,3.8
		C2.5,25.7,1.2,24.9,0.5,23.7z"/>
	<path d="M9.3,24.1l1.2-1.5c0.8,0.7,1.8,1.2,2.8,1.2c1.2,0,1.8-0.5,1.8-1.2s-0.7-1.1-1.7-1.5L12,20.4c-1.3-0.4-2.2-1.6-2.3-3
		c0-1.8,1.6-3.2,3.9-3.2c1.3,0,2.6,0.5,3.5,1.4L16,17.1c-0.6-0.6-1.5-0.9-2.4-0.9c-1,0-1.6,0.4-1.6,1.2c0,0.7,0.8,1.1,1.7,1.5
		l1.5,0.6c1.4,0.3,2.3,1.6,2.3,3c0,1.8-1.5,3.4-4.1,3.4C11.9,25.7,10.4,25.1,9.3,24.1z"/>
	<path d="M18.9,20c0-3.6,2-5.7,5-5.7s5,2.1,5,5.7s-2,5.8-5,5.8S18.9,23.5,18.9,20z M26.6,20c0-2.4-1.1-3.8-2.7-3.8s-2.7,1.3-2.7,3.8
		s1.1,3.9,2.7,3.9S26.6,22.3,26.6,20z"/>
	<path d="M31,14.4h2.3l3.2,5.9l1.1,2.4h0.1c-0.2-1.3-0.3-2.6-0.3-3.9v-4.4h2.1v11.1h-2.2l-3.2-6l-1.1-2.4h-0.1
		c0.1,1.2,0.3,2.6,0.3,3.9v4.5H31V14.4z"/>
</g>
</svg>
