<?xml version="1.0" encoding="utf-8"?>
<!-- Generator: Adobe Illustrator 24.0.0, SVG Export Plug-In . SVG Version: 6.00 Build 0)  -->
<svg version="1.1" id="图层_1" xmlns="http://www.w3.org/2000/svg" xmlns:xlink="http://www.w3.org/1999/xlink" x="0px" y="0px"
	 viewBox="0 0 40 40" style="enable-background:new 0 0 40 40;" xml:space="preserve">
<style type="text/css">
	.st0{fill:#0FBD8C;}
	.st1{fill:#1E74F2;}
	.st2{fill:#909AB1;}
	.st3{fill:#F7FCFF;}
	.st4{fill:#FF395A;}
	.st5{fill:#FFB93E;}
	.st6{fill:#ABEC4A;}
	.st7{opacity:0.5;enable-background:new    ;}
</style>
<title>扩展插件配图设计</title>
<g id="_27._浏览器控制器">
	<g>
		<rect class="st0" width="40" height="40"/>
	</g>
	<g>
		<path class="st1" d="M33.1,6.2H6.9c-0.8,0-1.4,0.9-1.4,2.1v2.5h29.4V8.3C34.7,7.1,34,6.2,33.1,6.2z"/>
		<path class="st2" d="M34.9,11H5.1V8.3c0-1.3,0.8-2.5,1.8-2.5h26.4c1,0,1.8,1,1.8,2.5V11H34.9z M5.7,10.4h28.6V8.3
			c0-1-0.5-1.8-1.2-1.8H6.9c-0.6,0-1.2,0.8-1.2,1.8V10.4z"/>
	</g>
	<g>
		<path class="st3" d="M5.3,31.7c0,1.2,0.6,2.1,1.4,2.1h26.4c0.8,0,1.4-0.9,1.4-2.1V10.8H5.3V31.7z"/>
		<path class="st2" d="M33.1,34.2H6.9c-1,0-1.8-1-1.8-2.5V10.4h30v21.3C34.9,33.1,34.1,34.2,33.1,34.2z M5.7,11v20.6
			c0,0.9,0.5,1.8,1.2,1.8h26.4c0.6,0,1.2-0.8,1.2-1.8V11H5.7z"/>
	</g>
	<g>
		<circle class="st4" cx="9.1" cy="8.6" r="1"/>
	</g>
	<g>
		<circle class="st5" cx="12.1" cy="8.6" r="1"/>
	</g>
	<g>
		<circle class="st6" cx="15.1" cy="8.6" r="1"/>
	</g>
	<g class="st7">
		<path class="st1" d="M12.1,15.8h16.5c0.4,0,0.6,0.3,0.6,0.6v0.3c0,0.4-0.3,0.6-0.6,0.6H12.1c-0.4,0-0.6-0.3-0.6-0.6v-0.3
			C11.5,16.1,11.8,15.8,12.1,15.8z"/>
	</g>
	<g>
		<circle class="st4" cx="25.2" cy="16.6" r="2.1"/>
	</g>
	<g class="st7">
		<path class="st1" d="M12.1,21.3h16.5c0.4,0,0.6,0.3,0.6,0.6v0.3c0,0.4-0.3,0.6-0.6,0.6H12.1c-0.4,0-0.6-0.3-0.6-0.6v-0.3
			C11.5,21.6,11.8,21.3,12.1,21.3z"/>
	</g>
	<g>
		<circle class="st4" cx="15.7" cy="22.1" r="2.1"/>
	</g>
	<g class="st7">
		<path class="st1" d="M12.1,26.9h16.5c0.4,0,0.6,0.3,0.6,0.6v0.3c0,0.4-0.3,0.6-0.6,0.6H12.1c-0.4,0-0.6-0.3-0.6-0.6v-0.3
			C11.5,27.1,11.8,26.9,12.1,26.9z"/>
	</g>
	<g>
		<circle class="st4" cx="22.1" cy="27.7" r="2.1"/>
	</g>
</g>
</svg>
