<?xml version="1.0" encoding="utf-8"?>
<!-- Generator: Adobe Illustrator 24.0.0, SVG Export Plug-In . SVG Version: 6.00 Build 0)  -->
<svg version="1.1" id="图层_1" xmlns="http://www.w3.org/2000/svg" xmlns:xlink="http://www.w3.org/1999/xlink" x="0px" y="0px"
	 viewBox="0 0 40 40" style="enable-background:new 0 0 40 40;" xml:space="preserve">
<style type="text/css">
	.st0{fill:#0FBD8C;}
	.st1{fill:#FC5647;}
	.st2{fill:#FFFFFF;}
</style>
<title>扩展插件配图设计</title>
<g id="_20._PoseNet">
	<g>
		<rect class="st0" width="40" height="40"/>
	</g>
	<path class="st1" d="M30.7,13.1H9.6c-0.4,0-0.8,0.2-1.1,0.6c-0.3,0.2-0.4,0.6-0.4,1c0,0.2,0,0.4,0.1,0.6c0.2,0.6,0.8,1,1.5,1H15
		c0.7,0,1,0.5,1,1v14.6c0,0.4,0.2,0.8,0.4,1c0.3,0.3,0.7,0.6,1.1,0.6c0.8,0,1.6-0.7,1.6-1.6v-5.4c0-0.7,0.5-1,1-1
		c0.5,0,0.9,0.5,0.9,1v5.4c0,0.8,0.7,1.6,1.6,1.6c0.8,0,1.6-0.7,1.6-1.6V17.3c0-0.7,0.5-1,1-1h5.4c0.8,0,1.6-0.7,1.6-1.6
		C32.3,13.9,31.6,13.1,30.7,13.1z M31.7,14.8C31.7,14.8,31.8,14.8,31.7,14.8C31.8,14.8,31.8,14.8,31.7,14.8
		C31.8,14.8,31.7,14.8,31.7,14.8z"/>
	<g>
		<path class="st2" d="M7.1,34.9H4.2c-0.9,0-1.7-0.8-1.7-1.6v-2.5c0-0.4,0.3-0.7,0.7-0.7l0,0c0.4,0,0.7,0.3,0.7,0.7l0,0v2.5
			c0,0.3,0.1,0.4,0.4,0.4h2.9c0.4,0,0.7,0.3,0.7,0.7S7.5,35,7.1,34.9L7.1,34.9z"/>
	</g>
	<g>
		<path class="st2" d="M7.1,34.9H4.2c-0.9,0-1.7-0.8-1.7-1.6v-2.5c0-0.4,0.3-0.7,0.7-0.7l0,0c0.4,0,0.7,0.3,0.7,0.7l0,0v2.5
			c0,0.3,0.1,0.4,0.4,0.4h2.9c0.4,0,0.7,0.3,0.7,0.7S7.5,35,7.1,34.9L7.1,34.9z"/>
	</g>
	<g>
		<path class="st2" d="M3.2,9.8c-0.4,0-0.7-0.3-0.7-0.7l0,0V6.7c0-0.9,0.8-1.7,1.7-1.6h2.9c0.4,0,0.7,0.3,0.7,0.7S7.5,6.4,7.1,6.4
			H4.2c-0.3,0-0.4,0.1-0.4,0.4v2.5C3.8,9.6,3.5,9.8,3.2,9.8z"/>
	</g>
	<g>
		<path class="st2" d="M3.2,9.8c-0.4,0-0.7-0.3-0.7-0.7l0,0V6.7c0-0.9,0.8-1.7,1.7-1.6h2.9c0.4,0,0.7,0.3,0.7,0.7S7.5,6.4,7.1,6.4
			H4.2c-0.3,0-0.4,0.1-0.4,0.4v2.5C3.8,9.6,3.5,9.8,3.2,9.8z"/>
	</g>
	<g>
		<path class="st2" d="M35.8,34.9h-2.9c-0.4,0-0.7-0.3-0.7-0.7c0-0.4,0.3-0.7,0.7-0.7h2.9c0.3,0,0.4-0.1,0.4-0.4v-2.5
			c0-0.4,0.3-0.7,0.7-0.7l0,0c0.4,0,0.7,0.3,0.7,0.7l0,0v2.5C37.5,34.1,36.7,34.9,35.8,34.9L35.8,34.9z"/>
	</g>
	<g>
		<path class="st2" d="M35.8,34.9h-2.9c-0.4,0-0.7-0.3-0.7-0.7c0-0.4,0.3-0.7,0.7-0.7h2.9c0.3,0,0.4-0.1,0.4-0.4v-2.5
			c0-0.4,0.3-0.7,0.7-0.7l0,0c0.4,0,0.7,0.3,0.7,0.7l0,0v2.5C37.5,34.1,36.7,34.9,35.8,34.9L35.8,34.9z"/>
	</g>
	<g>
		<path class="st2" d="M36.8,9.8c-0.4,0-0.7-0.3-0.7-0.7l0,0V6.7c0-0.3-0.1-0.4-0.4-0.4h-2.9c-0.4,0-0.7-0.3-0.7-0.7
			c0-0.4,0.3-0.7,0.7-0.7h2.9c0.9,0,1.7,0.8,1.7,1.6V9C37.5,9.6,37.2,9.8,36.8,9.8L36.8,9.8z"/>
	</g>
	<g>
		<path class="st2" d="M36.8,9.8c-0.4,0-0.7-0.3-0.7-0.7l0,0V6.7c0-0.3-0.1-0.4-0.4-0.4h-2.9c-0.4,0-0.7-0.3-0.7-0.7
			c0-0.4,0.3-0.7,0.7-0.7h2.9c0.9,0,1.7,0.8,1.7,1.6V9C37.5,9.6,37.2,9.8,36.8,9.8L36.8,9.8z"/>
	</g>
	<circle class="st1" cx="20.1" cy="9.2" r="3.1"/>
</g>
</svg>
