<?xml version="1.0" encoding="utf-8"?>
<!-- Generator: Adobe Illustrator 24.0.0, SVG Export Plug-In . SVG Version: 6.00 Build 0)  -->
<svg version="1.1" id="图层_1" xmlns="http://www.w3.org/2000/svg" xmlns:xlink="http://www.w3.org/1999/xlink" x="0px" y="0px"
	 viewBox="0 0 40 40" style="enable-background:new 0 0 40 40;" xml:space="preserve">
<style type="text/css">
	.st0{fill:#FFFFFF;}
</style>
<title>扩展插件配图设计</title>
<g id="_28._Arduino">
	<path class="st0" d="M29.97,10.48c-1.68,0-4.37,0.56-7.62,3.47c-0.78,0.67-1.46,1.46-2.13,2.24c-0.67-0.78-1.34-1.57-2.13-2.24
		c-3.14-2.91-5.94-3.47-7.62-3.47c-5.38-0.11-9.75,4.03-9.97,9.41V20c0,2.69,1.12,5.15,3.03,6.95c1.9,1.68,4.37,2.58,6.83,2.58
		c2.8-0.11,5.49-1.34,7.51-3.36c0.78-0.67,1.46-1.46,2.13-2.24c0.67,0.78,1.34,1.57,2.13,2.24c2.02,2.02,4.71,3.25,7.51,3.36
		c2.58,0,4.93-0.9,6.83-2.47c2.02-1.79,3.14-4.26,3.03-6.95c0-5.38-4.37-9.64-9.75-9.64C30.08,10.48,30.08,10.48,29.97,10.48z
		 M10.7,25.94c-3.36,0.22-6.16-2.24-6.39-5.6c0-0.11,0-0.22,0-0.34c0-3.36,2.8-6.16,6.16-6.05c0.11,0,0.11,0,0.22,0
		c3.59,0,7.73,4.82,7.73,6.05S14.17,25.94,10.7,25.94z M29.97,25.94c-3.59,0-7.73-4.71-7.73-5.94c0-1.23,4.26-6.05,7.73-6.05
		c3.36-0.11,6.27,2.47,6.39,5.83c0,0.11,0,0.11,0,0.22c-0.11,3.36-2.8,5.94-6.16,5.94C30.19,25.94,30.08,25.94,29.97,25.94z"/>
	<rect x="7.22" y="18.88" class="st0" width="6.72" height="1.46"/>
	<rect x="27.28" y="18.66" class="st0" width="5.38" height="1.9"/>
	<rect x="29.07" y="16.98" class="st0" width="1.9" height="5.38"/>
</g>
</svg>
