<?xml version="1.0" encoding="utf-8"?>
<!-- Generator: Adobe Illustrator 24.0.0, SVG Export Plug-In . SVG Version: 6.00 Build 0)  -->
<svg version="1.1" id="图层_1" xmlns="http://www.w3.org/2000/svg" xmlns:xlink="http://www.w3.org/1999/xlink" x="0px" y="0px"
	 viewBox="0 0 40 40" style="enable-background:new 0 0 40 40;" xml:space="preserve">
<style type="text/css">
	.st0{fill:#FFFFFF;}
	.st1{fill:#909AB1;}
	.st2{fill:#3C6DD1;}
	.st3{fill:#F8D966;}
</style>
<g>
	<path class="st0" d="M35.8,8.1H4.3c-0.8,0-1.5,0.6-1.5,1.5l0,0v11.7c2.1,2.1,5.2,3.4,8.1,3.5c3.4,0.1,6.8-1.2,9.1-3.5
		c2.3-2.1,5.4-3.3,8.5-3.3c3.3,0,6.2,1.2,8.8,3.3V9.7C37.3,8.6,36.5,7.8,35.8,8.1C35.8,7.8,35.8,7.8,35.8,8.1z"/>
	<path class="st1" d="M11.3,25c-0.1,0-0.2,0-0.4,0c-3.1-0.1-6.1-1.4-8.4-3.6l-0.1-0.1V9.4c0-0.5,0.2-1,0.6-1.3s0.8-0.5,1.3-0.5h31.4
		c0.5,0,0.93,0.17,1.3,0.5c0.33,0.3,0.5,0.7,0.5,1.3v12.3L37,21.3c-2.3-2-5.4-3.1-8.5-3.1l0,0c-3,0-6,1.2-8.2,3.1
		C17.9,23.7,14.7,25,11.3,25z M3,21c2.1,2,4.9,3.3,7.8,3.4c3.3,0.1,6.5-1.2,8.9-3.5c2.3-2.1,5.5-3.4,8.8-3.4l0,0c3,0,5.9,1,8.4,2.9
		V9.5c0-0.3-0.1-0.6-0.3-0.8S36,8.3,35.7,8.3l0,0H4.3C4,8.3,3.7,8.5,3.5,8.7S3.1,9.2,3.1,9.5v11.7L3,21z"/>
</g>
<g>
	<path class="st2" d="M20.1,21.2c-2.5,2.3-5.7,3.6-9.1,3.5c-3-0.1-6-1.4-8.1-3.5v9.4c0,0.8,0.7,1.5,1.5,1.5l0,0h31.5
		c0.8,0,1.5-0.6,1.5-1.5l0,0V21c-2.5-2.1-5.5-3.3-8.8-3.3C25.4,17.9,22.5,19.2,20.1,21.2z"/>
	<path class="st1" d="M35.8,32.4L35.8,32.4H4.3c-1.1,0-1.9-0.7-1.9-1.8v-10L2.9,21c2.1,2.1,5,3.4,7.8,3.5c3.3,0.1,6.6-1.2,8.9-3.5
		l0,0c2.3-2.1,5.5-3.4,8.8-3.4l0,0c3.3,0,6.3,1.2,8.9,3.3l0.2,0.2v9.7c0.03,0.65-0.04,0.88-0.5,1.3C36.8,32.4,36.3,32.4,35.8,32.4z
		 M35.8,31.7c0.4,0,0.6-0.1,0.8-0.4c0.2-0.2,0.4-0.5,0.4-0.8v-9.4c-2.3-2-5.4-3.2-8.4-3c-3.2,0-6,1.2-8.4,3.2
		c-2.5,2.3-5.9,3.7-9.4,3.6c-2.9-0.1-5.6-1.3-7.7-3.2v8.8c0,0.6,0.5,1.2,1.3,1.2l0,0L35.8,31.7L35.8,31.7
		C35.8,31.7,35.8,31.7,35.8,31.7z"/>
</g>
<g>
	<circle class="st3" cx="9.7" cy="13.9" r="3.4"/>
</g>
</svg>
