<?xml version="1.0" encoding="utf-8"?>
<!-- Generator: Adobe Illustrator 24.0.0, SVG Export Plug-In . SVG Version: 6.00 Build 0)  -->
<svg version="1.1" id="图层_1" xmlns="http://www.w3.org/2000/svg" xmlns:xlink="http://www.w3.org/1999/xlink" x="0px" y="0px"
	 viewBox="0 0 40 40" style="enable-background:new 0 0 40 40;" xml:space="preserve">
<style type="text/css">
	.st0{fill:#FFFFFF;}
	.st1{fill:#1E74F2;}
</style>
<title>扩展插件配图设计</title>
<g id="_15._Box2d">
	<g>
		<path class="st0" d="M14.99,5.23h9.93c1.31,0,2.46,1.07,2.46,2.46v9.85c0,1.31-1.07,2.46-2.46,2.46h-9.93
			c-1.31,0-2.46-1.07-2.46-2.46V7.61C12.62,6.3,13.68,5.23,14.99,5.23z"/>
		<path class="st1" d="M25.01,21.23H14.99c-2.05,0-3.61-1.56-3.61-3.61V7.61c0-2.05,1.56-3.61,3.61-3.61h9.93
			c2.05,0,3.61,1.56,3.61,3.61v9.93C28.62,19.67,27.06,21.23,25.01,21.23z M14.99,6.46c-0.74,0-1.23,0.49-1.23,1.23v9.85
			c0,0.74,0.49,1.23,1.23,1.23h9.93c0.74,0,1.23-0.49,1.23-1.23V7.61c0-0.74-0.49-1.23-1.23-1.23h-9.93V6.46z"/>
	</g>
	<g>
		<path class="st0" d="M7.61,20h9.93c1.31,0,2.46,1.07,2.46,2.46v9.93c0,1.31-1.07,2.46-2.46,2.46H7.61c-1.31,0-2.46-1.07-2.46-2.46
			v-9.93C5.23,21.07,6.3,20,7.61,20z"/>
		<path class="st1" d="M17.54,36H7.61C5.56,36,4,34.44,4,32.39v-9.93c0-2.05,1.56-3.61,3.61-3.61h9.93c2.05,0,3.61,1.56,3.61,3.61
			v9.93C21.23,34.44,19.67,36,17.54,36z M7.61,21.23c-0.74,0-1.23,0.49-1.23,1.23v9.93c0,0.74,0.49,1.23,1.23,1.23h9.93
			c0.74,0,1.23-0.49,1.23-1.23v-9.93c0-0.74-0.49-1.23-1.23-1.23H7.61z"/>
	</g>
	<g>
		<path class="st0" d="M22.46,20h9.93c1.31,0,2.46,1.07,2.46,2.46v9.93c0,1.31-1.07,2.46-2.46,2.46h-9.93
			c-1.31,0-2.46-1.07-2.46-2.46v-9.93C20,21.07,21.07,20,22.46,20z"/>
		<path class="st1" d="M32.39,36h-9.93c-2.05,0-3.61-1.56-3.61-3.61v-9.93c0-2.05,1.56-3.61,3.61-3.61h9.93
			c2.05,0,3.61,1.56,3.61,3.61v9.93C36,34.44,34.44,36,32.39,36z M22.46,21.23c-0.74,0-1.23,0.49-1.23,1.23v9.93
			c0,0.74,0.49,1.23,1.23,1.23h9.93c0.74,0,1.23-0.49,1.23-1.23v-9.93c0-0.74-0.49-1.23-1.23-1.23H22.46z"/>
	</g>
</g>
</svg>
