<?xml version="1.0" encoding="utf-8"?>
<!-- Generator: Adobe Illustrator 24.0.0, SVG Export Plug-In . SVG Version: 6.00 Build 0)  -->
<svg version="1.1" id="图层_1" xmlns="http://www.w3.org/2000/svg" xmlns:xlink="http://www.w3.org/1999/xlink" x="0px" y="0px"
	 viewBox="0 0 40 40" style="enable-background:new 0 0 40 40;" xml:space="preserve">
<style type="text/css">
	.st0{fill:#FFFFFF;}
</style>
<g>
	<path class="st0" d="M14.92,3h-0.1H8.8C7.25,3,5.79,4.26,5.7,6.01v0.1v6.02c0.1,1.75,1.46,3.11,3.11,3.11h6.02
		c1.75,0,3.01-1.26,3.11-3.01v-0.1V6.11C17.94,4.46,16.67,3.1,14.92,3z M15.02,11.55c0,0.49-0.39,0.78-0.78,0.78H9.39
		c-0.49,0-0.78-0.39-0.78-0.78V6.69c0-0.49,0.39-0.78,0.78-0.78h4.95c0.49,0,0.78,0.39,0.78,0.78v4.86H15.02z"/>
	<path class="st0" d="M35.91,18.64c0-0.1-0.1-0.1-0.19-0.1h-1.36c-0.87-7.29-7.09-12.82-14.38-12.82c-0.19,0-0.39,0.19-0.39,0.39
		v2.04c0,0.19,0.19,0.39,0.39,0.39c5.83,0,10.69,4.37,11.66,10.01h-1.07c-0.1,0-0.1,0-0.19,0.1c0,0.1,0,0.19,0,0.39l2.04,3.5
		c0.1,0.39,0.39,0.49,0.68,0.49c0.39,0,0.68-0.1,0.78-0.49l2.04-3.5C36.1,18.83,36.1,18.74,35.91,18.64z"/>
	<path class="st0" d="M19.98,32.05c-5.93,0-10.88-4.18-11.75-10.01h1.17c0.1,0,0.19,0,0.19-0.1s0-0.19,0-0.39l-2.04-3.5
		c-0.1-0.1-0.1-0.1-0.39-0.1c-0.39-0.19-0.87-0.1-1.17,0.19l-2.04,3.5c0,0,0,0.1,0,0.39c0,0,0.1,0.1,0.19,0.1H5.5
		c0.87,7.19,7.09,12.53,14.38,12.53c0.1,0,0.39-0.1,0.39-0.19v-2.04C20.27,32.24,20.07,32.05,19.98,32.05z"/>
	<g>
		<circle class="st0" cx="28.33" cy="25.83" r="3.4"/>
		<path class="st0" d="M28.72,30.01c-3.79-0.19-6.8,2.62-7.09,6.31c0,0.1,0.1,0.39,0.19,0.49S22.21,37,22.31,37h11.95
			c0.19,0,0.39-0.1,0.58-0.19c0.1-0.1,0.1-0.19,0.1-0.49C34.84,32.92,32.02,30.3,28.72,30.01z"/>
	</g>
</g>
</svg>
