<?xml version="1.0" encoding="utf-8"?>
<!-- Generator: Adobe Illustrator 24.0.0, SVG Export Plug-In . SVG Version: 6.00 Build 0)  -->
<svg version="1.1" id="图层_1" xmlns="http://www.w3.org/2000/svg" xmlns:xlink="http://www.w3.org/1999/xlink" x="0px" y="0px"
	 viewBox="0 0 40 40" style="enable-background:new 0 0 40 40;" xml:space="preserve">
<style type="text/css">
	.st0{fill:#FFFFFF;}
</style>
<title>扩展插件配图设计</title>
<g id="_4._魔法岛">
	<rect x="5" y="5" width="30" height="30"/>
	<rect x="10" y="10" class="st0" width="5" height="5"/>
	<rect x="15" y="10" width="5" height="5"/>
	<rect x="20" y="10" class="st0" width="5" height="5"/>
	<rect x="25" y="10" class="st0" width="5" height="5"/>
	<rect x="10" y="15" width="5" height="5"/>
	<rect x="15" y="15" class="st0" width="5" height="5"/>
	<rect x="20" y="15" width="5" height="5"/>
	<rect x="25" y="15" class="st0" width="5" height="5"/>
	<rect x="10" y="20" width="5" height="5"/>
	<rect x="15" y="20" width="5" height="5"/>
	<rect x="20" y="20" class="st0" width="5" height="5"/>
	<rect x="25" y="20" class="st0" width="5" height="5"/>
	<rect x="10" y="25" width="5" height="5"/>
	<rect x="15" y="25" width="5" height="5"/>
	<rect x="20" y="25" class="st0" width="5" height="5"/>
	<rect x="25" y="25" width="5" height="5"/>
</g>
</svg>
