<?xml version="1.0" encoding="utf-8"?>
<!-- Generator: Adobe Illustrator 24.0.0, SVG Export Plug-In . SVG Version: 6.00 Build 0)  -->
<svg version="1.1" id="图层_1" xmlns="http://www.w3.org/2000/svg" xmlns:xlink="http://www.w3.org/1999/xlink" x="0px" y="0px"
	 viewBox="0 0 40 40" style="enable-background:new 0 0 40 40;" xml:space="preserve">
<style type="text/css">
	.st0{fill:#0FBD8C;}
	.st1{fill:#FFFFFF;}
	.st2{fill:#D1D1D1;}
	.st3{fill:#BABABA;}
	.st4{fill:#F3F3F3;}
	.st5{fill:#3A3A3A;}
</style>
<title>扩展插件配图设计</title>
<g id="_29._优必选">
	<rect class="st0" width="40" height="40"/>
</g>
<path class="st1" d="M33.2,18.1c-0.3-0.3-0.7-0.5-1.3-0.6c0-1-0.5-2-1.1-2.7c0,0,0,0,0-0.1c0.1-1.4-0.7-3-2.3-4.1
	c-1-0.7-2.3-1.4-3.5-1.4l0,0c-0.1-0.1-0.2-0.2-0.3-0.4c-1.1-1.2-3-2-4.8-2c-0.3,0-3.1,0.1-4.8,1.9c-0.1,0.1-0.2,0.3-0.4,0.5
	c-1-0.1-2.2,0.5-3.2,1c-1.9,1.3-2.9,3-2.8,4.6c0,0.1,0,0.3,0,0.4c-0.7,0.7-1,1.6-1.1,2.5c-0.5,0.1-0.7,0.3-0.9,0.5
	c-1.5,0.7-1.9,3.4-1.7,6C5.4,27,6.4,29.7,8,29.8c0.3,0.1,0.5,0.2,0.7,0.1c0.6,0,1-0.2,1.5-0.5c0.7,0.7,1.6,1.5,2.5,2
	c1.5,1,3.2,1.6,4.9,1.6H22c2.1,0,4.1-0.7,5.7-2.1c0.7-0.5,1.2-0.9,1.8-1.5c0.5,0.3,1.1,0.6,1.8,0.6c0.3,0,0.6,0,0.8-0.1
	c0.6-0.1,1.4-0.5,2.1-1.9c0.5-1,0.7-2.3,0.9-3.7C35.1,21.5,34.7,18.8,33.2,18.1z"/>
<g>
	<g>
		
			<ellipse transform="matrix(8.829609e-02 -0.9961 0.9961 8.829609e-02 5.6187 53.909)" class="st2" cx="32.3" cy="23.9" rx="4.9" ry="1.8"/>
		<path class="st3" d="M28.5,23.1c-0.1,1.3-0.4,3.7,1.2,5c0.6,0.5,1.5,1,2.1,0.7c0.7-0.5-0.3-2.1,0-4.8c0.2-2.9,1.6-4.3,0.9-5.1
			c-0.5-0.6-1.6-0.4-2.2-0.1C28.9,19.6,28.7,21.8,28.5,23.1z"/>
	</g>
	<g>
		
			<ellipse transform="matrix(8.829609e-02 -0.9961 0.9961 8.829609e-02 5.3535 53.6379)" class="st2" cx="32" cy="23.9" rx="4.9" ry="1.8"/>
		<path class="st3" d="M28.2,23.1c-0.1,1.3-0.4,3.7,1.2,5c0.6,0.5,1.5,1,2.1,0.7c0.7-0.5-0.3-2.1,0-4.8c0.2-2.9,1.6-4.3,0.9-5.1
			c-0.5-0.6-1.6-0.4-2.2-0.1C28.6,19.6,28.4,21.8,28.2,23.1z"/>
	</g>
	<g>
		
			<ellipse transform="matrix(0.9961 -8.829606e-02 8.829606e-02 0.9961 -2.0811 0.7809)" class="st2" cx="7.8" cy="23.9" rx="1.8" ry="4.9"/>
		<path class="st3" d="M11.5,23.1c0.1,1.3,0.4,3.7-1.2,5c-0.6,0.5-1.5,1-2.1,0.7c-0.7-0.5,0.3-2.1,0-4.8c-0.2-2.9-1.6-4.3-0.9-5.1
			c0.5-0.6,1.6-0.4,2.2-0.1C11.1,19.6,11.4,21.8,11.5,23.1z"/>
	</g>
	<g>
		
			<ellipse transform="matrix(0.9961 -8.829606e-02 8.829606e-02 0.9961 -2.0807 0.7892)" class="st2" cx="7.9" cy="23.9" rx="1.8" ry="4.9"/>
		<path class="st3" d="M11.6,23.1c0.1,1.3,0.4,3.7-1.2,5c-0.6,0.5-1.5,1-2.1,0.7c-0.7-0.5,0.3-2.1,0-4.8c-0.2-2.9-1.6-4.3-0.9-5.1
			c0.5-0.6,1.6-0.4,2.2-0.1C11.2,19.6,11.4,21.8,11.6,23.1z"/>
	</g>
	<g>
		<path class="st3" d="M22.3,31.5h-5.1c-4.8,0-8.6-3.8-8.6-8.6V18c0-1.9,1.6-3.5,3.5-3.5h15.9c1.7,0,3.1,1.4,3.1,3.1v5.2
			C31,27.6,27.1,31.5,22.3,31.5z"/>
		<path class="st4" d="M22.1,31.9h-4.3c-4.3,0-7.8-3.5-7.8-7.8v-4.7c0-1.7,1.4-3.1,3.1-3.1h13.9c1.6,0,2.8,1.2,2.8,2.8v5
			C29.8,28.5,26.3,31.9,22.1,31.9z"/>
	</g>
	<g>
		<circle class="st3" cx="14.8" cy="23.1" r="3.2"/>
		<circle class="st1" cx="15" cy="23.1" r="2.6"/>
		<circle class="st5" cx="15.1" cy="23" r="1.9"/>
		<circle class="st3" cx="25.1" cy="23.1" r="3.2"/>
		<circle class="st1" cx="24.9" cy="23.1" r="2.6"/>
		<circle class="st5" cx="24.8" cy="23" r="1.9"/>
		<circle class="st1" cx="14" cy="21.9" r="0.4"/>
		<circle class="st1" cx="23.5" cy="21.7" r="0.4"/>
	</g>
	<g>
		<g>
			<path class="st2" d="M23.5,15.1c-0.7,2.2-1.4,4.4-3.8,4.4c-2.5-0.1-3.2-2.1-3.8-4.6c-0.5-1.8-1.4-3.7,0-5.3s3.9-1.6,4-1.6
				c1.6,0,3.2,0.7,4.1,1.7C25.2,11.2,24.1,13.2,23.5,15.1z"/>
		</g>
		<path class="st2" d="M28.6,17c-2.1,2-5.9,2.4-6.6,1.2c-0.5-0.7,1-1.6,1.7-4.3c0.5-2.1-0.1-3,0.6-3.5c1.3-0.9,5.9,1.6,5.7,4.3
			C29.8,15.8,29.1,16.5,28.6,17z"/>
		<path class="st2" d="M11,17c2.1,2,5.9,2.4,6.6,1.2c0.5-0.7-1-1.6-1.7-4.3c-0.5-2.1,0.1-3-0.6-3.5c-1.3-0.9-5.9,1.6-5.7,4.3
			C9.7,15.8,10.6,16.5,11,17z"/>
	</g>
	<path class="st5" d="M19.8,18.6L19.8,18.6c-0.7,0-1.3-0.4-1.6-0.9l-0.4-0.9c-0.4-1.1,0.4-2.5,1.9-2.5l0,0c1.5,0,2.2,1.4,1.9,2.5
		l-0.4,0.9C21.1,18.2,20.5,18.6,19.8,18.6z"/>
</g>
</svg>
