<?xml version="1.0" encoding="utf-8"?>
<!-- Generator: Adobe Illustrator 24.0.0, SVG Export Plug-In . SVG Version: 6.00 Build 0)  -->
<svg version="1.1" id="图层_1" xmlns="http://www.w3.org/2000/svg" xmlns:xlink="http://www.w3.org/1999/xlink" x="0px" y="0px"
	 viewBox="0 0 40 40" style="enable-background:new 0 0 40 40;" xml:space="preserve">
<style type="text/css">
	.st0{fill-rule:evenodd;clip-rule:evenodd;fill:#FFFFFF;}
	.st1{fill:#7439EA;}
	.st2{fill:#1F91E1;}
	.st3{fill:#4D43FF;}
	.st4{fill:#FFFFFF;}
	.st5{enable-background:new    ;}
	.st6{fill:none;stroke:#4D43FF;stroke-width:0.5;}
</style>
<g>
	<g id="编组-3_1_" transform="translate(17.400000, 17.400000)">
		<g id="矩形_4_">
			<path class="st0" d="M-11.58-13.4H6.24c1,0,1.82,0.81,1.82,1.82V6.24c0,1-0.81,1.82-1.82,1.82h-17.82c-1,0-1.82-0.81-1.82-1.82
				v-17.82C-13.4-12.59-12.59-13.4-11.58-13.4z"/>
			<path class="st1" d="M6.24,8.36h-17.82c-1.17,0-2.12-0.95-2.12-2.12v-17.82c0-1.17,0.95-2.12,2.12-2.12H6.24
				c1.17,0,2.12,0.95,2.12,2.12V6.24C8.36,7.41,7.41,8.36,6.24,8.36z M-11.58-13.1c-0.84,0-1.52,0.68-1.52,1.52V6.24
				c0,0.84,0.68,1.52,1.52,1.52H6.24c0.84,0,1.52-0.68,1.52-1.52v-17.82c0-0.84-0.68-1.52-1.52-1.52H-11.58z"/>
		</g>
		<g id="编组_2_" transform="translate(11.400000, 8.400000)">
			<g id="路径_4_">
				<path class="st2" d="M-13.98-8.71c1.26,0,2.27-1,2.27-2.24v-3.71c0-1.24-1.02-2.24-2.27-2.24s-2.27,1-2.27,2.24v3.71
					C-16.22-9.71-15.24-8.71-13.98-8.71z"/>
				<path class="st3" d="M-13.98-8.46c-1.38,0-2.49-1.09-2.52-2.48v-3.72c0-1.37,1.13-2.49,2.52-2.49s2.52,1.12,2.52,2.49v3.71
					C-11.46-9.58-12.59-8.46-13.98-8.46z M-13.98-16.65c-1.11,0-2.02,0.89-2.02,1.99v3.71c0.03,1.11,0.91,1.99,2.02,1.99
					c1.11,0,2.02-0.89,2.02-1.99v-3.71C-11.96-15.76-12.87-16.65-13.98-16.65z"/>
			</g>
			<g id="路径_3_">
				<path class="st2" d="M-10.52-12.41c-0.24,0-0.45,0.2-0.45,0.43v1.17c0,1.63-1.38,2.95-3.1,2.95s-3.1-1.32-3.1-2.95v-1.29
					c0-0.23-0.21-0.43-0.45-0.43s-0.45,0.2-0.45,0.43v1.29c0,1.95,1.56,3.58,3.55,3.78v0.92h-1.5c-0.24,0-0.45,0.2-0.45,0.43
					s0.21,0.43,0.45,0.43h3.91c0.24,0,0.45-0.2,0.45-0.43s-0.21-0.43-0.45-0.43h-1.5v-0.92c1.99-0.2,3.55-1.83,3.55-3.78v-1.17
					C-10.07-12.24-10.28-12.41-10.52-12.41z"/>
				<path class="st3" d="M-12.11-5h-3.91c-0.38,0-0.7-0.31-0.7-0.68c0-0.37,0.32-0.68,0.7-0.68h1.25v-0.45
					c-2.01-0.31-3.55-2.03-3.55-4v-1.29c0-0.37,0.32-0.68,0.7-0.68s0.7,0.31,0.7,0.68v1.29c0,1.49,1.28,2.7,2.85,2.7
					s2.85-1.21,2.85-2.7v-1.17c0-0.37,0.32-0.68,0.7-0.68c0.39,0,0.7,0.29,0.71,0.67v1.18c0,1.97-1.54,3.69-3.55,4v0.45h1.25
					c0.38,0,0.7,0.31,0.7,0.68C-11.41-5.31-11.73-5-12.11-5z M-16.02-5.86c-0.1,0-0.2,0.09-0.2,0.18s0.1,0.18,0.2,0.18h3.91
					c0.1,0,0.2-0.09,0.2-0.18s-0.1-0.18-0.2-0.18h-1.75v-1.4l0.23-0.02c1.86-0.19,3.33-1.74,3.33-3.53v-1.17
					c-0.01-0.25-0.41-0.18-0.41,0v1.17c0,1.76-1.5,3.2-3.35,3.2s-3.35-1.44-3.35-3.2v-1.29c0-0.09-0.1-0.18-0.2-0.18
					c-0.1,0-0.2,0.09-0.2,0.18v1.29c0,1.79,1.46,3.34,3.32,3.53l0.23,0.02v1.4H-16.02z"/>
			</g>
		</g>
	</g>
	
		<g id="编组_1_" transform="translate(44.983494, 8.201795) scale(-1, 1) rotate(-60.000000) translate(-44.983494, -8.201795) translate(38.483494, 4.201795)">
		<g id="路径_2_">
			<path class="st4" d="M12.04,15.18v-1.17L9.15,15.8c-0.19,0.12-0.19,0.32,0,0.44l2.88,1.79l0-1.17c1.63,0,3.14,0.25,4.43,1.51
				C15.88,16.02,13.44,15.18,12.04,15.18"/>
			<path class="st1" d="M8.78,16.28c0.05,0.08,0.12,0.16,0.21,0.21l3.34,2.08l0-1.41c1.34,0.03,2.73,0.26,3.92,1.42L17,19.32
				l-0.25-1.02c-0.57-2.35-2.85-3.3-4.41-3.41l0-1.42l-3.35,2.07c-0.18,0.12-0.28,0.29-0.28,0.48C8.71,16.11,8.73,16.2,8.78,16.28z
				 M11.73,17.49l-2.36-1.47l2.37-1.47l0,0.93l0.3,0c1.08,0,2.82,0.55,3.7,1.95c-1.21-0.75-2.53-0.87-3.71-0.87l-0.3,0L11.73,17.49z
				"/>
		</g>
	</g>
	<g id="编组-2_1_">
		<g id="矩形_3_">
			<path class="st0" d="M16.36,14.55h17.82c1,0,1.82,0.81,1.82,1.82v17.82c0,1-0.81,1.82-1.82,1.82H16.36c-1,0-1.82-0.81-1.82-1.82
				V16.36C14.55,15.36,15.36,14.55,16.36,14.55z"/>
			<path class="st1" d="M34.18,36.31H16.36c-1.17,0-2.12-0.95-2.12-2.12V16.36c0.01-1.17,0.96-2.11,2.12-2.11h17.82
				c1.17,0,2.12,0.95,2.12,2.12v17.82C36.3,35.36,35.35,36.31,34.18,36.31z M16.36,14.85c-0.83,0-1.51,0.68-1.52,1.51v17.83
				c0,0.84,0.68,1.52,1.52,1.52h17.82c0.84,0,1.52-0.68,1.52-1.52V16.37c0-0.84-0.68-1.52-1.52-1.52H16.36z"/>
		</g>
		<g class="st5">
			<path class="st2" d="M30.22,23.23h-0.55c-0.15-0.43-0.38-0.89-0.71-1.38c-0.32-0.49-0.62-0.76-0.9-0.8
				c-0.15-0.02-0.34-0.04-0.56-0.05c-0.22-0.01-0.41-0.02-0.57-0.02H26.6v7.91c0,0.17,0.03,0.32,0.09,0.45
				c0.06,0.13,0.18,0.23,0.36,0.31c0.11,0.04,0.28,0.09,0.51,0.13c0.23,0.04,0.42,0.08,0.59,0.1v0.55h-5.62v-0.55
				c0.14-0.01,0.33-0.03,0.58-0.06c0.25-0.03,0.42-0.06,0.51-0.1c0.18-0.08,0.31-0.18,0.37-0.31s0.09-0.28,0.09-0.45v-7.98h-0.33
				c-0.16,0-0.35,0.01-0.57,0.02c-0.22,0.01-0.41,0.03-0.56,0.05c-0.27,0.04-0.57,0.3-0.9,0.8c-0.32,0.49-0.56,0.95-0.71,1.38h-0.55
				v-2.88h9.77V23.23z"/>
		</g>
		<g class="st5">
			<path class="st6" d="M30.22,23.23h-0.55c-0.15-0.43-0.38-0.89-0.71-1.38c-0.32-0.49-0.62-0.76-0.9-0.8
				c-0.15-0.02-0.34-0.04-0.56-0.05c-0.22-0.01-0.41-0.02-0.57-0.02H26.6v7.91c0,0.17,0.03,0.32,0.09,0.45
				c0.06,0.13,0.18,0.23,0.36,0.31c0.11,0.04,0.28,0.09,0.51,0.13c0.23,0.04,0.42,0.08,0.59,0.1v0.55h-5.62v-0.55
				c0.14-0.01,0.33-0.03,0.58-0.06c0.25-0.03,0.42-0.06,0.51-0.1c0.18-0.08,0.31-0.18,0.37-0.31s0.09-0.28,0.09-0.45v-7.98h-0.33
				c-0.16,0-0.35,0.01-0.57,0.02c-0.22,0.01-0.41,0.03-0.56,0.05c-0.27,0.04-0.57,0.3-0.9,0.8c-0.32,0.49-0.56,0.95-0.71,1.38h-0.55
				v-2.88h9.77V23.23z"/>
		</g>
	</g>
</g>
</svg>
