<?xml version="1.0" encoding="utf-8"?>
<!-- Generator: Adobe Illustrator 24.0.0, SVG Export Plug-In . SVG Version: 6.00 Build 0)  -->
<svg version="1.1" id="图层_1" xmlns="http://www.w3.org/2000/svg" xmlns:xlink="http://www.w3.org/1999/xlink" x="0px" y="0px"
	 viewBox="0 0 40 40" style="enable-background:new 0 0 40 40;" xml:space="preserve">
<style type="text/css">
	.st0{fill:#231815;}
</style>
<title>扩展插件配图设计</title>
<g>
	<path class="st0" d="M7.06,24.8H1.82V14.54c0-0.34-0.32-0.66-0.66-0.66S0.5,14.2,0.5,14.54v11.59h6.69c0.2,0,0.53-0.09,0.53-0.66
		C7.72,25.14,7.55,24.8,7.06,24.8z"/>
	<path class="st0" d="M16.64,14.66c0-0.34-0.32-0.66-0.66-0.66h-5.9c-0.34,0-0.66,0.32-0.66,0.66v10.8c0,0.34,0.32,0.66,0.66,0.66
		h5.9c0.49,0,0.66-0.34,0.66-0.66s-0.17-0.66-0.66-0.66h-5.24v-9.48h5.24C16.32,15.32,16.64,15,16.64,14.66z"/>
	<path class="st0" d="M24.77,14.31c-0.19-0.29-0.48-0.43-0.88-0.43c-0.32,0-0.48,0.16-0.61,0.3l-4.81,10.85l-0.01,0.19
		c0,0.41,0.16,0.67,0.46,0.77c0.01,0.01,0.31,0.15,0.61,0.01c0.1-0.01,0.16-0.07,0.21-0.12h0.1l4.17-9.45l4.25,9.22
		c0.04,0.12,0.15,0.34,0.38,0.43c0.08,0.03,0.17,0.05,0.27,0.05c0.09,0,0.2,0,0.32-0.05c0.04-0.02,0.1-0.05,0.16-0.11
		c0.13-0.07,0.26-0.17,0.33-0.4c0.06-0.23,0.01-0.35-0.04-0.44L24.77,14.31z"/>
	<path class="st0" d="M12.09,19.4c-0.34,0-0.66,0.45-0.66,0.66c0,0.34,0.32,0.66,0.66,0.66h2.76c0.34,0,0.66-0.45,0.66-0.66
		c0-0.32-0.17-0.66-0.66-0.66H12.09z"/>
	<path class="st0" d="M25.14,20.76h-2.22c-0.39,0-0.7,0.36-0.7,0.8c0,0.39,0.36,0.7,0.8,0.7h2.22c0.39,0,0.7-0.36,0.7-0.8
		C25.94,21.07,25.58,20.76,25.14,20.76z"/>
	<path class="st0" d="M36.08,13.88h-4.43v11.59c0,0.34,0.32,0.66,0.66,0.66c0.46,0,0.66-0.31,0.66-0.53V15.45h3.36
		c0.47,0,1.06,0.24,1.4,0.58c0.32,0.32,0.58,0.89,0.46,1.4c0,0.47-0.25,1.06-0.58,1.4c-0.31,0.31-0.74,0.44-1.52,0.46h-2.26
		c-0.34,0-0.66,0.45-0.66,0.66c0,0.34,0.32,0.66,0.66,0.66h2.26c1.92,0,3.42-1.5,3.42-3.42C39.5,15.29,38.03,13.88,36.08,13.88z"/>
</g>
</svg>
