<?xml version="1.0" encoding="utf-8"?>
<!-- Generator: Adobe Illustrator 24.0.0, SVG Export Plug-In . SVG Version: 6.00 Build 0)  -->
<svg version="1.1" id="图层_1" xmlns="http://www.w3.org/2000/svg" xmlns:xlink="http://www.w3.org/1999/xlink" x="0px" y="0px"
	 viewBox="0 0 40 40" style="enable-background:new 0 0 40 40;" xml:space="preserve">
<title>扩展插件配图设计</title>
<g id="_31._motion">
	<path d="M8.7,24l-4-4l4-4c0.5-0.5,0.5-1.3,0-1.7c-0.5-0.5-1.3-0.5-1.7,0l-4,4c0,0,0,0,0,0v-3.1c0-0.7-0.5-1.2-1.2-1.2
		c-0.7,0-1.2,0.5-1.2,1.2v9.4c0,0.7,0.5,1.2,1.2,1.2c0.7,0,1.2-0.5,1.2-1.2v-2.9c0,0,0,0,0,0l4,4c0.5,0.5,1.3,0.5,1.7,0
		C9.2,25.2,9.2,24.5,8.7,24z"/>
	<path d="M14.9,14c-2.3,0.1-4.1,2-4.1,4.4l0,0v6.2c0,0.7,0.5,1.2,1.2,1.2l0,0c0.7,0,1.2-0.5,1.2-1.2v-2.1l0,0H17l0,0v2.1
		c0,0.7,0.5,1.2,1.2,1.2l0,0c0.7,0,1.2-0.5,1.2-1.2v-6.1c0-2.4-1.9-4.4-4.4-4.5C15,14,14.9,14,14.9,14z M17.1,18.4V20l-3.9,0v-1.6
		l0,0c0.1-1.1,1-1.9,2.1-1.8C16.3,16.7,17,17.4,17.1,18.4L17.1,18.4z"/>
	<path d="M29.6,18.4c0-2.4-2-4.4-4.4-4.4c-2.4,0-4.4,2-4.4,4.4l0,0v6.2c0,0.7,0.5,1.2,1.2,1.2l0,0c0.7,0,1.2-0.5,1.2-1.2v-6.2l0,0
		c0-1.1,0.9-1.9,1.9-1.9s1.9,0.9,1.9,1.9l0,0l0,0v0.3l0,0v3.6l0,0v2.3c0,0.7,0.5,1.2,1.2,1.2l0,0c0.7,0,1.2-0.5,1.2-1.2
		C29.6,24.6,29.6,18.4,29.6,18.4z"/>
	<polygon points="30.7,21.5 30.7,21.5 30.7,21.5 	"/>
	<path d="M39.1,16.5c-0.7-1.5-2.3-2.5-4-2.5h0c-2.4,0-4.3,1.9-4.4,4.2h0v0c0,0,0,0.1,0,0.1c0,0.1,0,0.1,0,0.2v3h0
		c0,1.6,1,3.1,2.4,3.8l0,0c1.2,0.6,2.7,0.6,3.9,0v0c0,0,0,0,0.1,0c0,0,0,0,0,0v0c1.4-0.7,2.4-2.2,2.4-3.9v-0.1v-0.2v-2.1
		C39.4,17.4,39.5,17.3,39.1,16.5z M37,18.4v2.8v0v0.6v0.3c-0.3,0.8-1.1,1.3-1.9,1.3c-1,0-1.8-0.7-1.9-1.7v-3.1c0-0.1,0-0.2,0-0.3
		c0,0,0,0,0,0c0-1.1,0.9-1.9,1.9-1.9c1,0,1.7,0.7,1.9,1.6V18.4z"/>
</g>
</svg>
