<?xml version="1.0" encoding="utf-8"?>
<!-- Generator: Adobe Illustrator 24.0.0, SVG Export Plug-In . SVG Version: 6.00 Build 0)  -->
<svg version="1.1" id="图层_1" xmlns="http://www.w3.org/2000/svg" xmlns:xlink="http://www.w3.org/1999/xlink" x="0px" y="0px"
	 viewBox="0 0 40 40" style="enable-background:new 0 0 40 40;" xml:space="preserve">
<style type="text/css">
	.st0{fill:#117BBC;}
	.st1{fill:#909AB1;}
	.st2{fill:#FFBB43;}
	.st3{fill:#3A3A3A;}
	.st4{fill:#666666;}
	.st5{fill:#FFFFFF;}
</style>
<title>扩展插件配图设计</title>
<g id="_10._NetworkZero">
	<path class="st0" d="M4.74,4.66h30.6c0.78,0,1.31,0.61,1.31,1.31v19.7c0,0.78-0.61,1.31-1.31,1.31H4.74
		c-0.78,0-1.31-0.61-1.31-1.31V6.05C3.35,5.27,3.96,4.66,4.74,4.66z"/>
	<path class="st1" d="M35.26,27.41H4.74c-0.96,0-1.66-0.7-1.74-1.66l0,0V6.05c0-0.96,0.78-1.66,1.66-1.74l0,0h30.6
		c0.96,0,1.66,0.7,1.74,1.66l0,0v19.7C37,26.63,36.22,27.41,35.26,27.41C35.34,27.41,35.26,27.41,35.26,27.41z M4.74,5.01
		c-0.52,0-1.05,0.44-1.05,0.96l0,0v19.7c0,0.52,0.44,1.05,1.05,1.05l0,0h30.6c0.52,0,1.05-0.44,1.05-0.96l0,0V6.05
		c0-0.52-0.44-1.05-1.05-1.05l0,0H4.74z"/>
	<path class="st2" d="M6.84,6.84h26.24c0.78,0,1.31,0.61,1.31,1.31v15.43c0,0.78-0.61,1.31-1.31,1.31H6.84
		c-0.78,0-1.31-0.61-1.31-1.31V8.14C5.53,7.45,6.14,6.84,6.84,6.84z"/>
	<rect x="18.08" y="27.06" class="st3" width="3.75" height="4.88"/>
	<path class="st1" d="M22.18,32.29h-4.36v-5.58h4.36V32.29z M18.43,31.59h3.05v-4.18h-3.05V31.59z"/>
	<path class="st4" d="M9.63,31.94h20.66c0.96,0,1.66,0.78,1.66,1.66l0,0c0,0.96-0.78,1.66-1.66,1.66H9.63
		c-0.96,0-1.66-0.78-1.66-1.66l0,0C7.88,32.73,8.67,31.94,9.63,31.94z"/>
	<path class="st1" d="M30.29,35.69H9.63c-1.13,0-2.01-0.87-2.01-2.01c0-1.13,0.87-2.01,2.01-2.01h20.66c1.13,0,2.01,0.87,2.01,2.01
		C32.38,34.82,31.42,35.69,30.29,35.69L30.29,35.69z M9.63,32.29c-0.78,0-1.39,0.61-1.39,1.39c0,0.78,0.61,1.39,1.39,1.39h20.66
		c0.78,0,1.39-0.61,1.39-1.39c0-0.78-0.61-1.39-1.39-1.39H9.63z"/>
	<path class="st5" d="M19.3,19.56L19.3,19.56c-0.26,0-0.44-0.17-0.44-0.44l-1.05-6.8l-1.39,5.75c-0.09,0.17-0.26,0.35-0.44,0.35
		c-0.26,0-0.44-0.17-0.44-0.35l-0.87-3.92l-1.66,1.92c-0.09,0.09-0.26,0.17-0.35,0.17H9.54c-0.17,0-0.35-0.09-0.44-0.26
		c0-0.17,0.09-0.35,0.26-0.44c0.09,0,0.09,0,0.17,0h3.05l1.57-2.09c0.17-0.17,0.44-0.26,0.7-0.09c0.09,0.09,0.17,0.17,0.17,0.26
		l0.78,3.57l1.48-5.93c0.09-0.26,0.26-0.35,0.52-0.35c0.26,0,0.44,0.17,0.44,0.35l1.13,6.89l1.22-4.53
		c0.09-0.17,0.26-0.35,0.44-0.35l0,0c0.17,0,0.44,0.17,0.44,0.35l0.87,3.4l1.48-3.49c0.09-0.26,0.35-0.35,0.61-0.26
		c0.09,0.09,0.17,0.17,0.26,0.26l1.13,2.44h4.62c0.17,0,0.35,0.09,0.44,0.26c0,0.17-0.09,0.35-0.26,0.44c-0.09,0-0.09,0-0.17,0
		h-4.79c-0.17,0-0.35-0.09-0.44-0.26l-0.96-2.18l-1.48,3.66c-0.09,0.17-0.26,0.35-0.44,0.26c-0.17,0-0.35-0.17-0.44-0.35l-0.87-3.23
		l-1.22,4.71C19.65,19.48,19.48,19.56,19.3,19.56z"/>
</g>
</svg>
