<?xml version="1.0" encoding="utf-8"?>
<!-- Generator: Adobe Illustrator 24.0.0, SVG Export Plug-In . SVG Version: 6.00 Build 0)  -->
<svg version="1.1" id="图层_1" xmlns="http://www.w3.org/2000/svg" xmlns:xlink="http://www.w3.org/1999/xlink" x="0px" y="0px"
	 viewBox="0 0 40 40" style="enable-background:new 0 0 40 40;" xml:space="preserve">
<style type="text/css">
	.st0{fill:#0FBD8C;}
	.st1{fill:#FFFFFF;}
</style>
<title>扩展插件配图设计</title>
<g id="_37._IFTT">
	<rect class="st0" width="40" height="40"/>
	<g>
		<rect x="2.5" y="15.4" class="st1" width="2.9" height="9.2"/>
		<polygon class="st1" points="35.4,15.4 32.5,15.4 30.5,15.4 30.5,18.3 32.5,18.3 32.5,24.6 35.4,24.6 35.4,18.3 37.5,18.3 
			37.5,15.4 		"/>
		<polygon class="st1" points="7,15.4 7,18.3 7,19.3 7,22.2 7,24.6 9.9,24.6 9.9,22.2 12.9,22.2 12.9,19.3 9.9,19.3 9.9,18.3 
			13.9,18.3 13.9,15.4 9.9,15.4 		"/>
		<polygon class="st1" points="17,15.4 15,15.4 15,18.3 17,18.3 17,24.6 19.9,24.6 19.9,18.3 22,18.3 22,15.4 19.9,15.4 		"/>
		<polygon class="st1" points="24.7,15.4 22.8,15.4 22.8,18.3 24.7,18.3 24.7,24.6 27.6,24.6 27.6,18.3 29.7,18.3 29.7,15.4 
			27.6,15.4 		"/>
	</g>
</g>
</svg>
