<?xml version="1.0" encoding="utf-8"?>
<!-- Generator: Adobe Illustrator 24.0.0, SVG Export Plug-In . SVG Version: 6.00 Build 0)  -->
<svg version="1.1" id="图层_1" xmlns="http://www.w3.org/2000/svg" xmlns:xlink="http://www.w3.org/1999/xlink" x="0px" y="0px"
	 viewBox="0 0 40 40" style="enable-background:new 0 0 40 40;" xml:space="preserve">
<style type="text/css">
	.st0{fill:#0FBD8C;}
	.st1{fill:#FFFFFF;}
	.st2{fill:#E19B93;}
	.st3{fill:#909AB1;}
	.st4{fill:#F7C6BA;}
	.st5{fill:#B96332;}
</style>
<title>扩展插件配图设计</title>
<g id="_24._Faceapi">
	<g>
		<rect class="st0" width="40" height="40"/>
	</g>
	<g>
		<path class="st1" d="M7.1,34.9H4.2c-0.9,0-1.7-0.7-1.7-1.6l0,0v-2.5c0-0.4,0.3-0.7,0.7-0.7s0.7,0.3,0.7,0.7l0,0v2.5
			c0,0.3,0.1,0.4,0.4,0.4h2.9c0.4,0,0.7,0.3,0.7,0.7C7.7,34.8,7.5,35.1,7.1,34.9L7.1,34.9z"/>
	</g>
	<g>
		<path class="st1" d="M7.1,34.9H4.2c-0.9,0-1.7-0.7-1.7-1.6l0,0v-2.5c0-0.4,0.3-0.7,0.7-0.7s0.7,0.3,0.7,0.7l0,0v2.5
			c0,0.3,0.1,0.4,0.4,0.4h2.9c0.4,0,0.7,0.3,0.7,0.7C7.7,34.8,7.5,35.1,7.1,34.9L7.1,34.9z"/>
	</g>
	<g>
		<path class="st1" d="M3.3,9.9c-0.4,0-0.7-0.3-0.7-0.7V6.7C2.6,5.8,3.4,5,4.2,5l0,0h2.9c0.4,0,0.7,0.3,0.7,0.7S7.5,6.3,7.1,6.3H4.2
			C4.1,6.5,3.8,6.6,3.8,6.7v2.5C3.8,9.6,3.5,9.9,3.3,9.9z"/>
	</g>
	<g>
		<path class="st1" d="M3.3,9.9c-0.4,0-0.7-0.3-0.7-0.7V6.7C2.6,5.8,3.4,5,4.2,5l0,0h2.9c0.4,0,0.7,0.3,0.7,0.7S7.5,6.3,7.1,6.3H4.2
			C4.1,6.5,3.8,6.6,3.8,6.7v2.5C3.8,9.6,3.5,9.9,3.3,9.9z"/>
	</g>
	<g>
		<path class="st1" d="M35.8,34.9h-2.9c-0.4,0-0.7-0.3-0.7-0.7c0-0.4,0.3-0.7,0.7-0.7h2.9c0.3,0,0.4-0.1,0.4-0.4v-2.5
			c0-0.4,0.3-0.7,0.7-0.7s0.7,0.3,0.7,0.7v2.5C37.6,34.1,36.8,34.9,35.8,34.9C35.9,34.9,35.9,34.9,35.8,34.9z"/>
	</g>
	<g>
		<path class="st1" d="M35.8,34.9h-2.9c-0.4,0-0.7-0.3-0.7-0.7c0-0.4,0.3-0.7,0.7-0.7h2.9c0.3,0,0.4-0.1,0.4-0.4v-2.5
			c0-0.4,0.3-0.7,0.7-0.7s0.7,0.3,0.7,0.7v2.5C37.6,34.1,36.8,34.9,35.8,34.9C35.9,34.9,35.9,34.9,35.8,34.9z"/>
	</g>
	<g>
		<path class="st1" d="M36.8,9.9c-0.4,0-0.7-0.3-0.7-0.7l0,0V6.7c0-0.3-0.1-0.4-0.4-0.4h-2.9c-0.4,0-0.7-0.3-0.7-0.7S32.5,5,32.9,5
			h2.9c0.9,0,1.7,0.7,1.7,1.6c0,0,0,0,0,0.1v2.5C37.5,9.6,37.2,9.9,36.8,9.9L36.8,9.9z"/>
	</g>
	<g>
		<path class="st1" d="M36.8,9.9c-0.4,0-0.7-0.3-0.7-0.7l0,0V6.7c0-0.3-0.1-0.4-0.4-0.4h-2.9c-0.4,0-0.7-0.3-0.7-0.7S32.5,5,32.9,5
			h2.9c0.9,0,1.7,0.7,1.7,1.6c0,0,0,0,0,0.1v2.5C37.5,9.6,37.2,9.9,36.8,9.9L36.8,9.9z"/>
	</g>
	<g>
		<path class="st2" d="M29.3,22.1L29.3,22.1c0,1-0.9,2-2,2H11.5c-1,0-2-0.9-2-2l0,0c0-1,0.9-2,2-2h15.8
			C28.5,20.2,29.3,21.1,29.3,22.1z"/>
		<path class="st3" d="M27.3,24.4H11.6c-1.2,0-2.2-1-2.2-2.2c0-1.2,1-2.2,2.2-2.2h15.7c1.2,0,2.2,1,2.2,2.2
			C29.7,23.3,28.6,24.4,27.3,24.4z M11.6,20.6c-0.9,0-1.6,0.7-1.6,1.6c0,0.9,0.7,1.6,1.6,1.6h15.7c0.9,0,1.6-0.7,1.6-1.6
			c0-0.9-0.7-1.6-1.6-1.6H11.6z"/>
	</g>
	<g>
		<path class="st4" d="M19.5,12L19.5,12c4.7,0,8.5,3.8,8.5,8.5v2.6c0,4.7-3.8,8.5-8.5,8.5l0,0c-4.7,0-8.5-3.8-8.5-8.5v-2.6
			C11,15.9,14.8,12,19.5,12z"/>
		<path class="st3" d="M19.5,31.9c-4.8,0-8.9-3.9-8.9-8.9v-2.6c0-4.8,3.9-8.9,8.9-8.9c4.8,0,8.9,3.9,8.9,8.9v2.6
			C28.3,28,24.3,31.9,19.5,31.9z M19.5,12.3c-4.4,0-8.1,3.7-8.1,8.1v2.6c0,4.4,3.7,8.1,8.1,8.1s8.1-3.7,8.1-8.1v-2.6
			C27.6,16,23.9,12.3,19.5,12.3z"/>
	</g>
	<g>
		<path class="st5" d="M27.3,12.5c-0.7-1.8-2.3-3-4.3-2.9c-0.5,0-1,0.1-1.4,0.3c-1-0.9-2.3-1.3-3.7-1.3c-2-0.1-3.9,1-4.7,2.9
			c-1.2,0.3-2.1,1.3-2.1,2.6c0,0.3,0,0.5,0.1,0.8c-0.1,0.1-0.1,0.3-0.1,0.5v5.4H12c0.5,0,0.9-0.4,0.9-0.9l0,0v-2.1
			c0.9,0.4,1.8,0.5,2.7,0.5c2.1,0.1,4-0.5,5.6-2c0.7,0.3,1.2,0.4,1.8,0.4c1.2,0,2.2-0.4,3.1-1v2.9c0,1,0.8,1.8,1.8,1.8v-6.8
			C28,12.9,27.7,12.6,27.3,12.5z"/>
		<path class="st3" d="M11.9,21H11c-0.1,0-0.3-0.1-0.3-0.3v-5.4c0-0.1,0-0.4,0.1-0.5c-0.1-0.3-0.1-0.5-0.1-0.8
			c0-1.4,0.9-2.5,2.2-2.9c0.9-1.8,2.9-2.9,5-2.9c1.3,0,2.6,0.4,3.7,1.3c0.5-0.1,0.9-0.3,1.4-0.1c2-0.1,3.9,1,4.6,2.9
			c0.4,0.1,0.7,0.7,0.8,1v6.9c0,0.1-0.1,0.3-0.3,0.3c-1.2,0-2.1-0.9-2.1-2.1v-2.3c-0.8,0.5-1.8,0.8-2.7,0.8c0,0,0,0-0.1,0
			c-0.7,0-1.2-0.1-1.8-0.3c-1.6,1.3-3.7,2-5.6,1.8c-0.8,0-1.7-0.1-2.5-0.4v1.6C13.1,20.3,12.6,21,11.9,21z M11.4,20.3h0.5
			c0.3,0,0.5-0.3,0.5-0.5v-2.1c0-0.1,0-0.3,0.1-0.3c0.1,0,0.3-0.1,0.3,0c0.8,0.4,1.7,0.5,2.6,0.5c2,0.1,3.9-0.5,5.4-1.8
			c0.1-0.1,0.3-0.1,0.4,0c0.5,0.3,1.2,0.3,1.7,0.3c0,0,0,0,0.1,0c1,0,2.1-0.4,2.9-1c0.1-0.1,0.3-0.1,0.4,0c0.1,0,0.1,0.1,0.1,0.3
			v2.9c0,0.7,0.5,1.3,1.2,1.4v-6.5c0-0.3-0.1-0.5-0.4-0.5c-0.1,0-0.1-0.1-0.3-0.3c-0.5-1.7-2.2-2.7-3.9-2.6l0,0
			c-0.5,0-0.9,0.1-1.4,0.3c-0.1,0-0.3,0-0.3,0c-0.9-0.8-2.2-1.3-3.4-1.2c-1.8,0-3.7,0.9-4.4,2.6c0,0.1-0.1,0.1-0.3,0.1
			c-1,0.3-1.8,1.2-2,2.3c0,0.3,0,0.4,0.1,0.7c0,0.1,0,0.3,0,0.3c0,0.1-0.1,0.1-0.1,0.3v5H11.4z"/>
	</g>
</g>
</svg>
