<?xml version="1.0" encoding="utf-8"?>
<!-- Generator: Adobe Illustrator 24.0.0, SVG Export Plug-In . SVG Version: 6.00 Build 0)  -->
<svg version="1.1" id="图层_1" xmlns="http://www.w3.org/2000/svg" xmlns:xlink="http://www.w3.org/1999/xlink" x="0px" y="0px"
	 viewBox="0 0 40 40" style="enable-background:new 0 0 40 40;" xml:space="preserve">
<style type="text/css">
	.st0{fill:#1EB3E7;}
</style>
<g>
	<path class="st0" d="M39.34,21.58l-4.13-4.22v-7.17c0-0.31-0.25-0.57-0.57-0.57h-3.56c-0.31,0-0.57,0.25-0.57,0.57v2.37l-0.37-0.38
		l-9.73-9.95C20.18,2,19.82,2,19.59,2.23l-9.73,9.95l-9.2,9.4c-0.35,0.36-0.1,0.97,0.41,0.97h3.42v14.82c0,0.31,0.25,0.57,0.57,0.57
		h14.3v-5.93l-6.5-6.5c-0.45,0.26-0.96,0.42-1.51,0.42c-1.67,0-3.03-1.36-3.03-3.03s1.36-3.03,3.03-3.03s3.03,1.36,3.03,3.03
		c0,0.65-0.21,1.24-0.55,1.74l5.53,5.53V19.41c-1.36-0.3-2.38-1.51-2.38-2.96c0-1.67,1.36-3.03,3.03-3.03s3.03,1.36,3.03,3.03
		c0,1.45-1.02,2.66-2.38,2.96v10.77l5.53-5.53c-0.35-0.49-0.55-1.09-0.55-1.74c0-1.67,1.36-3.03,3.03-3.03s3.03,1.36,3.03,3.03
		s-1.36,3.03-3.03,3.03c-0.55,0-1.07-0.16-1.51-0.42l-6.5,6.5v5.93h14.3c0.31,0,0.57-0.25,0.57-0.57V22.55h3.42
		C39.43,22.55,39.69,21.94,39.34,21.58z"/>
	<path class="st0" d="M9.61,22.9c0,0.96,0.78,1.73,1.73,1.73s1.73-0.78,1.73-1.73c0-0.95-0.78-1.73-1.73-1.73S9.61,21.95,9.61,22.9z
		"/>
	<path class="st0" d="M21.73,16.45c0-0.96-0.78-1.73-1.73-1.73c-0.96,0-1.73,0.78-1.73,1.73s0.78,1.73,1.73,1.73
		C20.96,18.18,21.73,17.4,21.73,16.45z"/>
	<path class="st0" d="M28.66,24.64c0.95,0,1.73-0.78,1.73-1.73c0-0.95-0.78-1.73-1.73-1.73c-0.96,0-1.73,0.78-1.73,1.73
		C26.93,23.86,27.71,24.64,28.66,24.64z"/>
</g>
</svg>
