<?xml version="1.0" encoding="utf-8"?>
<!-- Generator: Adobe Illustrator 24.0.0, SVG Export Plug-In . SVG Version: 6.00 Build 0)  -->
<svg version="1.1" id="图层_1" xmlns="http://www.w3.org/2000/svg" xmlns:xlink="http://www.w3.org/1999/xlink" x="0px" y="0px"
	 viewBox="0 0 40 40" style="enable-background:new 0 0 40 40;" xml:space="preserve">
<title>扩展插件配图设计</title>
<g id="_11._UART">
	<path d="M0.5,20.5v-6.2h2.3v6.4c0,2.4,0.8,3.2,2.1,3.2s2.2-0.8,2.2-3.2v-6.4h2.1v6.2c0,3.8-1.6,5.4-4.4,5.4S0.5,24.2,0.5,20.5z"/>
	<path d="M17.1,22.7h-3.7l-0.8,2.9h-2.3L14,14.2h2.7l3.6,11.3h-2.4L17.1,22.7z M16.6,20.9l-0.3-1.2c-0.3-1.2-0.7-2.5-1-3.7l0,0
		c-0.3,1.2-0.6,2.5-1,3.7L14,20.9H16.6z"/>
	<path d="M27.8,25.6l-2.3-4.2h-1.6v4.3h-2.3V14.2h4c2.4,0,4.3,0.8,4.3,3.4c0.1,1.5-0.8,2.8-2.2,3.3l2.7,4.6L27.8,25.6z M23.9,19.5
		h1.5c1.4,0,2.2-0.6,2.2-1.8S26.8,16,25.4,16h-1.5L23.9,19.5z"/>
	<path d="M34,16.1h-3.2v-1.9h8.7v1.9h-3.2v9.4H34V16.1z"/>
</g>
</svg>
