<?xml version="1.0" encoding="utf-8"?>
<!-- Generator: Adobe Illustrator 24.0.0, SVG Export Plug-In . SVG Version: 6.00 Build 0)  -->
<svg version="1.1" id="图层_1" xmlns="http://www.w3.org/2000/svg" xmlns:xlink="http://www.w3.org/1999/xlink" x="0px" y="0px"
	 viewBox="0 0 40 40" style="enable-background:new 0 0 40 40;" xml:space="preserve">
<title>扩展插件配图设计</title>
<g id="_41._OSC_协议">
	<path d="M0.5,20c0-4.8,2.7-7.6,6.6-7.6s6.6,2.8,6.6,7.6s-2.7,7.7-6.6,7.7S0.5,24.7,0.5,20z M10.6,20c0-3.2-1.4-5-3.6-5
		s-3.6,1.8-3.6,5s1.4,5.1,3.6,5.1S10.6,23.1,10.6,20z"/>
	<path d="M15.5,25.5l1.6-2c1,1,2.3,1.6,3.7,1.6c1.5,0,2.3-0.7,2.3-1.7s-0.9-1.4-2.2-2l-2-0.8c-1.7-0.5-2.9-2.1-3-3.9
		c0-2.4,2.1-4.3,5.1-4.3c1.7,0,3.4,0.7,4.6,2l-1.4,1.8c-0.9-0.8-2-1.2-3.1-1.2c-1.3,0-2.1,0.6-2.1,1.6s1.1,1.4,2.3,1.9l1.9,0.8
		c1.8,0.5,3,2.1,2.9,4c0,2.4-2,4.4-5.4,4.4C18.9,27.6,17,26.9,15.5,25.5z"/>
	<path d="M28.1,20c0-4.8,3.1-7.7,6.8-7.7c1.6,0,3.2,0.7,4.3,1.9l-1.6,1.9C37,15.3,36,14.9,35,14.8c-2.2,0-3.9,1.9-3.9,5.1
		s1.5,5.1,3.8,5.1c1.2,0,2.3-0.5,3-1.4l1.5,1.8c-1.2,1.4-2.9,2.2-4.7,2.2C31.2,27.6,28.1,25,28.1,20z"/>
</g>
</svg>
