<?xml version="1.0" encoding="utf-8"?>
<!-- Generator: Adobe Illustrator 24.0.0, SVG Export Plug-In . SVG Version: 6.00 Build 0)  -->
<svg version="1.1" id="图层_1" xmlns="http://www.w3.org/2000/svg" xmlns:xlink="http://www.w3.org/1999/xlink" x="0px" y="0px"
	 viewBox="0 0 40 40" style="enable-background:new 0 0 40 40;" xml:space="preserve">
<style type="text/css">
	.st0{fill:#0FBD8C;}
	.st1{fill:#FFFFFF;}
</style>
<title>扩展插件配图设计</title>
<g id="_32._微信">
	<rect class="st0" width="40" height="40"/>
	<path class="st1" d="M35.2,23.7c0-4.1-4-7.5-9.1-7.5s-9.1,3.4-9.1,7.5s4,7.5,9.1,7.5c1.1,0,2.2-0.2,3.3-0.5l2.7,1.5
		c0,0,0.1,0,0.1,0c0,0,0,0,0,0l-0.7-2.3l0,0C33.7,28.5,35.1,26.2,35.2,23.7L35.2,23.7z M22.9,22.3c-0.7,0-1.2-0.5-1.2-1.2
		c0-0.7,0.5-1.2,1.2-1.2c0.7,0,1.2,0.5,1.2,1.2C24.1,21.8,23.5,22.3,22.9,22.3L22.9,22.3z M29,22.3c-0.7,0-1.2-0.5-1.2-1.2
		c0,0,0-0.1,0-0.1c0.1-0.7,0.6-1.2,1.3-1.1c0.7,0.1,1.2,0.6,1.1,1.3C30.1,21.8,29.6,22.3,29,22.3L29,22.3z"/>
	<path class="st1" d="M25.5,15.7h0.4c-0.6-4.3-5-7.7-10.3-7.7C9.8,8,5.2,12,5.2,16.7c0.1,2.9,1.7,5.5,4.2,6.9l0,0l-0.8,2.7
		c0,0,0,0.1,0.1,0.1c0,0,0,0,0,0l3.1-1.7c1.2,0.4,2.5,0.6,3.8,0.6c0.4,0,0.8,0,1.2-0.1c-0.2-0.6-0.3-1.3-0.3-2
		C16.4,19.1,20.5,15.7,25.5,15.7L25.5,15.7z M19.3,12.3c0.8,0,1.4,0.6,1.4,1.3c0,0.8-0.6,1.4-1.3,1.4c-0.8,0-1.4-0.6-1.4-1.3
		c0,0,0,0,0,0C18,12.9,18.6,12.3,19.3,12.3L19.3,12.3z M12.3,15c-0.8,0-1.4-0.6-1.4-1.4c0-0.8,0.6-1.4,1.4-1.4
		c0.8,0,1.4,0.6,1.4,1.4C13.7,14.4,13.1,15,12.3,15z"/>
</g>
</svg>
