<?xml version="1.0" encoding="utf-8"?>
<!-- Generator: Adobe Illustrator 24.0.0, SVG Export Plug-In . SVG Version: 6.00 Build 0)  -->
<svg version="1.1" id="图层_1" xmlns="http://www.w3.org/2000/svg" xmlns:xlink="http://www.w3.org/1999/xlink" x="0px" y="0px"
	 viewBox="0 0 40 40" style="enable-background:new 0 0 40 40;" xml:space="preserve">
<style type="text/css">
	.st0{fill:#FFFFFF;}
</style>
<title>扩展插件配图设计</title>
<g id="_25._微软认知服务_1_">
	<g>
		<g>
			<path class="st0" d="M13.44,12.49h3.01c0.69,0,1.2,0.6,1.2,1.2v3.01c0,0.69-0.6,1.2-1.2,1.2h-3.01c-0.69,0-1.2-0.6-1.2-1.2v-3.01
				C11.89,13.26,12.75,12.49,13.44,12.49z"/>
		</g>
		<g>
			<path class="st0" d="M23.82,12.49h3.01c0.69,0,1.2,0.6,1.2,1.2v3.01c0,0.69-0.6,1.2-1.2,1.2h-3.01c-0.69,0-1.2-0.6-1.2-1.2v-3.01
				C22.46,13.26,23.15,12.49,23.82,12.49z"/>
		</g>
	</g>
	<path class="st0" d="M27.17,24.68c-0.43-0.43-1.12-0.52-1.37-0.09c-1.63,1.29-3.27,1.98-5.23,2.15c-1.98,0.09-4.21-0.69-6-2.15
		l-0.09-0.09c-0.43-0.17-1.03-0.17-1.29,0.17l-0.09,0.09c-0.17,0.43-0.17,1.03,0.17,1.37c1.89,1.63,4.38,2.49,7.12,2.49h0.17
		c2.41-0.09,4.64-1.03,6.52-2.49C27.35,25.62,27.52,25.03,27.17,24.68z"/>
	<path class="st0" d="M32.94,5.01H7.16c-0.6,0-1.12,0.34-1.63,0.77C5.1,6.21,4.93,6.64,5.02,7.15v25.77c0,1.2,0.86,2.06,2.06,2.06
		h25.68c1.2,0,2.06-1.12,2.23-2.23V6.98C35.08,5.95,34.13,5.01,32.94,5.01z M32.94,32.85H7.16V7.24h25.77V32.85z"/>
</g>
</svg>
