<?xml version="1.0" encoding="utf-8"?>
<!-- Generator: Adobe Illustrator 24.0.0, SVG Export Plug-In . SVG Version: 6.00 Build 0)  -->
<svg version="1.1" id="图层_1" xmlns="http://www.w3.org/2000/svg" xmlns:xlink="http://www.w3.org/1999/xlink" x="0px" y="0px"
	 viewBox="0 0 40 40" style="enable-background:new 0 0 40 40;" xml:space="preserve">
<style type="text/css">
	.st0{fill:#F5672E;}
	.st1{fill:#0D477D;}
</style>
<title>扩展插件配图设计</title>
<g id="_26._Blender">
	<path class="st0" d="M32.1,12.2l-10.5-8c-0.8-0.6-2-0.5-2.7,0.4c-0.6,0.8-0.5,2,0.4,2.7l5,3.8l-0.4,0.1H8.2c-1.1,0.1-1.8,1-1.7,2.1
		c0.1,0.9,0.8,1.7,1.7,1.7h8.2l-15,11.4c-1,0.6-1.2,1.9-0.6,2.9c0.6,1,1.9,1.2,2.9,0.6c0.1-0.1,0.2-0.1,0.3-0.2l9.2-7
		c0,0.3,0,0.6,0,0.9c0.2,7.1,6.1,12.8,13.2,12.7c7.1,0.1,13-5.6,13.1-12.7C39.5,18.6,36.6,14.2,32.1,12.2z M26.3,30.3
		c-4.3-0.2-7.6-3.8-7.4-8.1c0.2-4.3,3.8-7.6,8.1-7.4c4.2,0.2,7.4,3.6,7.4,7.7C34.3,26.9,30.7,30.4,26.3,30.3z"/>
	<ellipse class="st1" cx="26.3" cy="22.5" rx="5.1" ry="4.9"/>
</g>
</svg>
