<?xml version="1.0" encoding="utf-8"?>
<!-- Generator: Adobe Illustrator 24.0.0, SVG Export Plug-In . SVG Version: 6.00 Build 0)  -->
<svg version="1.1" id="图层_1" xmlns="http://www.w3.org/2000/svg" xmlns:xlink="http://www.w3.org/1999/xlink" x="0px" y="0px"
	 viewBox="0 0 40 40" style="enable-background:new 0 0 40 40;" xml:space="preserve">
<style type="text/css">
	.st0{fill:#0FBD8C;}
	.st1{fill:#F2F2F2;}
	.st2{fill:#909AB1;}
	.st3{fill:#FFBB43;}
	.st4{fill:#3A3A3A;}
	.st5{fill:#666666;}
	.st6{fill:#FFFFFF;}
</style>
<title>扩展插件配图设计</title>
<g id="_10._NetworkZero">
	<rect class="st0" width="40" height="40"/>
	<path class="st1" d="M6.5,6.5h27c0.7,0,1.2,0.5,1.2,1.2V25c0,0.7-0.5,1.2-1.2,1.2h-27c-0.7,0-1.2-0.5-1.2-1.2V7.7
		C5.3,7,5.9,6.5,6.5,6.5z"/>
	<path class="st2" d="M33.5,26.5h-27c-0.8,0-1.5-0.6-1.5-1.5c0,0,0,0,0,0V7.7c0-0.8,0.7-1.5,1.5-1.5c0,0,0,0,0,0h27
		c0.8,0,1.5,0.6,1.5,1.5c0,0,0,0,0,0V25C35,25.9,34.3,26.5,33.5,26.5C33.5,26.5,33.5,26.5,33.5,26.5z M6.5,6.8
		C6,6.8,5.6,7.2,5.6,7.6c0,0,0,0,0,0V25c0,0.5,0.4,0.9,0.9,0.9c0,0,0,0,0,0h27c0.5,0,0.9-0.4,0.9-0.9c0,0,0,0,0,0V7.7
		c0-0.5-0.4-0.9-0.9-0.9c0,0,0,0,0,0L6.5,6.8z"/>
	<path class="st3" d="M8.4,8.4h23.2c0.7,0,1.2,0.5,1.2,1.2v13.6c0,0.7-0.5,1.2-1.2,1.2H8.4c-0.7,0-1.2-0.5-1.2-1.2V9.6
		C7.2,8.9,7.8,8.4,8.4,8.4z"/>
	<rect x="18.3" y="26.2" class="st4" width="3.3" height="4.3"/>
	<path class="st2" d="M21.9,30.8H18v-4.9h3.9L21.9,30.8z M18.6,30.2h2.7v-3.7h-2.7V30.2z"/>
	<path class="st5" d="M10.8,30.5h18.3c0.8,0,1.5,0.7,1.5,1.5v0c0,0.8-0.7,1.5-1.5,1.5H10.8c-0.8,0-1.5-0.7-1.5-1.5v0
		C9.3,31.2,10,30.5,10.8,30.5z"/>
	<path class="st2" d="M29.1,33.8H10.8C9.8,33.8,9,33,9,32c0-1,0.8-1.8,1.8-1.8h18.3c1,0,1.8,0.8,1.8,1.8
		C30.9,33,30.1,33.8,29.1,33.8C29.1,33.8,29.1,33.8,29.1,33.8z M10.8,30.8c-0.7,0-1.2,0.5-1.2,1.2c0,0.7,0.5,1.2,1.2,1.2h18.3
		c0.7,0,1.2-0.5,1.2-1.2c0-0.7-0.5-1.2-1.2-1.2H10.8z"/>
	<path class="st6" d="M19.4,19.6L19.4,19.6c-0.2,0-0.4-0.2-0.4-0.4l-1-6l-1.3,5.1c0,0.2-0.2,0.3-0.4,0.3c-0.2,0-0.4-0.1-0.4-0.3
		l-0.8-3.5l-1.3,1.7c-0.1,0.1-0.2,0.2-0.3,0.2h-2.7c-0.2,0-0.3-0.1-0.4-0.2c0-0.2,0.1-0.3,0.2-0.4c0,0,0.1,0,0.1,0h2.7l1.4-1.9
		c0.1-0.2,0.4-0.2,0.6-0.1c0.1,0.1,0.1,0.1,0.2,0.2l0.7,3.1l1.3-5.2c0-0.2,0.2-0.3,0.4-0.3c0.2,0,0.4,0.2,0.4,0.3l1,6.1l1.1-4
		c0.1-0.2,0.2-0.3,0.4-0.3l0,0c0.2,0,0.4,0.1,0.4,0.3l0.8,3l1.3-3.1c0.1-0.2,0.3-0.3,0.5-0.2c0.1,0,0.2,0.1,0.2,0.2l1,2.2h4.1
		c0.2,0,0.3,0.1,0.4,0.2c0,0.2-0.1,0.3-0.2,0.4c0,0-0.1,0-0.1,0H25c-0.2,0-0.3-0.1-0.4-0.2L23.7,15l-1.3,3.2
		c-0.1,0.2-0.2,0.3-0.4,0.3c-0.2,0-0.3-0.1-0.4-0.3l-0.7-2.9l-1.1,4.2C19.7,19.5,19.5,19.6,19.4,19.6z"/>
</g>
</svg>
