<?xml version="1.0" encoding="utf-8"?>
<!-- Generator: Adobe Illustrator 24.0.0, SVG Export Plug-In . SVG Version: 6.00 Build 0)  -->
<svg version="1.1" id="图层_1" xmlns="http://www.w3.org/2000/svg" xmlns:xlink="http://www.w3.org/1999/xlink" x="0px" y="0px"
	 viewBox="0 0 40 40" style="enable-background:new 0 0 40 40;" xml:space="preserve">
<style type="text/css">
	.st0{fill:#1E74F2;}
	.st1{fill:#909AB1;}
	.st2{fill:#F7FCFF;}
	.st3{fill:#FF395A;}
	.st4{fill:#FFB93E;}
	.st5{fill:#ABEC4A;}
	.st6{opacity:0.5;enable-background:new    ;}
</style>
<title>扩展插件配图设计</title>
<g id="_27._浏览器控制器">
	<g>
		<path class="st0" d="M33.8,5.39H5.96c-0.82,0-1.55,0.98-1.55,2.2v2.61h31.18V7.59C35.43,6.37,34.78,5.39,33.8,5.39z"/>
		<path class="st1" d="M35.76,10.53H4.08V7.59c0-1.39,0.82-2.61,1.96-2.61h28c1.14,0,1.96,1.14,1.96,2.61v2.86h-0.24V10.53z
			 M4.73,9.8h30.29v-2.2c0-1.14-0.57-1.96-1.22-1.96H5.96c-0.65,0-1.22,0.82-1.22,1.96C4.73,7.59,4.73,9.8,4.73,9.8z"/>
	</g>
	<g>
		<path class="st2" d="M4.33,32.41c0,1.22,0.65,2.2,1.55,2.2H33.8c0.82,0,1.55-0.98,1.55-2.2V10.2H4.33
			C4.33,10.2,4.33,32.41,4.33,32.41z"/>
		<path class="st1" d="M33.8,35.02H5.96C4.82,35.02,4,33.88,4,32.41V9.8h31.84v22.61C35.76,33.96,34.94,35.02,33.8,35.02z
			 M4.73,10.53v21.88c0,0.98,0.57,1.96,1.22,1.96h28c0.65,0,1.22-0.82,1.22-1.96V10.53H4.73z"/>
	</g>
	<g>
		<circle class="st3" cx="8.33" cy="7.84" r="1.14"/>
	</g>
	<g>
		<circle class="st4" cx="11.51" cy="7.84" r="1.14"/>
	</g>
	<g>
		<circle class="st5" cx="14.69" cy="7.84" r="1.14"/>
	</g>
	<g class="st6">
		<path class="st0" d="M11.51,15.59h17.47c0.41,0,0.65,0.24,0.65,0.65v0.24c0,0.41-0.24,0.65-0.65,0.65H11.51
			c-0.41,0-0.65-0.24-0.65-0.65v-0.24C10.94,15.84,11.18,15.59,11.51,15.59z"/>
	</g>
	<g>
		<circle class="st3" cx="25.39" cy="16.41" r="2.2"/>
	</g>
	<g class="st6">
		<path class="st0" d="M11.51,21.39h17.47c0.41,0,0.65,0.24,0.65,0.65v0.24c0,0.41-0.24,0.65-0.65,0.65H11.51
			c-0.41,0-0.65-0.24-0.65-0.65v-0.24C10.94,21.63,11.18,21.39,11.51,21.39z"/>
	</g>
	<g>
		<circle class="st3" cx="15.35" cy="22.2" r="2.2"/>
	</g>
	<g class="st6">
		<path class="st0" d="M11.51,27.27h17.47c0.41,0,0.65,0.24,0.65,0.65v0.24c0,0.41-0.24,0.65-0.65,0.65H11.51
			c-0.41,0-0.65-0.24-0.65-0.65v-0.24C10.94,27.59,11.18,27.27,11.51,27.27z"/>
	</g>
	<g>
		<circle class="st3" cx="22.12" cy="28.16" r="2.2"/>
	</g>
</g>
</svg>
