<?xml version="1.0" encoding="utf-8"?>
<!-- Generator: Adobe Illustrator 24.0.0, SVG Export Plug-In . SVG Version: 6.00 Build 0)  -->
<svg version="1.1" id="图层_1" xmlns="http://www.w3.org/2000/svg" xmlns:xlink="http://www.w3.org/1999/xlink" x="0px" y="0px"
	 viewBox="0 0 40 40" style="enable-background:new 0 0 40 40;" xml:space="preserve">
<title>扩展插件配图设计</title>
<g id="_30._机甲大师_EP">
	<g id="bCE0BZ.tif">
		<path d="M16.3,13.4c-0.3,0.8-0.4,1.7-0.7,2.5c-0.1,0.3-0.6,0.4-0.8,0.4c-1.4,0-2.8,0-4.1,0c-0.7-0.1-1.4,0.4-1.5,1.1l0,0
			c-0.3,1.4-0.7,2.6-1,4c-0.1,0.7,0.1,1.1,0.8,1.1c1.8,0,3.5,0,5.3,0c1,0,1.2-0.6,1.5-1.4c0.8-3.2,1.8-6.4,2.6-9.7
			c0.3-1,0.3-2.2,1-2.8c0.7-0.6,1.9-0.1,2.9-0.1h3.2c-0.6,1.8-1,3.6-1.4,5.4c-0.8,2.9-1.7,5.8-2.5,8.6c-0.3,1.8-1.9,3.2-3.9,3
			c-5,0-10,0-14.9,0c-1.1,0.1-2.1-0.7-2.2-1.7c0-0.3,0-0.7,0.1-1c0.4-2.1,1.1-4.3,1.7-6.4c0.3-1.8,1.9-3.2,3.7-3.2
			C9.5,13.4,12.8,13.4,16.3,13.4z"/>
		<path d="M12.9,31.6l1.1-4.1l4.3-0.3c1.8,0,3.5-1.2,4-2.9c1.1-3.2,1.9-6.5,2.9-9.7c0.1-0.4,0.1-0.7,0.3-1.1h6.2
			c-0.3,1.1-0.6,2.2-0.8,3.3c-0.8,2.9-1.5,5.7-2.4,8.6c-1.1,4-3.6,6.2-7.9,6.2H12.9z"/>
		<path d="M30,25.7l3.3-12.3h6.2c-0.7,2.4-1.2,4.7-1.8,6.9c-0.4,1.5-0.8,3-1.2,4.6c0,0.6-0.6,1-1.1,0.8l0,0
			C33.7,25.7,31.9,25.7,30,25.7z"/>
	</g>
</g>
</svg>
