<?xml version="1.0" encoding="utf-8"?>
<!-- Generator: Adobe Illustrator 24.0.0, SVG Export Plug-In . SVG Version: 6.00 Build 0)  -->
<svg version="1.1" id="图层_1" xmlns="http://www.w3.org/2000/svg" xmlns:xlink="http://www.w3.org/1999/xlink" x="0px" y="0px"
	 viewBox="0 0 40 40" style="enable-background:new 0 0 40 40;" xml:space="preserve">
<style type="text/css">
	.st0{fill:#44484C;}
	.st1{fill:#F2F2F2;}
	.st2{fill:#29ABE2;}
</style>
<title>扩展插件配图设计</title>
<g id="_7._Cozmo">
	<g>
		<path class="st0" d="M11.79,6.62h16.49c3.53,0,6.49,2.87,6.49,6.49v15.83c0,2.54-2.05,4.51-4.51,4.51l0,0H9.83
			c-2.54,0-4.51-2.05-4.51-4.51l0,0V13.18C5.31,9.49,8.19,6.62,11.79,6.62z"/>
		<path class="st1" d="M30.26,34.69H9.83c-3.2,0-5.83-2.63-5.83-5.83V13.18c0-4.26,3.45-7.87,7.71-7.87h16.58
			c4.26,0,7.71,3.45,7.71,7.71v15.83C36.09,31.98,33.38,34.69,30.26,34.69z M11.79,7.86c-2.87,0-5.17,2.38-5.17,5.34v15.67
			c0,1.89,1.39,3.29,3.29,3.29h20.35c1.89,0,3.29-1.39,3.29-3.29V13.02c0-2.87-2.3-5.17-5.17-5.17C28.38,7.86,11.79,7.86,11.79,7.86
			z"/>
	</g>
	<g>
		<path class="st2" d="M14.42,12.45h2.05c0.99,0,1.89,0.9,1.89,1.89v2.38c0,0.99-0.9,1.89-1.89,1.89h-2.05
			c-0.99,0-1.89-0.9-1.89-1.89v-2.38C12.54,13.27,13.27,12.45,14.42,12.45z"/>
	</g>
	<g>
		<path class="st2" d="M23.78,12.45h2.05c0.99,0,1.89,0.9,1.89,1.89v3.69c0,0.99-0.9,1.89-1.89,1.89h-2.05
			c-0.99,0-1.89-0.9-1.89-1.89v-3.69C21.89,13.27,22.79,12.45,23.78,12.45z"/>
	</g>
</g>
</svg>
