<?xml version="1.0" encoding="utf-8"?>
<!-- Generator: Adobe Illustrator 24.0.0, SVG Export Plug-In . SVG Version: 6.00 Build 0)  -->
<svg version="1.1" id="图层_1" xmlns="http://www.w3.org/2000/svg" xmlns:xlink="http://www.w3.org/1999/xlink" x="0px" y="0px"
	 viewBox="0 0 40 40" style="enable-background:new 0 0 40 40;" xml:space="preserve">
<style type="text/css">
	.st0{fill:#231815;}
	.st1{fill:#FC5647;}
</style>
<title>扩展插件配图设计</title>
<g id="_20._PoseNet">
	<g>
		<path class="st0" d="M5.6,36.6H2.4c-1,0-1.9-0.9-1.9-1.7v-2.8c0-0.4,0.3-0.7,0.7-0.7l0,0c0.4,0,0.7,0.3,0.7,0.7l0,0v2.8
			c0,0.3,0.1,0.4,0.4,0.4h3.2c0.4,0,0.7,0.3,0.7,0.7S6,36.8,5.6,36.6L5.6,36.6z"/>
	</g>
	<g>
		<path class="st0" d="M1.2,8.7C0.8,8.7,0.5,8.4,0.5,8l0,0V5.2c0-1,0.9-1.9,1.9-1.7h3.2c0.4,0,0.7,0.3,0.7,0.7S6,4.9,5.6,4.9H2.4
			C2.1,4.9,2,5,2,5.3v2.8C2,8.4,1.7,8.7,1.2,8.7z"/>
	</g>
	<g>
		<path class="st0" d="M37.6,36.6h-3.2c-0.4,0-0.7-0.3-0.7-0.7s0.3-0.7,0.7-0.7h3.2c0.3,0,0.4-0.1,0.4-0.4V32c0-0.4,0.3-0.7,0.7-0.7
			l0,0c0.4,0,0.7,0.3,0.7,0.7l0,0v2.8C39.5,35.7,38.6,36.6,37.6,36.6L37.6,36.6z"/>
	</g>
	<g>
		<path class="st0" d="M38.8,8.7c-0.4,0-0.7-0.3-0.7-0.7l0,0V5.2c0-0.3-0.1-0.4-0.4-0.4h-3.2c-0.4,0-0.7-0.3-0.7-0.7
			s0.3-0.7,0.7-0.7h3.2c1,0,1.9,0.9,1.9,1.7v2.8C39.5,8.4,39.2,8.7,38.8,8.7L38.8,8.7z"/>
	</g>
	<path class="st1" d="M31.9,12.3H8.4c-0.4,0-0.9,0.2-1.2,0.7c-0.3,0.2-0.4,0.7-0.4,1.1c0,0.2,0,0.4,0.1,0.7c0.2,0.7,0.9,1.1,1.7,1.1
		h5.9c0.8,0,1.1,0.6,1.1,1.1v16.3c0,0.4,0.2,0.9,0.4,1.1c0.3,0.3,0.8,0.7,1.2,0.7c0.9,0,1.8-0.8,1.8-1.8v-6c0-0.8,0.6-1.1,1.1-1.1
		s1,0.6,1,1.1v6c0,0.9,0.8,1.8,1.8,1.8c0.9,0,1.8-0.8,1.8-1.8V17c0-0.8,0.6-1.1,1.1-1.1h6c0.9,0,1.8-0.8,1.8-1.8
		C33.7,13.2,32.9,12.3,31.9,12.3z M33,14.2C33,14.2,33.1,14.2,33,14.2C33.1,14.2,33.1,14.2,33,14.2C33.1,14.2,33,14.2,33,14.2z"/>
	<circle class="st1" cx="20.1" cy="8" r="3.5"/>
</g>
</svg>
