<?xml version="1.0" encoding="utf-8"?>
<!-- Generator: Adobe Illustrator 24.0.0, SVG Export Plug-In . SVG Version: 6.00 Build 0)  -->
<svg version="1.1" id="图层_1" xmlns="http://www.w3.org/2000/svg" xmlns:xlink="http://www.w3.org/1999/xlink" x="0px" y="0px"
	 viewBox="0 0 40 40" style="enable-background:new 0 0 40 40;" xml:space="preserve">
<style type="text/css">
	.st0{fill:#0FBD8C;}
	.st1{fill:#FFFFFF;}
	.st2{fill:#909AB1;}
	.st3{fill:#3C6DD1;}
	.st4{fill:#F8D966;}
</style>
<title>扩展插件配图设计</title>
<g id="素材">
	<g>
		<rect class="st0" width="40" height="40"/>
	</g>
</g>
<g id="_19._图片分类">
	<g>
		<path class="st1" d="M33.6,14.5H6.4c-0.7,0-1.2,0.5-1.2,1.2v0.1l0.7,10l0.4,7.4c0.1,0.7,0.5,1.1,1.2,1.1h24.9
			c0.7,0,1.2-0.4,1.2-1.1l0.4-7.4l0.7-10C34.8,15.2,34.3,14.6,33.6,14.5C33.7,14.5,33.6,14.5,33.6,14.5z"/>
		<path class="st2" d="M7.5,34.7c-0.8,0-1.4-0.5-1.4-1.3L5,15.9v-0.1c0-0.4,0.1-0.8,0.4-1s0.7-0.4,1-0.4h27.2h0.1
			c0.4,0,0.8,0.2,1,0.5S35,15.6,35,16l-1.1,17.4c-0.1,0.8-0.8,1.3-1.5,1.3l0,0H7.5C7.6,34.7,7.5,34.7,7.5,34.7z M6.4,14.9
			c-0.2,0-0.4,0.1-0.7,0.2c-0.2,0.2-0.2,0.4-0.2,0.7c0,0,0,0,0,0.1l1.1,17.4c0,0.4,0.4,0.9,1,0.9l0,0h24.9c0.5,0,0.9-0.3,1-0.9
			l1.1-17.4c0-0.5-0.3-1-0.9-1c0,0,0,0-0.1,0H6.4L6.4,14.9z"/>
	</g>
	<g>
		<path class="st1" d="M31.8,16.2H8.2c-0.7,0-1.1,0.4-1.1,1.1l0.4,8.4c1.6,1.4,3.7,2.3,5.9,2.4c2.4,0.1,4.8-0.8,6.6-2.4
			c1.8-1.4,3.9-2.3,6.2-2.3s4.5,0.8,6.2,2.2l0.4-8.3C32.9,16.7,32.5,16.2,31.8,16.2L31.8,16.2z"/>
		<path class="st2" d="M13.8,28.4c-0.1,0-0.2,0-0.3,0c-2.2-0.1-4.55-1.08-6.15-2.58l-0.1-0.1l-0.4-8.5c0-0.8,0.85-1.32,1.45-1.32
			h23.6c0.8,0,1.3,0.7,1.3,1.4l-0.5,8.9l-0.4-0.3c-1.6-1.4-3.8-2.2-6-2.2H26c-2.2,0-4.4,0.8-6,2.2C18.5,27.6,16.2,28.4,13.8,28.4z
			 M7.8,25.6c1.5,1.3,3.5,2.2,5.6,2.3c2.4,0.1,4.6-0.8,6.4-2.3s4.1-2.3,6.4-2.3h0.1c2.2,0,4.3,0.7,5.9,2l0.4-7.9
			c0-0.4-0.3-0.8-0.8-0.8v-0.2v0.2H8.2c-0.4,0-0.9,0.3-0.9,0.9L7.8,25.6z"/>
	</g>
	<g>
		<path class="st3" d="M20,25.7c-1.8,1.6-4.2,2.5-6.6,2.4c-2.2-0.1-4.3-1-5.9-2.4l0.3,6.2c0.1,0.5,0.5,1,1.1,1h22c0.5,0,1-0.4,1.1-1
			l0.3-6.4c-1.8-1.4-3.9-2.3-6.2-2.2S21.8,24.3,20,25.7z"/>
		<path class="st2" d="M30.9,33.2L30.9,33.2h-22l0,0c-0.7,0-1.3-0.5-1.3-1.2l-0.39-7.13L7.6,25.4c1.6,1.4,3.6,2.2,5.8,2.3
			c2.4,0.1,4.6-0.8,6.4-2.3l0,0c1.8-1.4,4.1-2.3,6.4-2.3h0.1c2.3,0,4.6,0.8,6.4,2.3l0.05,0.05l-0.4,6.5
			C32.25,32.65,31.6,33.2,30.9,33.2z M7.8,26.4L8.1,32c0,0.4,0.4,0.7,0.8,0.7l0,0h22l0,0c0.4,0,0.8-0.3,0.8-0.8l0.3-6.1
			c-1.6-1.4-3.8-2.1-6-2.1s-4.3,0.8-5.9,2.2c-1.9,1.6-4.3,2.5-6.8,2.5C11.4,28.3,9.4,27.6,7.8,26.4z"/>
	</g>
	<g>
		<path class="st4" d="M14.7,20.5c0,1.3-1,2.4-2.3,2.4h-0.1c-1.3,0-2.4-1.1-2.5-2.4s0.9-2.4,2.2-2.4c0.1,0,0.1,0,0.2,0
			C13.6,18.1,14.7,19.2,14.7,20.5z"/>
		<path class="st2" d="M12.4,23.3C12.4,23.3,12.4,23.2,12.4,23.3c-1.5,0-2.7-1.2-2.8-2.6s1-2.6,2.5-2.7c0.1,0,0.1,0,0.2,0l0,0
			c1.5,0,2.7,1.2,2.8,2.7l0,0C15.1,22,14,23.2,12.4,23.3C12.6,23.2,12.4,23.3,12.4,23.3z M12.4,22.6L12.4,22.6c1.2,0,2.1-1,2.1-2.1
			c0-1.2-1.1-2.2-2.3-2.2l0,0h-0.1c-1.1,0-2,1-2,2.2C10.3,21.8,11.2,22.6,12.4,22.6L12.4,22.6z"/>
	</g>
	<g>
		<path class="st4" d="M7.2,9.8h25.6c0.7,0,1.2,0.5,1.2,1.2l0,0c0,0.7-0.5,1.2-1.2,1.2H7.2C6.5,12.2,6,11.7,6,11l0,0
			C6,10.4,6.5,9.8,7.2,9.8z"/>
		<path class="st2" d="M32.8,12.4H7.2c-0.8,0-1.4-0.7-1.4-1.4s0.7-1.4,1.4-1.4h25.6c0.8,0,1.4,0.7,1.4,1.4S33.6,12.4,32.8,12.4z
			 M7.2,10c-0.5,0-0.9,0.4-0.9,0.9s0.4,0.9,0.9,0.9h25.6c0.5,0,0.9-0.4,0.9-0.9S33.2,10,32.8,10H7.2z"/>
	</g>
	<g>
		<path class="st4" d="M9.2,5.4h21.7C31.5,5.4,32,6,32,6.6l0,0c0,0.7-0.5,1.2-1.2,1.2H9.2C8.5,7.8,8,7.3,8,6.6l0,0
			C8,6,8.5,5.4,9.2,5.4z"/>
		<path class="st2" d="M30.8,8.1H9.2c-0.8,0-1.4-0.7-1.4-1.4s0.7-1.4,1.4-1.4h21.7c0.8,0,1.4,0.7,1.4,1.4
			C32.3,7.4,31.6,8.1,30.8,8.1z M9.2,5.7c-0.4,0-0.9,0.4-0.9,1c0,0.5,0.4,0.9,0.9,0.9h21.7c0.5,0,0.9-0.4,0.9-0.9c0-0.4-0.4-1-0.9-1
			H9.2z"/>
	</g>
</g>
</svg>
