<?xml version="1.0" encoding="utf-8"?>
<!-- Generator: Adobe Illustrator 24.0.0, SVG Export Plug-In . SVG Version: 6.00 Build 0)  -->
<svg version="1.1" id="图层_1" xmlns="http://www.w3.org/2000/svg" xmlns:xlink="http://www.w3.org/1999/xlink" x="0px" y="0px"
	 viewBox="0 0 40 40" style="enable-background:new 0 0 40 40;" xml:space="preserve">
<style type="text/css">
	.st0{fill:#323538;}
	.st1{fill:#575757;}
	.st2{fill:#00FF00;}
</style>
<title>扩展插件配图设计</title>
<g id="_8._Vector">
	<g>
		<path class="st0" d="M12.23,7.46h15.54c3.31,0,6.08,2.69,6.08,6.08v14.85c0,2.38-1.92,4.23-4.23,4.23l0,0H10.47
			c-2.38,0-4.23-1.92-4.23-4.23l0,0V13.61C6.15,10.15,8.92,7.46,12.23,7.46z"/>
		<path class="st1" d="M29.54,33.78H10.47c-3,0-5.47-2.47-5.47-5.47v-14.7c0-4,3.24-7.39,7.23-7.39h15.54c4,0,7.23,3.24,7.23,7.23
			v14.85C35.01,31.23,32.54,33.78,29.54,33.78z M12.23,8.62c-2.69,0-4.85,2.23-4.85,5v14.7c0,1.77,1.3,3.08,3.08,3.08h19.08
			c1.77,0,3.08-1.3,3.08-3.08V13.46c0-2.69-2.16-4.85-4.85-4.85C27.77,8.62,12.23,8.62,12.23,8.62z"/>
	</g>
	<g>
		<path class="st2" d="M14.7,12.92h1.92c0.92,0,1.77,0.84,1.77,1.77v3.46c0,0.92-0.84,1.77-1.77,1.77H14.7
			c-0.92,0-1.77-0.84-1.77-1.77v-3.46C12.92,13.69,13.69,12.92,14.7,12.92z"/>
	</g>
	<g>
		<path class="st2" d="M23.47,12.92h1.92c0.92,0,1.77,0.84,1.77,1.77v3.46c0,0.92-0.84,1.77-1.77,1.77h-1.92
			c-0.92,0-1.77-0.84-1.77-1.77v-3.46C21.7,13.69,22.55,12.92,23.47,12.92z"/>
	</g>
</g>
</svg>
