<?xml version="1.0" encoding="utf-8"?>
<!-- Generator: Adobe Illustrator 24.0.0, SVG Export Plug-In . SVG Version: 6.00 Build 0)  -->
<svg version="1.1" id="图层_1" xmlns="http://www.w3.org/2000/svg" xmlns:xlink="http://www.w3.org/1999/xlink" x="0px" y="0px"
	 viewBox="0 0 40 40" style="enable-background:new 0 0 40 40;" xml:space="preserve">
<style type="text/css">
	.st0{fill:#0FBD8C;}
	.st1{fill:#FFFFFF;}
</style>
<title>扩展插件配图设计</title>
<g id="_30._机甲大师_EP">
	<rect class="st0" width="40" height="40"/>
	<g id="bCE0BZ.tif">
		<path class="st1" d="M16.8,14.5c-0.2,0.7-0.4,1.3-0.6,2.1c-0.1,0.2-0.5,0.4-0.7,0.4c-1.1,0-2.3,0-3.4,0c-0.6-0.1-1.1,0.4-1.2,0.9
			l0,0c-0.2,1.1-0.6,2.2-0.8,3.3c-0.1,0.6,0.1,0.9,0.7,0.9c1.5,0,2.8,0,4.3,0c0.8,0,1-0.5,1.2-1.1c0.7-2.6,1.5-5.2,2.2-7.9
			c0.2-0.8,0.2-1.8,0.8-2.3c0.6-0.5,1.6-0.3,2.4-0.3h2.6c-0.5,1.5-0.8,2.9-1.1,4.4c-0.7,2.4-1.3,4.8-2.1,7.1
			c-0.2,1.5-1.6,2.6-3.2,2.5c-4,0-8.2,0-12.2,0C4.7,24.7,4,24,3.9,23.3c0-0.2,0-0.6,0.1-0.8c0.4-1.7,0.9-3.5,1.3-5.2
			c0.2-1.5,1.6-2.6,3.1-2.6C11.2,14.5,14,14.5,16.8,14.5z"/>
		<path class="st1" d="M14.2,29.4l0.9-3.4l3.5-0.2c1.5,0,2.8-1,3.3-2.4c0.9-2.6,1.6-5.4,2.4-7.9c0.1-0.4,0.1-0.6,0.2-0.9h5.1
			c-0.2,0.9-0.5,1.8-0.7,2.7c-0.7,2.4-1.2,4.6-1.9,7.1c-0.9,3.3-2.9,5.1-6.5,5.1L14.2,29.4L14.2,29.4z"/>
		<path class="st1" d="M28.1,24.7l2.7-10.1h5.1c-0.6,1.9-1,3.9-1.5,5.6c-0.4,1.2-0.7,2.5-1,3.8c0,0.5-0.5,0.8-0.9,0.7l0,0
			C31.1,24.7,29.7,24.7,28.1,24.7z"/>
	</g>
</g>
</svg>
