<?xml version="1.0" encoding="utf-8"?>
<!-- Generator: Adobe Illustrator 24.0.0, SVG Export Plug-In . SVG Version: 6.00 Build 0)  -->
<svg version="1.1" id="图层_1" xmlns="http://www.w3.org/2000/svg" xmlns:xlink="http://www.w3.org/1999/xlink" x="0px" y="0px"
	 viewBox="0 0 40 40" style="enable-background:new 0 0 40 40;" xml:space="preserve">
<style type="text/css">
	.st0{fill:#0FBD8C;}
	.st1{fill:#44484C;}
	.st2{fill:#F2F2F2;}
	.st3{fill:#29ABE2;}
</style>
<title>扩展插件配图设计</title>
<g id="_7._Cozmo">
	<g>
		<rect class="st0" width="40" height="40"/>
	</g>
	<g>
		<path class="st1" d="M12.2,7.4h15.5c3.3,0,6,2.7,6,6v14.8c0,2.4-1.9,4.3-4.3,4.3l0,0H10.5c-2.4,0-4.3-1.9-4.3-4.3l0,0V13.6
			C6.2,10.2,8.9,7.4,12.2,7.4z"/>
		<path class="st2" d="M29.5,33.8H10.5c-3,0-5.5-2.5-5.5-5.5V13.6c0-4,3.2-7.4,7.2-7.4h15.5c4,0,7.2,3.2,7.2,7.2v14.8
			C35,31.3,32.5,33.8,29.5,33.8z M12.2,8.6c-2.7,0-4.9,2.3-4.9,5v14.7c0,1.8,1.3,3.1,3.1,3.1h19.1c1.8,0,3.1-1.3,3.1-3.1V13.5
			c0-2.7-2.1-4.9-4.9-4.9H12.2z"/>
	</g>
	<g>
		<path class="st3" d="M14.7,12.9h1.9c0.9,0,1.8,0.8,1.8,1.8v2.3c0,0.9-0.8,1.8-1.8,1.8h-1.9c-0.9,0-1.8-0.8-1.8-1.8v-2.3
			C12.9,13.7,13.7,12.9,14.7,12.9z"/>
	</g>
	<g>
		<path class="st3" d="M23.5,12.9h1.9c0.9,0,1.8,0.8,1.8,1.8v3.4c0,0.9-0.8,1.8-1.8,1.8h-1.9c-0.9,0-1.8-0.8-1.8-1.8v-3.4
			C21.7,13.7,22.5,12.9,23.5,12.9z"/>
	</g>
</g>
</svg>
