<?xml version="1.0" encoding="utf-8"?>
<!-- Generator: Adobe Illustrator 24.0.0, SVG Export Plug-In . SVG Version: 6.00 Build 0)  -->
<svg version="1.1" id="图层_1" xmlns="http://www.w3.org/2000/svg" xmlns:xlink="http://www.w3.org/1999/xlink" x="0px" y="0px"
	 viewBox="0 0 40 40" style="enable-background:new 0 0 40 40;" xml:space="preserve">
<style type="text/css">
	.st0{fill:#1A1A1A;}
	.st1{fill:#FFFFFF;}
	.st2{fill:#F2F2F2;}
</style>
<title>扩展插件配图设计</title>
<g id="_23._YOLO">
	<path class="st0" d="M22.48,29.18c-0.22,0-0.33-0.11-0.45-0.22c-0.11-0.11-0.11-0.33,0-0.45l0.45-0.67
		c0.33-0.56,0.56-1.11,0.78-1.67c0.56-1.45,0.56-2.56,0.45-7.34c0-0.56,0-1.11,0-1.56c-0.33,0.11-0.67,0.22-1.11,0.33h-0.11
		c-0.11,0-0.22,0-0.22-0.11c-0.11-0.11-0.22-0.22-0.22-0.33v-0.56c0-0.22,0.11-0.33,0.33-0.45c0.45-0.11,0.78-0.22,1.22-0.33l0,0
		h-3.23c-0.22,0-0.45-0.22-0.45-0.45l0,0v-0.89c0-0.22,0.22-0.45,0.45-0.45l0,0h3c-0.11-0.33-0.22-0.67-0.45-0.89
		c-0.33-0.56-0.67-1-1.11-1.45l-0.33-0.45c-0.11-0.11-0.11-0.33,0-0.45c0.11-0.11,0.22-0.22,0.45-0.22l0,0
		c1.22,0,2.56,0.11,3.78,0.11s2.56,0,3.78-0.11l0,0c0.22,0,0.05,0.01,0.16,0.24l0.19,0.41c-0.05,0.02-0.3-0.25-0.04,0.37
		c-0.11,0.11,0.13,0.32-0.09,0.32c-0.56,0.11-1,0.45-1.45,0.78c-0.45,0.45-0.78,0.89-0.89,1.45h3.89c0.22,0,0.45,0.22,0.45,0.45
		v0.67c0,0.22-0.22,0.45-0.45,0.45h-3.34c0.56,0.11,1,0.22,1.45,0.45c0.22,0.11,0.33,0.22,0.33,0.45v0.56
		c0,0.11-0.11,0.33-0.22,0.33c-0.11,0.11-0.22,0.11-0.22,0.11h-0.11c-0.78-0.22-1.45-0.45-2.23-0.56c0,1.11,0,2.34,0.11,3.45
		c0.11,1.45,0.22,2.89,0.22,4.23c0.22,0.11,0.56,0.11,0.78,0.11c0.56,0,1.11-0.11,1.56-0.56c0.22-0.22,0.45-0.56,0.56-0.89
		c0-0.11,0-0.22,0-0.33c0-0.33,0.11-0.56,0.33-0.78c0.11,0,0.22-0.11,0.33-0.11c0.22,0,0.56,0.11,0.78,0.33
		c0.22,0.22,0.45,0.45,0.67,0.67c0.11,0.11,0.11,0.22,0.11,0.22v4.56c0,0.22-0.11,0.45-0.33,0.45c-0.56,0.11-1.22,0.22-1.89,0.33
		s-0.78,0.11-1.45,0.11l-1.56,0.11l-1.34,0.11l-1.34,0.11H22.48L22.48,29.18z"/>
	<path class="st1" d="M29.49,10.93l0.11,0.45c-0.56,0.11-1.22,0.45-1.67,0.89c-0.67,0.67-1,1.45-1.22,2.34h4.56v0.67h-4.67
		c0,0.33-0.11,0.56-0.11,0.67c1,0.11,1.89,0.22,2.78,0.67v0.56c-0.89-0.33-1.89-0.56-2.89-0.56c-0.11,1.34,0,2.67,0.11,4.12
		c0.11,1.45,0.22,3,0.11,4.45c0.45,0.11,0.78,0.22,1.22,0.22c0.67,0,1.34-0.22,1.89-0.67c0.33-0.33,0.56-0.78,0.67-1.22
		c0-0.33,0-0.67,0.11-0.67h0.11c0.22,0,0.33,0.11,0.45,0.22c0.22,0.11,0.33,0.33,0.56,0.56v4.56c-0.45,0.11-1,0.22-1.89,0.33
		c-0.78,0.11-1,0.11-2.67,0.11c-1.45,0.11-1.56,0.11-2.67,0.11c-1,0-1.56,0-2,0l0.45-0.67c0.33-0.56,0.56-1.11,0.78-1.78
		c0.56-1.56,0.67-2.67,0.45-7.57c0-0.78,0-1.45-0.11-2.11c-0.56,0.11-1.11,0.22-1.67,0.45V16.5c0.56-0.22,1.11-0.33,1.56-0.45
		c0-0.33,0-0.56-0.11-0.89h-3.67v-0.67h3.56c-0.11-0.56-0.33-1.11-0.56-1.56c-0.33-0.56-0.78-1.11-1.22-1.56l-0.33-0.33
		c1.22,0.11,2.45,0.11,3.78,0.11h0.11C27.04,10.93,28.26,10.93,29.49,10.93 M21.81,9.93c-0.56,0-0.89,0.33-1,0.78
		c0,0.33,0.11,0.56,0.33,0.78l0.11,0.22l0.22,0.22v0.11c0.45,0.45,0.78,0.89,1,1.34l0.11,0.22h-2.23c-0.56,0-0.89,0.45-0.89,0.89
		v0.67c0,0.56,0.45,0.89,0.89,0.89h1.34c-0.11,0.11-0.11,0.22-0.11,0.45v0.56c0,0.45,0.45,0.89,0.89,0.89l0,0c0.11,0,0.22,0,0.33,0
		l0.56-0.11c0,0.33,0,0.56,0,1c0.11,4.78,0.11,5.79-0.45,7.23c-0.22,0.56-0.45,1.11-0.78,1.56l-0.45,0.56
		c-0.22,0.33-0.22,0.67-0.11,1c0.11,0.33,0.45,0.45,0.78,0.45l0,0c0.45,0,1.11,0,2,0h1.34l1.34-0.11l1.22-0.11c0.45,0,1,0,1.45-0.11
		c0.67-0.11,1.34-0.22,1.89-0.33c0.45-0.11,0.78-0.45,0.78-0.89v-4.67c0-0.22-0.11-0.33-0.22-0.56c-0.22-0.33-0.45-0.56-0.78-0.78
		c-0.22-0.22-0.67-0.45-1-0.45c-0.22,0-0.33,0-0.56,0.11c-0.45,0.22-0.67,0.78-0.56,1.22c0,0.11,0,0.11,0,0.22l0,0
		c-0.11,0.22-0.22,0.45-0.45,0.67c-0.33,0.33-0.78,0.45-1.22,0.33h-0.33c0-1.34,0-2.56-0.22-3.78v-0.11c-0.11-1-0.11-2-0.11-2.89
		c0.56,0.11,1.11,0.22,1.67,0.45c0.11,0,0.22,0,0.33,0c0.45,0,0.89-0.45,0.89-0.89l0,0v-0.56c0-0.11,0-0.33-0.11-0.45h1.11
		c0.45,0,0.89-0.45,0.89-0.89v-0.56c0-0.56-0.45-0.89-0.89-0.89h-3.23c0.11-0.22,0.33-0.45,0.56-0.67c0.33-0.33,0.78-0.56,1.22-0.67
		c0.22-0.11,0.45-0.22,0.56-0.45c0.11-0.22,0.11-0.56,0-0.78l-0.11-0.11l-0.11-0.22c-0.11-0.33-0.45-0.56-0.89-0.56l0,0
		c-1.22,0.11-2.45,0.11-3.67,0.11h0.45C24.37,10.15,23.14,10.15,21.81,9.93L21.81,9.93z"/>
	<path class="st0" d="M18.14,25.17c-2.89,0-5.34-2.78-5.34-6.23s2.34-6.23,5.34-6.23s5.34,2.78,5.34,6.23S21.03,25.17,18.14,25.17z"
		/>
	<path class="st1" d="M18.14,13.16c2.67,0,4.9,2.56,4.9,5.79s-2.23,5.79-4.9,5.79s-4.9-2.56-4.9-5.79S15.47,13.16,18.14,13.16
		 M18.14,12.27c-3.23,0-5.79,3-5.79,6.68s2.56,6.68,5.79,6.68s5.79-3,5.79-6.68S21.25,12.27,18.14,12.27z"/>
	<path class="st0" d="M33.71,25.17c-2.89,0-5.34-2.78-5.34-6.23s2.45-6.23,5.34-6.23s5.34,2.78,5.34,6.23S36.72,25.17,33.71,25.17z"
		/>
	<path class="st1" d="M33.71,13.16c2.67,0,4.9,2.56,4.9,5.79s-2.23,5.79-4.9,5.79c-2.67,0-4.9-2.56-4.9-5.79
		S31.04,13.16,33.71,13.16 M33.71,12.27c-3.23,0-5.79,3-5.79,6.68s2.56,6.68,5.79,6.68s5.79-3,5.79-6.68S36.94,12.27,33.71,12.27
		L33.71,12.27z"/>
	<path class="st2" d="M16.69,16.38c-1.11,1.67-1.22,1.78-1.34,1.78c-0.33-0.11-0.45-1.34,0-2.23c0-0.11,0.67-1.34,1.56-1.34
		c0.22,0,0.45,0.11,0.56,0.22C17.58,15.05,17.36,15.49,16.69,16.38z"/>
	<path class="st2" d="M32.04,16.38c-1.11,1.67-1.22,1.78-1.34,1.78c-0.33-0.11-0.45-1.34,0-2.23c0-0.11,0.67-1.34,1.56-1.34
		c0.11,0,0.45,0,0.56,0.22C32.94,15.05,32.71,15.49,32.04,16.38z"/>
	<path class="st0" d="M5.34,29.62c-0.22,0-0.33-0.11-0.45-0.33l-0.11-0.33c-0.11-0.22,0-0.45,0.22-0.56c1.11-0.45,2-1.34,2.34-2.56
		v-0.11c0.11-0.78,0-1.56-0.22-2.34c-0.11-0.45-0.33-0.78-0.56-1.22c-0.45-1-1-2-1.45-3c-0.56-1-1-2-1.45-3
		C3.56,15.83,3.34,15.6,3,15.38c-0.33-0.33-0.67-0.45-1.11-0.56c-0.11,0-0.33-0.11-0.33-0.22l-0.45-0.67C1,13.82,1,13.6,1.11,13.49
		c0-0.11,0.22-0.22,0.33-0.22l0,0c0.45,0,1.89,0.11,3,0.11h3.12h0.56l0,0c0.22,0,0.33,0.11,0.45,0.22c0.11,0.22,0.11,0.33-0.11,0.56
		l-0.22,0.33c-0.22,0.33-0.33,0.67-0.33,1c-0.11,1.11,0.22,2.23,1,3c0.45-0.56,0.78-1.22,1.11-1.89c0.56-1,0.78-2.23,0.45-3.45
		c-0.11-0.22-0.22-0.33-0.33-0.56l-0.89-0.22c-0.22,0-0.33-0.22-0.33-0.45v-0.56c0-0.11,0.11-0.33,0.22-0.33
		c0.11-0.11,0.22-0.11,0.22-0.11h0.11c0,0,0.33,0,1.89,0h1.56h1.22h2.34l0,0c0.11,0,0.22,0.11,0.33,0.11
		c0.11,0.11,0.11,0.22,0.11,0.45l-0.11,0.56c0,0.11-0.11,0.22-0.33,0.33c-0.33,0.11-0.67,0.33-0.89,0.45
		c-0.89,0.67-1.67,1.67-2.23,2.67c-1,1.67-1.89,3.45-2.45,5.23c-0.22,0.56-0.33,1.22-0.33,1.89c-0.11,1,0,2,0.22,3
		c0,0.11,0,0.22,0.11,0.33c0,0.11,0.22,0.22,0.45,0.45c0.33,0.22,0.67,0.45,1.11,0.56c0.22,0.11,0.33,0.22,0.33,0.45v0.33
		c0,0.22-0.11,0.33-0.33,0.45L8.9,28.85L5.34,29.62L5.34,29.62z"/>
	<path class="st1" d="M16.69,11.38c0,0.22-0.11,0.33-0.11,0.56c-0.33,0.11-0.67,0.33-1,0.45c-1,0.67-1.78,1.67-2.34,2.78
		c-1.11,1.67-1.89,3.45-2.56,5.34c-0.22,0.67-0.33,1.34-0.45,2c-0.11,1.11,0,2.11,0.33,3.23c0,0.11,0,0.22,0.11,0.33
		c0.11,0.33,0.33,0.56,0.67,0.67c0.33,0.22,0.78,0.45,1.11,0.56v0.33L8.9,28.4l-3.67,0.78c0-0.11-0.11-0.22-0.11-0.33
		c1.22-0.56,2.23-1.56,2.67-2.78v-0.22c0.11-0.89,0-1.67-0.22-2.45c-0.11-0.45-0.33-0.89-0.56-1.34c-1-2-2-4.01-3-6.01
		c-0.22-0.33-0.45-0.67-0.78-0.89c-0.33-0.33-0.89-0.56-1.34-0.67l-0.45-0.67c0.45,0,1.89,0.11,3.12,0.11h2.23h0.89
		c0.22,0,0.45,0,0.56,0L7.9,14.27c-0.22,0.33-0.45,0.78-0.45,1.22c-0.11,1.45,0.45,2.78,1.45,3.78c0.67-0.78,1.11-1.56,1.45-2.45
		c0.67-1.11,0.78-2.45,0.45-3.78c-0.11-0.33-0.33-0.56-0.45-0.78l-1-0.22v-0.56c0.67,0.11,1.45,0.11,2.11,0.11h1.56
		C13.46,11.49,16.47,11.49,16.69,11.38 M8.23,13.82L8.23,13.82 M16.69,10.49L16.69,10.49h-2.34h-1.22h-1.56c-1.45,0-1.78,0-1.89,0
		H9.46c-0.22,0-0.33,0.11-0.56,0.22c-0.22,0.22-0.33,0.45-0.33,0.78v0.56c0,0.45,0.33,0.78,0.78,0.89l0.67,0.11
		c0,0.11,0,0.22,0,0.33c0.22,1,0.11,2.11-0.45,3c-0.22,0.45-0.45,0.78-0.67,1.22c-0.45-0.56-0.67-1.34-0.56-2.11
		c0-0.33,0.11-0.56,0.33-0.89l0.22-0.33c0.33-0.33,0.33-0.89,0-1.34c-0.22-0.22-0.45-0.22-0.67-0.22H8.12H7.57H6.68H4.45
		c-1.11,0-2.34-0.11-3-0.11l0,0c-0.33,0-0.67,0.22-0.78,0.45c-0.22,0.33-0.22,0.67,0,1l0.22,0.45l0.22,0.33
		c0.11,0.22,0.45,0.45,0.78,0.45c0.33,0.11,0.56,0.22,0.89,0.45c0.22,0.11,0.33,0.33,0.56,0.56c0.45,1,1,2,1.56,3c0.56,1,1,2,1.45,3
		c0.22,0.33,0.33,0.78,0.56,1.22c0.22,0.67,0.22,1.45,0.22,2.11l0,0v0.11c-0.33,1-1.11,1.78-2.11,2.23
		c-0.45,0.22-0.56,0.67-0.45,1.11L4.45,29.4c0.11,0.45,0.45,0.67,0.89,0.67h0.22l3.67-0.78l3.56-0.78c0.45-0.11,0.67-0.45,0.67-0.89
		v-0.33c0-0.33-0.22-0.78-0.56-0.89c-0.33-0.11-0.67-0.33-1-0.56c-0.22-0.11-0.33-0.22-0.33-0.22c0-0.11,0-0.11,0-0.22
		c-0.22-0.89-0.33-1.89-0.22-2.89c0.11-0.56,0.22-1.22,0.33-1.78c0.56-1.78,1.45-3.56,2.45-5.12c0.45-1,1.11-1.89,2-2.56
		c0.22-0.11,0.56-0.33,0.78-0.45c0.33-0.11,0.45-0.33,0.56-0.67l0.11-0.67c0.11-0.33,0-0.67-0.22-0.89
		C17.13,10.49,16.91,10.38,16.69,10.49L16.69,10.49z"/>
</g>
</svg>
