<?xml version="1.0" encoding="utf-8"?>
<!-- Generator: Adobe Illustrator 24.0.0, SVG Export Plug-In . SVG Version: 6.00 Build 0)  -->
<svg version="1.1" id="图层_1" xmlns="http://www.w3.org/2000/svg" xmlns:xlink="http://www.w3.org/1999/xlink" x="0px" y="0px"
	 viewBox="0 0 40 40" style="enable-background:new 0 0 40 40;" xml:space="preserve">
<style type="text/css">
	.st0{fill:#D1D1D1;}
	.st1{fill:#BABABA;}
	.st2{fill:#F3F3F3;}
	.st3{fill:#FFFFFF;}
	.st4{fill:#3A3A3A;}
</style>
<title>扩展插件配图设计</title>
<g>
	<g>
		<ellipse transform="matrix(0.0883 -0.9961 0.9961 0.0883 7.102 57.2665)" class="st0" cx="34.83" cy="24.75" rx="6.03" ry="2.1"/>
		<path class="st1" d="M30.39,23.85c-0.17,1.57-0.44,4.54,1.49,6.12c0.61,0.52,1.83,1.22,2.53,0.79c0.87-0.61-0.26-2.53,0-5.85
			c0.26-3.58,2.01-5.24,1.05-6.2c-0.61-0.61-1.92-0.44-2.71-0.09C30.74,19.57,30.48,22.19,30.39,23.85z"/>
	</g>
	<g>
		<ellipse transform="matrix(0.0883 -0.9961 0.9961 0.0883 6.7811 56.9456)" class="st0" cx="34.5" cy="24.77" rx="6.03" ry="2.1"/>
		<path class="st1" d="M30.04,23.85c-0.17,1.57-0.44,4.54,1.49,6.12c0.61,0.52,1.83,1.22,2.53,0.79c0.87-0.61-0.26-2.53,0-5.85
			c0.26-3.58,2.01-5.24,1.05-6.2c-0.61-0.61-1.92-0.44-2.71-0.09C30.48,19.57,30.22,22.19,30.04,23.85z"/>
	</g>
	<g>
		<ellipse transform="matrix(0.9961 -0.0883 0.0883 0.9961 -2.1629 0.5509)" class="st0" cx="5.15" cy="24.72" rx="2.1" ry="6.03"/>
		<path class="st1" d="M9.6,23.85c0.17,1.57,0.44,4.54-1.49,6.12c-0.61,0.52-1.83,1.22-2.53,0.79c-0.87-0.61,0.26-2.53,0-5.85
			c-0.26-3.58-2.01-5.24-1.05-6.2c0.61-0.61,1.92-0.44,2.71-0.09C9.25,19.57,9.52,22.19,9.6,23.85z"/>
	</g>
	<g>
		<ellipse transform="matrix(0.9961 -0.0883 0.0883 0.9961 -2.1625 0.5587)" class="st0" cx="5.23" cy="24.72" rx="2.1" ry="6.03"/>
		<path class="st1" d="M9.78,23.85c0.17,1.57,0.44,4.54-1.49,6.12c-0.61,0.52-1.83,1.22-2.53,0.79c-0.87-0.61,0.26-2.53,0-5.85
			c-0.26-3.58-2.01-5.24-1.05-6.2c0.61-0.61,1.92-0.44,2.71-0.09C9.34,19.57,9.6,22.19,9.78,23.85z"/>
	</g>
	<g>
		<path class="st1" d="M22.88,34.07h-6.2c-5.77,0-10.48-4.72-10.48-10.48v-5.94c0-2.27,1.83-4.19,4.19-4.19h19.22
			c2.1,0,3.76,1.66,3.76,3.76v6.38C33.36,29.35,28.65,34.07,22.88,34.07z"/>
		<path class="st2" d="M22.44,34.59h-5.15c-5.24,0-9.52-4.28-9.52-9.52v-5.68c0-2.01,1.75-3.76,3.84-3.76h16.95
			c1.83,0,3.41,1.49,3.41,3.41v6.12C31.97,30.4,27.69,34.59,22.44,34.59z"/>
	</g>
	<g>
		<circle class="st1" cx="13.62" cy="23.76" r="3.84"/>
		<circle class="st3" cx="13.8" cy="23.76" r="3.14"/>
		<circle class="st4" cx="13.97" cy="23.68" r="2.27"/>
		<circle class="st1" cx="26.2" cy="23.76" r="3.84"/>
		<circle class="st3" cx="25.94" cy="23.76" r="3.14"/>
		<circle class="st4" cx="25.76" cy="23.68" r="2.27"/>
		<circle class="st3" cx="12.66" cy="22.36" r="0.44"/>
		<circle class="st3" cx="24.37" cy="22.19" r="0.44"/>
	</g>
	<g>
		<g>
			<path class="st0" d="M24.28,14.07c-0.87,2.8-1.66,5.42-4.72,5.33c-3.06-0.09-3.84-2.62-4.63-5.5c-0.61-2.1-1.75-4.54-0.09-6.46
				c1.66-1.92,4.8-1.92,4.89-1.92c1.92,0,3.84,0.79,4.98,2.01C26.38,9.44,25.07,11.79,24.28,14.07z"/>
		</g>
		<path class="st0" d="M30.39,16.42c-2.62,2.45-7.16,2.88-8.12,1.49c-0.52-0.87,1.31-1.83,2.1-5.24c0.61-2.62-0.09-3.67,0.61-4.19
			c1.57-1.14,7.16,2.01,6.99,5.24C31.97,15.03,31.01,15.9,30.39,16.42z"/>
		<path class="st0" d="M9.08,16.42c2.62,2.45,7.16,2.88,8.12,1.49c0.52-0.87-1.31-1.83-2.1-5.24C14.5,10.05,15.19,9,14.5,8.48
			c-1.57-1.14-7.16,2.01-6.99,5.24C7.51,15.03,8.47,15.9,9.08,16.42z"/>
	</g>
	<path class="st4" d="M19.74,18.35L19.74,18.35c-0.79,0-1.66-0.44-1.83-1.14l-0.44-1.14c-0.52-1.4,0.44-3.14,2.27-3.14l0,0
		c1.83,0,2.8,1.75,2.27,3.14l-0.44,1.14C21.4,17.91,20.52,18.35,19.74,18.35z"/>
</g>
</svg>
