<?xml version="1.0" encoding="utf-8"?>
<!-- Generator: Adobe Illustrator 24.0.0, SVG Export Plug-In . SVG Version: 6.00 Build 0)  -->
<svg version="1.1" id="图层_1" xmlns="http://www.w3.org/2000/svg" xmlns:xlink="http://www.w3.org/1999/xlink" x="0px" y="0px"
	 viewBox="0 0 40 40" style="enable-background:new 0 0 40 40;" xml:space="preserve">
<style type="text/css">
	.st0{fill:#FFFFFF;}
</style>
<title>扩展插件配图设计</title>
<g id="_32._微信">
	<path class="st0" d="M37,24.08c0-4.66-4.57-8.45-10.3-8.45s-10.3,3.79-10.3,8.45s4.66,8.55,10.3,8.55c1.26,0,2.53-0.19,3.69-0.58
		l3.01,1.65h0.1c0,0,0,0,0-0.1l-0.78-2.62l0,0C35.35,29.52,36.9,26.9,37,24.08L37,24.08z M23.11,22.53c-0.78,0-1.36-0.58-1.36-1.36
		c0-0.78,0.58-1.36,1.36-1.36c0.78,0,1.36,0.58,1.36,1.36C24.47,21.94,23.79,22.53,23.11,22.53L23.11,22.53z M30.01,22.53
		c-0.78,0-1.36-0.58-1.36-1.36v-0.1c0.1-0.78,0.68-1.36,1.46-1.26c0.78,0.1,1.36,0.68,1.26,1.46
		C31.27,21.94,30.69,22.53,30.01,22.53L30.01,22.53z"/>
	<path class="st0" d="M26.02,15.05h0.49c-0.68-4.86-5.64-8.74-11.76-8.74C8.25,6.3,3,10.77,3,16.11c0.1,3.3,1.94,6.22,4.76,7.87l0,0
		L6.79,27.1c0,0.1,0,0.1,0.1,0.1c0,0,0,0,0.1,0l3.5-1.94c1.36,0.49,2.82,0.68,4.27,0.68c0.49,0,0.97,0,1.36-0.1
		c-0.29-0.78-0.39-1.46-0.39-2.23C15.73,18.83,20.29,15.05,26.02,15.05L26.02,15.05z M19.03,11.06c0.87,0,1.55,0.68,1.65,1.55
		c0,0.87-0.68,1.55-1.55,1.65c-0.87,0-1.55-0.68-1.65-1.55c0,0,0,0,0-0.1C17.57,11.84,18.25,11.06,19.03,11.06L19.03,11.06z
		 M11.06,14.27c-0.87,0-1.55-0.68-1.55-1.55s0.68-1.55,1.55-1.55c0.87,0,1.55,0.68,1.55,1.55C12.62,13.59,11.94,14.27,11.06,14.27z"
		/>
</g>
</svg>
