<?xml version="1.0" encoding="utf-8"?>
<!-- Generator: Adobe Illustrator 24.0.0, SVG Export Plug-In . SVG Version: 6.00 Build 0)  -->
<svg version="1.1" id="图层_1" xmlns="http://www.w3.org/2000/svg" xmlns:xlink="http://www.w3.org/1999/xlink" x="0px" y="0px"
	 viewBox="0 0 40 40" style="enable-background:new 0 0 40 40;" xml:space="preserve">
<style type="text/css">
	.st0{fill:#0089CF;}
</style>
<title>扩展插件配图设计</title>
<g id="_25._微软认知服务_1_">
	<g>
		<g>
			<path class="st0" d="M11.4,10.2h3.9c0.9,0,1.6,0.8,1.6,1.6v3.9c0,0.9-0.8,1.6-1.6,1.6h-3.9c-0.9,0-1.6-0.8-1.6-1.6v-3.9
				C9.4,11.2,10.5,10.2,11.4,10.2z"/>
		</g>
		<g>
			<path class="st0" d="M24.9,10.2h3.9c0.9,0,1.6,0.8,1.6,1.6v3.9c0,0.9-0.8,1.6-1.6,1.6h-3.9c-0.9,0-1.6-0.8-1.6-1.6v-3.9
				C23.1,11.2,24,10.2,24.9,10.2z"/>
		</g>
	</g>
	<path class="st0" d="M29.2,26c-0.5-0.5-1.4-0.6-1.8-0.1c-2.1,1.7-4.3,2.6-6.8,2.7c-2.6,0.1-5.5-0.9-7.8-2.7l-0.1-0.1
		c-0.5-0.3-1.3-0.3-1.7,0.3l-0.1,0.1c-0.3,0.5-0.3,1.3,0.3,1.8c2.5,2.1,5.7,3.2,9.2,3.2h0.3c3.1-0.1,6-1.3,8.5-3.2
		C29.4,27.3,29.7,26.5,29.2,26z"/>
	<path class="st0" d="M36.7,0.5H3.3c-0.8,0-1.4,0.4-2.1,1C0.7,2.1,0.5,2.7,0.6,3.4v33.4c0,1.6,1.2,2.7,2.7,2.7h33.3
		c1.6,0,2.7-1.4,2.9-2.9V3.2C39.5,1.7,38.3,0.5,36.7,0.5z M36.7,36.6H3.3V3.4h33.4V36.6z"/>
</g>
</svg>
