<?xml version="1.0" encoding="utf-8"?>
<!-- Generator: Adobe Illustrator 24.0.0, SVG Export Plug-In . SVG Version: 6.00 Build 0)  -->
<svg version="1.1" id="图层_1" xmlns="http://www.w3.org/2000/svg" xmlns:xlink="http://www.w3.org/1999/xlink" x="0px" y="0px"
	 viewBox="0 0 40 40" style="enable-background:new 0 0 40 40;" xml:space="preserve">
<style type="text/css">
	.st0{fill:#0FBD8C;}
	.st1{fill:#040404;}
	.st2{fill:#909AB1;}
	.st3{fill:#FD4527;}
	.st4{fill:#FFFFFF;}
</style>
<title>扩展插件配图设计</title>
<g>
	<g id="_38._玛塔实物">
		<rect class="st0" width="40" height="40"/>
		<path class="st1" d="M28.8,34.8c-1,0-1.8-0.8-1.8-1.8v-0.1h-7.5V33c-0.1,1-1,1.7-1.9,1.7c-0.8-0.1-1.5-0.7-1.7-1.7v-0.1h-3.1V33
			c-0.1,1-1,1.7-1.9,1.7c-0.8-0.1-1.5-0.7-1.7-1.7v-0.1h0c-1.5,0-2.7-1.2-2.7-2.7V18.2C6.8,11,12.8,5.1,20,5.2
			c7.3-0.1,13.3,5.6,13.4,12.9v12c0,1.5-1.2,2.7-2.7,2.7l0,0h-0.1V33C30.6,33.9,29.8,34.8,28.8,34.8z"/>
		<path class="st2" d="M20,5.6c7.1-0.1,13,5.5,13.1,12.6c0,0.1,0,0.2,0,0.4l0,0v11.7c0,1.3-1.1,2.4-2.4,2.4h-0.6
			c0,0.1,0.1,0.2,0.1,0.4c-0.1,0.7-0.7,1.3-1.5,1.3c-0.7-0.1-1.3-0.6-1.3-1.3c0-0.1,0-0.2,0.1-0.4h-8.2c0,0.1,0.1,0.2,0.1,0.4
			c-0.2,0.7-1,1.3-1.8,1.3c-0.7-0.1-1.3-0.6-1.3-1.3c0-0.1,0-0.2,0.1-0.4h-3.8c0,0.1,0.1,0.2,0.1,0.4c-0.1,0.8-0.8,1.4-1.5,1.3
			c-0.7-0.1-1.3-0.6-1.3-1.3c0-0.1,0-0.2,0.1-0.4H9.3c-1.3,0-2.4-1.1-2.4-2.4V18.6l0,0c0-0.1,0-0.2,0-0.4C7,11.1,12.9,5.5,20,5.6
			 M20,5C12.6,4.9,6.4,10.7,6.3,18.2v0.1v11.8c0,1.7,1.3,3,2.9,3c0.1,1.1,1.1,2,2.1,1.9c1-0.1,1.8-0.8,1.9-1.9h2.5
			c0.1,1.1,1.1,2,2.1,1.9c1-0.1,1.8-0.8,1.9-1.9h6.9c0.1,1.1,1.1,2,2.1,1.9c1-0.1,1.8-0.8,1.9-1.9c1.7-0.1,2.9-1.4,2.9-3V18l0,0
			C33.5,10.6,27.4,4.9,20,5z"/>
		<circle class="st1" cx="11.2" cy="33" r="1.4"/>
		<circle class="st1" cx="17.7" cy="33" r="1.4"/>
		<circle class="st1" cx="28.8" cy="33" r="1.4"/>
		<path class="st3" d="M33.1,18.2C33,11.1,27.1,5.5,20,5.6C12.9,5.5,7,11.1,6.9,18.2c0,0.1,0,0.2,0,0.4h26.2
			C33.1,18.5,33.1,18.3,33.1,18.2z"/>
		<path class="st4" d="M33.1,18.6H6.9v11.7c0,1.3,1.1,2.4,2.4,2.4h21.4c1.3,0,2.4-1.1,2.4-2.4V18.6z"/>
		<circle class="st1" cx="12.3" cy="25.4" r="1.8"/>
		<circle class="st1" cx="21.8" cy="25.4" r="1.8"/>
		<rect x="15.5" y="25.4" class="st1" width="3.2" height="0.5"/>
	</g>
</g>
</svg>
