<?xml version="1.0" encoding="utf-8"?>
<!-- Generator: Adobe Illustrator 24.0.0, SVG Export Plug-In . SVG Version: 6.00 Build 0)  -->
<svg version="1.1" id="图层_1" xmlns="http://www.w3.org/2000/svg" xmlns:xlink="http://www.w3.org/1999/xlink" x="0px" y="0px"
	 viewBox="0 0 40 40" style="enable-background:new 0 0 40 40;" xml:space="preserve">
<style type="text/css">
	.st0{fill:#119090;}
</style>
<title>扩展插件配图设计</title>
<g id="_28._Arduino">
	<path class="st0" d="M29.6,10.5c-1.7,0-4.4,0.6-7.5,3.5c-0.8,0.7-1.4,1.4-2.1,2.3c-0.6-0.8-1.3-1.6-2.1-2.2
		c-3.2-2.9-5.9-3.5-7.5-3.5c-5.3-0.1-9.7,4-9.9,9.3c0,0,0,0.1,0,0.1c0,2.6,1.1,5.1,3.1,6.9c1.9,1.7,4.3,2.6,6.8,2.6
		c2.8-0.1,5.5-1.3,7.5-3.3c0.8-0.7,1.5-1.4,2.1-2.2c0.6,0.8,1.4,1.5,2.1,2.2c2,2,4.7,3.2,7.5,3.4c2.5,0,4.9-0.9,6.8-2.5
		c2-1.7,3.1-4.2,3.1-6.9c0-5.3-4.4-9.6-9.7-9.6C29.7,10.5,29.7,10.5,29.6,10.5z M10.4,25.9c-3.3,0.2-6.2-2.3-6.4-5.6
		c0-0.1,0-0.2,0-0.3c0-3.4,2.8-6.1,6.2-6c0.1,0,0.1,0,0.2,0c3.5,0,7.7,4.8,7.7,6C18.1,21.3,13.9,25.9,10.4,25.9z M29.6,25.9
		c-3.5,0-7.7-4.6-7.7-5.9c0-1.2,4.2-6,7.7-6c3.4-0.2,6.2,2.4,6.4,5.8c0,0.1,0,0.1,0,0.2c-0.1,3.3-2.8,5.9-6.1,5.9
		C29.8,26,29.7,26,29.6,25.9z"/>
	<rect x="7" y="18.9" class="st0" width="6.6" height="1.4"/>
	<rect x="26.9" y="18.7" class="st0" width="5.4" height="1.9"/>
	<rect x="28.6" y="17" class="st0" width="1.9" height="5.4"/>
</g>
</svg>
