<?xml version="1.0" encoding="utf-8"?>
<!-- Generator: Adobe Illustrator 24.0.0, SVG Export Plug-In . SVG Version: 6.00 Build 0)  -->
<svg version="1.1" id="图层_1" xmlns="http://www.w3.org/2000/svg" xmlns:xlink="http://www.w3.org/1999/xlink" x="0px" y="0px"
	 viewBox="0 0 40 40" style="enable-background:new 0 0 40 40;" xml:space="preserve">
<style type="text/css">
	.st0{fill:#642B15;}
	.st1{fill:#909AB1;}
	.st2{fill:#F2CCAD;}
	.st3{fill:#7B3519;}
	.st4{fill:#FFFFFF;}
	.st5{fill:#3B1BB9;}
	.st6{fill:#C65B4E;}
	.st7{fill:#E58079;}
</style>
<title>扩展插件配图设计</title>
<g id="_36._我的世界">
	<path class="st0" d="M4.66,7.37h30.69c0.16,0,0.33,0.16,0.33,0.33v24.53c0,0.16-0.16,0.33-0.33,0.33H4.66
		c-0.16,0-0.33-0.16-0.33-0.33V7.7C4.33,7.54,4.49,7.37,4.66,7.37z"/>
	<path class="st1" d="M35.34,7.7v24.62H4.66V7.7H35.34 M35.34,7.13H4.66C4.33,7.13,4,7.37,4,7.7v24.62c0,0.33,0.33,0.66,0.66,0.66
		h30.69c0.33,0,0.66-0.33,0.66-0.66V7.7C36,7.37,35.67,7.13,35.34,7.13z"/>
	<rect x="4.66" y="7.7" class="st2" width="30.69" height="24.53"/>
	<rect x="4.66" y="7.7" class="st3" width="30.69" height="6.24"/>
	<rect x="4.66" y="14.02" class="st3" width="3.77" height="3.2"/>
	<rect x="31.57" y="14.02" class="st3" width="3.77" height="3.2"/>
	<rect x="23.77" y="20.75" class="st4" width="7.88" height="3.12"/>
	<rect x="8.43" y="20.75" class="st4" width="7.88" height="3.12"/>
	<rect x="12.37" y="20.75" class="st5" width="3.94" height="3.12"/>
	<rect x="23.77" y="20.75" class="st5" width="3.94" height="3.12"/>
	<rect x="16.23" y="23.87" class="st6" width="7.47" height="2.95"/>
	<rect x="12.7" y="26.82" class="st3" width="14.93" height="5.42"/>
	<rect x="16.23" y="26.82" class="st7" width="7.47" height="2.95"/>
</g>
</svg>
