<?xml version="1.0" encoding="utf-8"?>
<!-- Generator: Adobe Illustrator 24.0.0, SVG Export Plug-In . SVG Version: 6.00 Build 0)  -->
<svg version="1.1" id="图层_1" xmlns="http://www.w3.org/2000/svg" xmlns:xlink="http://www.w3.org/1999/xlink" x="0px" y="0px"
	 viewBox="0 0 40 40" style="enable-background:new 0 0 40 40;" xml:space="preserve">
<style type="text/css">
	.st0{fill:#722917;}
	.st1{fill:#FFC42B;}
</style>
<title>扩展插件配图设计</title>
<g id="_6._Kano魔仗">
	<path class="st0" d="M2.9,39L2.9,39c-1-1,0.2-3.7,2.5-5.9L34.6,5.7c0.4-0.4,1.1-0.4,1.5,0l0,0c0.4,0.4,0.4,1.1,0,1.5L8.7,36.5
		C6.6,38.8,3.9,40,2.9,39z"/>
	<path class="st1" d="M21.8,0.5l1.1,1.9c0,0.1,0.1,0.1,0.1,0.1L25,3.6c0.2,0.1,0.2,0.3,0.1,0.5c0,0.1-0.1,0.1-0.1,0.1l-2,1.1
		c-0.1,0-0.1,0.1-0.1,0.1l-1.1,1.9c-0.1,0.2-0.3,0.2-0.5,0.1c-0.1,0-0.1-0.1-0.1-0.1l-1-1.9c0-0.1-0.1-0.1-0.1-0.1l-1.9-1.1
		C18,4.2,17.9,4,18,3.8c0-0.1,0.1-0.1,0.2-0.2l1.9-1.1c0.1,0,0.1-0.1,0.1-0.1l1.1-1.9C21.4,0.3,21.6,0.3,21.8,0.5
		C21.8,0.5,21.8,0.5,21.8,0.5z"/>
	<path class="st1" d="M32.6,21.5l0.6,1.2l0.1,0.1l1.2,0.6c0.1,0.1,0.1,0.2,0.1,0.3c0,0,0,0-0.1,0.1l-1.2,0.6c0,0-0.1,0.1-0.1,0.1
		l-0.6,1.2c-0.1,0.1-0.2,0.1-0.3,0.1c0,0-0.1-0.1-0.1-0.1l-0.6-1.2l-0.1-0.1l-1.2-0.6c-0.1-0.1-0.1-0.2-0.1-0.3c0,0,0.1-0.1,0.1-0.1
		l1.2-0.6l0.1-0.1l0.6-1.2c0-0.1,0.2-0.2,0.3-0.2C32.5,21.4,32.6,21.4,32.6,21.5z"/>
</g>
</svg>
