<?xml version="1.0" encoding="utf-8"?>
<!-- Generator: Adobe Illustrator 24.0.0, SVG Export Plug-In . SVG Version: 6.00 Build 0)  -->
<svg version="1.1" id="图层_1" xmlns="http://www.w3.org/2000/svg" xmlns:xlink="http://www.w3.org/1999/xlink" x="0px" y="0px"
	 viewBox="0 0 40 40" style="enable-background:new 0 0 40 40;" xml:space="preserve">
<style type="text/css">
	.st0{fill:#0FBD8C;}
	.st1{fill:#1A1A1A;}
	.st2{fill:#FFFFFF;}
	.st3{opacity:0.5;}
	.st4{clip-path:url(#SVGID_2_);}
	.st5{clip-path:url(#SVGID_4_);}
	.st6{clip-path:url(#SVGID_6_);}
	.st7{clip-path:url(#SVGID_8_);}
	.st8{clip-path:url(#SVGID_10_);}
	.st9{clip-path:url(#SVGID_12_);}
	.st10{fill:#1E74F2;}
	.st11{fill:#EE78ED;}
	.st12{fill:#FDFEFD;}
	.st13{fill:#3AE6DE;}
</style>
<title>扩展插件配图设计</title>
<g id="_22._siri">
	<g>
		<rect class="st0" width="40" height="40"/>
	</g>
	<g>
		<circle class="st1" cx="20" cy="20" r="15.5"/>
		<path class="st2" d="M20,36c-8.8,0-16-7.2-16-16S11.2,4,20,4s16,7.2,16,16S28.8,36,20,36z M20,5C11.7,5,5,11.7,5,20s6.8,15,15,15
			c8.3,0,15-6.8,15-15C35,11.7,28.3,5,20,5z"/>
	</g>
	<g class="st3">
		<g>
			<g>
				<defs>
					<circle id="SVGID_1_" cx="20" cy="20" r="15.5"/>
				</defs>
				<clipPath id="SVGID_2_">
					<use xlink:href="#SVGID_1_"  style="overflow:visible;"/>
				</clipPath>
				<g class="st4">
					<g>
						<g>
							<defs>
								<rect id="SVGID_3_" x="-0.7" y="-0.7" width="41.5" height="41.5"/>
							</defs>
							<clipPath id="SVGID_4_">
								<use xlink:href="#SVGID_3_"  style="overflow:visible;"/>
							</clipPath>
							<g class="st5">
								<g>
									<g>
										<defs>
											<rect id="SVGID_5_" x="-0.7" y="-0.7" width="41.5" height="41.5"/>
										</defs>
										<clipPath id="SVGID_6_">
											<use xlink:href="#SVGID_5_"  style="overflow:visible;"/>
										</clipPath>
										<g class="st6">
										</g>
									</g>
								</g>
							</g>
						</g>
					</g>
				</g>
			</g>
		</g>
	</g>
	<g class="st3">
		<g>
			<g>
				<defs>
					<circle id="SVGID_7_" cx="20" cy="20" r="13.5"/>
				</defs>
				<clipPath id="SVGID_8_">
					<use xlink:href="#SVGID_7_"  style="overflow:visible;"/>
				</clipPath>
				<g class="st7">
					<g>
						<g>
							<defs>
								<rect id="SVGID_9_" x="1.3" y="1.3" width="37.4" height="37.4"/>
							</defs>
							<clipPath id="SVGID_10_">
								<use xlink:href="#SVGID_9_"  style="overflow:visible;"/>
							</clipPath>
							<g class="st8">
								<g>
									<g>
										<defs>
											<rect id="SVGID_11_" x="1.3" y="1.3" width="37.4" height="37.4"/>
										</defs>
										<clipPath id="SVGID_12_">
											<use xlink:href="#SVGID_11_"  style="overflow:visible;"/>
										</clipPath>
										<g class="st9">
										</g>
									</g>
								</g>
							</g>
						</g>
					</g>
				</g>
			</g>
		</g>
	</g>
	<g>
		<path class="st10" d="M33.1,24.2c0.1-1.6-4.2-3.8-8.5-4.2c-3-0.2-3.5,0.7-10.3,1.7c-6,0.8-7.3,0.3-7.7-0.4
			c-0.9-1.2,0.2-3.3,0.5-3.9c1.5-2.6,4.2-4.3,7.2-4.4c4.1,0,7.2,3.6,8.5,5.2c0.5,0.6,1.4,1.7,2.8,3.3c1,1,2.1,2.1,3.3,3
			c1,0.8,1.6,1.1,2.3,1C32.1,25.5,33,24.9,33.1,24.2z"/>
	</g>
	<g>
		<path class="st11" d="M23.2,14.1c1.1,3.9,0,8.7-0.5,10.7c-0.5,1.8-0.6,3.6-0.3,5.5c0.1,0.7,0.4,2.5,1.2,2.7c0.2,0.1,0.5,0,0.7-0.2
			c0.5-0.4,0.3-1.5,0.2-1.9c-0.5-2.6-3.3-5.4-4.6-6.8c-2.9-2.9-2.9-2.9-3.6-3.6c-4.3-4.5-6.4-6.6-5.9-8.7c0.5-2.6,4.7-4.8,8-3.8
			C21.8,8.9,23,13,23.2,14.1z"/>
	</g>
	<g>
		<path class="st12" d="M30.7,19c-4.4,0.3-8.7,1.1-13,2.3c-3.6,1-10.4,3-10.4,5.4c0,0.4,0.2,0.8,0.5,1c1.7,1.1,7.3-3.9,8.6-5.2
			c0.5-0.5,1-0.9,1.4-1.2L15,22.1c0.7-1.6,1.9-2.9,3.3-3.8C21.8,15.9,26.5,16.4,30.7,19z"/>
	</g>
	<g>
		<path class="st13" d="M30.3,11.5c2,2.2,3.5,5.8,2.4,7c-0.3,0.3-0.7,0.4-1.1,0.4h-0.8c-3.3,0-5.9-0.8-8.1-1
			c-2.6-0.2-5.2,0.3-7.5,1.5c-2.2,0.9-4.1,2.5-5.3,4.5c-0.7,1.2-1.7,3.5-1.1,3.8c0.8,0.6,5.9-3.9,9.6-9.5s4.2-9.4,6.9-9.7
			C27.4,8.3,29.4,10.4,30.3,11.5z"/>
	</g>
</g>
</svg>
