<?xml version="1.0" encoding="utf-8"?>
<!-- Generator: Adobe Illustrator 24.0.0, SVG Export Plug-In . SVG Version: 6.00 Build 0)  -->
<svg version="1.1" id="图层_1" xmlns="http://www.w3.org/2000/svg" xmlns:xlink="http://www.w3.org/1999/xlink" x="0px" y="0px"
	 viewBox="0 0 40 40" style="enable-background:new 0 0 40 40;" xml:space="preserve">
<style type="text/css">
	.st0{fill:#0FBD8C;}
	.st1{fill:#FFFFFF;}
</style>
<title>扩展插件配图设计</title>
<g id="_26._Blender">
	<g>
		<rect class="st0" width="40" height="40"/>
	</g>
	<g>
		<path class="st1" d="M29.9,13.5l-8.6-6.5c-0.7-0.5-1.6-0.4-2.2,0.3c-0.5,0.7-0.4,1.6,0.3,2.2l4,3.1l-0.3,0.1H10.4
			c-0.8,0.1-1.5,0.8-1.4,1.8c0.2,0.7,0.7,1.3,1.4,1.3h6.7L4.9,25.2c-0.8,0.4-1.1,1.5-0.7,2.2s1.7,1,2.4,0.5c0.1,0,0.1-0.1,0.3-0.1
			l7.5-5.6c0,0.3,0,0.5,0,0.7c0.1,5.9,5,10.5,10.8,10.4C31,33.4,35.8,28.8,36,22.9C35.9,18.8,33.6,15.1,29.9,13.5z M25.2,28.3
			c-3.5-0.1-6.3-3.1-6.1-6.7c0.1-3.5,3.1-6.3,6.7-6.1c3.4,0.1,6.1,2.9,6.1,6.4C31.7,25.5,28.7,28.4,25.2,28.3z"/>
	</g>
	<g>
		<ellipse class="st1" cx="25.2" cy="21.9" rx="4.1" ry="4"/>
	</g>
</g>
</svg>
