<svg xmlns="http://www.w3.org/2000/svg" viewBox="0 0 40 40"><defs><style>.cls-1{fill:#0fbd8c;}.cls-2{fill:#fff;}</style></defs><title>17. MQTT 协议-1</title><g id="_17._MQTT_协议" data-name="17. MQTT 协议"><rect class="cls-1" width="40" height="40"/><path class="cls-2" d="M7.38,20.08c.08.17.15.35.22.53.07-.18.15-.36.23-.54l.24-.5L10.4,15a.52.52,0,0,1,.13-.18.31.31,0,0,1,.15-.1.48.48,0,0,1,.18,0h1.85v9.08H10.85V18.52c0-.26,0-.53,0-.82L8.48,22.36a.77.77,0,0,1-.3.34.86.86,0,0,1-.43.11H7.46A.89.89,0,0,1,7,22.7a.83.83,0,0,1-.3-.34L4.31,17.69l0,.44c0,.14,0,.27,0,.39v5.23H2.5V14.67H4.35a.48.48,0,0,1,.18,0,.36.36,0,0,1,.15.1.7.7,0,0,1,.13.18l2.34,4.61c.07.16.16.32.23.49Zm15.29-.88a5.22,5.22,0,0,1-.12,1.13,4.63,4.63,0,0,1-.35,1,4.52,4.52,0,0,1-.56.88,4.27,4.27,0,0,1-.76.71l2.3,2.51H21.45a2.38,2.38,0,0,1-.68-.09,1.17,1.17,0,0,1-.54-.36L19.1,23.72a5,5,0,0,1-.56.09,5.49,5.49,0,0,1-.58,0A5.18,5.18,0,0,1,16,23.49,4.37,4.37,0,0,1,13.57,21a5,5,0,0,1-.34-1.83,5.06,5.06,0,0,1,.34-1.84,4.56,4.56,0,0,1,1-1.47,4.44,4.44,0,0,1,1.5-1A5.18,5.18,0,0,1,18,14.56a5,5,0,0,1,1.93.36,4.39,4.39,0,0,1,1.49,1,4.19,4.19,0,0,1,.95,1.47,4.84,4.84,0,0,1,.34,1.83Zm-2.16,0A4.11,4.11,0,0,0,20.34,18a2.63,2.63,0,0,0-.5-.92,2.17,2.17,0,0,0-.8-.57,3,3,0,0,0-2.17,0,2.13,2.13,0,0,0-.81.57,2.8,2.8,0,0,0-.5.92,3.8,3.8,0,0,0-.18,1.21,3.86,3.86,0,0,0,.18,1.22,2.49,2.49,0,0,0,.5.91,2.27,2.27,0,0,0,.81.58,3,3,0,0,0,2.17,0,2.2,2.2,0,0,0,.8-.58,2.65,2.65,0,0,0,.5-.91A3.87,3.87,0,0,0,20.51,19.2Zm8.93-4.54v1.67H27v7.42H24.87V16.33H22.41V14.66Zm8.06,0v1.67H35v7.42H32.84V16.33H30.38V14.66Z"/></g></svg>