<?xml version="1.0" encoding="utf-8"?>
<!-- Generator: Adobe Illustrator 24.0.0, SVG Export Plug-In . SVG Version: 6.00 Build 0)  -->
<svg version="1.1" id="图层_1" xmlns="http://www.w3.org/2000/svg" xmlns:xlink="http://www.w3.org/1999/xlink" x="0px" y="0px"
	 viewBox="0 0 40 40" style="enable-background:new 0 0 40 40;" xml:space="preserve">
<style type="text/css">
	.st0{fill:#0FBD8C;}
	.st1{fill:#722917;}
	.st2{fill:#FFFFFF;}
</style>
<title>扩展插件配图设计</title>
<g id="_6._Kano魔仗">
	<rect class="st0" width="40" height="40"/>
	<path class="st1" d="M6.3,35.7L6.3,35.7c-0.8-0.8,0.1-3.1,2-4.8l24-22.5c0.4-0.3,0.9-0.3,1.3,0l0,0c0.3,0.4,0.3,0.9,0,1.3l-22.5,24
		C9.4,35.6,7.2,36.5,6.3,35.7z"/>
	<path class="st2" d="M21.9,4.1l0.9,1.6c0,0.1,0.1,0.1,0.1,0.1l1.6,0.9c0.1,0.1,0.2,0.3,0.1,0.4c0,0-0.1,0.1-0.1,0.1l-1.6,0.9
		c0,0-0.1,0.1-0.1,0.1l-0.9,1.6c-0.1,0.1-0.3,0.2-0.4,0.1c0,0-0.1-0.1-0.1-0.1l-0.8-1.6c0,0-0.1-0.1-0.1-0.1l-1.6-0.9
		c-0.1-0.1-0.2-0.2-0.1-0.4c0-0.1,0.1-0.1,0.1-0.1l1.6-0.9c0.1,0,0.1-0.1,0.1-0.1l0.9-1.6C21.6,4,21.7,4,21.9,4.1
		C21.9,4.1,21.9,4.1,21.9,4.1z"/>
	<path class="st2" d="M30.8,21.3l0.5,1l0.1,0.1l1,0.5c0.1,0.1,0.1,0.2,0.1,0.3c0,0,0,0-0.1,0.1l-1,0.5c0,0-0.1,0-0.1,0.1l-0.5,1
		c0,0.1-0.2,0.1-0.3,0.1c0,0-0.1,0-0.1-0.1l-0.5-1l-0.1,0l-1-0.5c-0.1,0-0.1-0.2-0.1-0.3c0,0,0-0.1,0.1-0.1l1-0.5l0.1-0.1l0.5-1
		c0-0.1,0.1-0.2,0.2-0.1C30.7,21.2,30.7,21.3,30.8,21.3z"/>
</g>
</svg>
