<?xml version="1.0" encoding="utf-8"?>
<!-- Generator: Adobe Illustrator 24.0.0, SVG Export Plug-In . SVG Version: 6.00 Build 0)  -->
<svg version="1.1" id="素材" xmlns="http://www.w3.org/2000/svg" xmlns:xlink="http://www.w3.org/1999/xlink" x="0px" y="0px"
	 viewBox="0 0 40 40" style="enable-background:new 0 0 40 40;" xml:space="preserve">
<style type="text/css">
	.st0{fill:#231815;}
</style>
<g>
	<path class="st0" d="M18.06,25.71h-4.5c-0.9,0-1.73,0.63-1.94,1.46l-0.83,2.98c-0.21,0.9-1.04,1.46-1.94,1.46H8.51
		C7.4,31.59,6.5,30.69,6.5,29.58c0-0.21,0-0.41,0.07-0.63l6.16-19.16c0.28-0.83,1.04-1.39,1.94-1.39h2.56c0.9,0,1.66,0.55,1.94,1.39
		l6.09,19.24c0.35,1.04-0.21,2.22-1.31,2.49c-0.21,0.07-0.41,0.07-0.63,0.07h-0.55c-0.9,0-1.73-0.63-1.94-1.46L20,27.16
		C19.79,26.33,18.96,25.71,18.06,25.71z M16.81,22.11c0.76,0,1.39-0.63,1.39-1.39c0-0.13,0-0.28-0.07-0.35l-0.21-0.83
		c-0.35-1.24-0.69-2.49-1.04-3.74l0,0c-0.13-0.55-0.76-0.9-1.31-0.76c-0.35,0.07-0.63,0.35-0.76,0.76v0.07
		c-0.35,1.24-0.69,2.49-1.04,3.74l-0.21,0.76c-0.21,0.76,0.21,1.52,0.97,1.73c0.13,0,0.21,0.07,0.35,0.07L16.81,22.11z"/>
	<path class="st0" d="M30.86,8.4h0.63c1.11,0,2.01,0.9,2.01,2.01l0,0v19.17c0,1.11-0.9,2.01-2.01,2.01l0,0h-0.63
		c-1.11,0-2.01-0.9-2.01-2.01l0,0V10.41C28.85,9.31,29.76,8.4,30.86,8.4L30.86,8.4z"/>
</g>
</svg>
