<?xml version="1.0" encoding="utf-8"?>
<!-- Generator: Adobe Illustrator 24.0.0, SVG Export Plug-In . SVG Version: 6.00 Build 0)  -->
<svg version="1.1" id="素材" xmlns="http://www.w3.org/2000/svg" xmlns:xlink="http://www.w3.org/1999/xlink" x="0px" y="0px"
	 viewBox="0 0 40 40" style="enable-background:new 0 0 40 40;" xml:space="preserve">
<style type="text/css">
	.st0{fill:#0FBD8C;}
	.st1{fill:#FFFFFF;}
</style>
<title>扩展插件配图设计</title>
<rect class="st0" width="40" height="40"/>
<path class="st1" d="M2.5,20c0-4.3,2.4-6.8,5.9-6.8s5.9,2.6,5.9,6.8s-2.4,6.9-5.9,6.9S2.5,24.2,2.5,20z M11.6,20
	c0-2.8-1.3-4.5-3.2-4.5S5.2,17.1,5.2,20s1.3,4.6,3.2,4.6S11.6,22.8,11.6,20z"/>
<path class="st1" d="M16,24.9l1.5-1.8c0.9,0.9,2.1,1.4,3.3,1.5c1.4,0,2.1-0.6,2.1-1.5c0-0.9-0.8-1.3-2-1.8l-1.8-0.8
	c-1.6-0.5-2.6-1.9-2.7-3.5c0-2.1,1.9-3.8,4.5-3.8c1.6,0,3.1,0.6,4.2,1.8l-1.3,1.6c-0.8-0.7-1.8-1.1-2.8-1.1c-1.2,0-1.9,0.5-1.9,1.4
	c0,0.9,0.9,1.3,2.1,1.7l1.7,0.7c1.6,0.4,2.7,1.9,2.6,3.6c0,2.1-1.8,4-4.8,4C19,26.9,17.3,26.2,16,24.9z"/>
<path class="st1" d="M27.3,20c0-4.3,2.8-6.9,6.1-6.9c1.5,0,2.8,0.6,3.8,1.7l-1.4,1.7c-0.6-0.7-1.5-1.1-2.4-1.1c-2,0-3.5,1.7-3.5,4.5
	s1.4,4.6,3.4,4.6c1.1,0,2-0.5,2.7-1.3l1.4,1.6c-1,1.3-2.6,2-4.2,1.9C30,26.8,27.3,24.4,27.3,20z"/>
</svg>
