<?xml version="1.0" encoding="utf-8"?>
<!-- Generator: Adobe Illustrator 24.0.0, SVG Export Plug-In . SVG Version: 6.00 Build 0)  -->
<svg version="1.1" id="图层_1" xmlns="http://www.w3.org/2000/svg" xmlns:xlink="http://www.w3.org/1999/xlink" x="0px" y="0px"
	 viewBox="0 0 40 40" style="enable-background:new 0 0 40 40;" xml:space="preserve">
<style type="text/css">
	.st0{fill:#FFFFFF;}
	.st1{fill:#204895;}
	.st2{fill:#FCD565;}
</style>
<title>扩展插件配图设计</title>
<g id="_3._Python">
	<path class="st0" d="M15.6,6.82c-0.72,0-1.35,0.63-1.35,1.35c0,0.63,0.47,1.19,1.19,1.27h0.08c0.72,0,1.35-0.63,1.35-1.35
		c0-0.63-0.47-1.19-1.11-1.27C15.67,6.82,15.67,6.82,15.6,6.82z"/>
	<path class="st1" d="M19.24,19.28h3.73c2.06,0,3.73-1.66,3.73-3.73V8.01c-0.63-5-14.21-4.2-14.21-0.47v3.66h7.14v1.59H9.32
		c-6.11,0.24-5.72,14.29,0,14.29h2.31C11.22,19.13,12.97,19.28,19.24,19.28z M15.51,9.36c-0.63,0-1.19-0.47-1.27-1.19V8.09
		c0-0.72,0.63-1.35,1.35-1.35c0.63,0,1.19,0.47,1.27,1.11c0,0.08,0,0.08,0,0.16C16.94,8.8,16.31,9.36,15.51,9.36L15.51,9.36z"/>
	<path class="st2" d="M20.67,20.72h-3.73c-2.06,0-3.73,1.66-3.73,3.73v7.54c0.63,5,14.21,4.2,14.21,0.47v-3.66h-7.14v-1.59h10.4
		c6.11-0.24,5.72-14.29,0-14.29h-2.31C28.69,20.87,26.94,20.72,20.67,20.72z M24.4,30.64c0.63,0,1.19,0.47,1.27,1.19v0.08
		c0,0.72-0.63,1.35-1.35,1.35c-0.63,0-1.19-0.47-1.27-1.11c0-0.08,0-0.08,0-0.16C22.98,31.2,23.61,30.64,24.4,30.64z"/>
</g>
</svg>
