<?xml version="1.0" encoding="utf-8"?>
<!-- Generator: Adobe Illustrator 24.0.0, SVG Export Plug-In . SVG Version: 6.00 Build 0)  -->
<svg version="1.1" id="图层_1" xmlns="http://www.w3.org/2000/svg" xmlns:xlink="http://www.w3.org/1999/xlink" x="0px" y="0px"
	 viewBox="0 0 40 40" style="enable-background:new 0 0 40 40;" xml:space="preserve">
<style type="text/css">
	.st0{fill:#040404;}
	.st1{fill:#909AB1;}
	.st2{fill:#FD4527;}
	.st3{fill:#FFFFFF;}
</style>
<title>扩展插件配图设计</title>
<g>
	<g id="_38._玛塔实物">
		<path class="st0" d="M28.86,34.7c-0.92,0-1.76-0.84-1.76-1.76v-0.15h-7.44v0.15c-0.15,0.92-0.92,1.69-1.92,1.69
			c-0.84-0.15-1.54-0.69-1.69-1.69v-0.15h-3.07v0.15c-0.15,0.92-0.99,1.61-1.92,1.61c-0.84-0.15-1.54-0.69-1.69-1.69v-0.15l0,0
			c-1.54,0-2.77-1.15-2.77-2.77V18.2c0.24-7.21,6.15-13.04,13.44-12.97c7.21-0.15,13.28,5.6,13.43,12.82v11.97
			c0,1.54-1.15,2.77-2.77,2.77l0,0h-0.15v0.15C30.62,33.85,29.78,34.7,28.86,34.7z"/>
		<path class="st1" d="M20.04,5.62c7.14-0.15,12.97,5.45,13.04,12.58c0,0.15,0,0.23,0,0.38l0,0v11.66c0,1.3-1.08,2.38-2.38,2.38
			h-0.61c0,0.15,0.15,0.23,0.15,0.38c-0.15,0.69-0.69,1.3-1.54,1.3c-0.69-0.15-1.3-0.61-1.3-1.3c0-0.15,0-0.23,0.15-0.38h-8.21
			c0,0.15,0.15,0.23,0.15,0.38c-0.23,0.69-0.92,1.3-1.76,1.3c-0.69-0.15-1.3-0.61-1.3-1.3c0-0.15,0-0.23,0.15-0.38h-3.83
			c0,0.15,0.15,0.23,0.15,0.38c-0.15,0.84-0.84,1.45-1.54,1.3c-0.69-0.15-1.3-0.61-1.3-1.3c0-0.15,0-0.23,0.15-0.38H9.35
			c-1.3-0.08-2.38-1.15-2.38-2.46V18.5l0,0c0-0.15,0-0.23,0-0.38C7.15,11.07,12.9,5.46,20.04,5.62 M20.04,5
			c-7.37-0.08-13.5,5.68-13.66,13.19v0.15v11.74c0,1.69,1.3,2.99,2.84,2.99c0.15,1.08,1.08,2,2.15,1.92
			c0.92-0.15,1.76-0.84,1.92-1.92h2.46c0.15,1.08,1.08,2,2.15,1.92c0.92-0.15,1.76-0.84,1.92-1.92h6.9c0.15,1.08,1.08,2,2.15,1.92
			c0.92-0.15,1.76-0.84,1.92-1.92c1.69-0.15,2.84-1.45,2.84-2.99V17.97l0,0C33.46,10.61,27.41,4.93,20.04,5z"/>
		<circle class="st0" cx="11.29" cy="32.93" r="1.45"/>
		<circle class="st0" cx="17.82" cy="32.93" r="1.45"/>
		<circle class="st0" cx="28.86" cy="32.93" r="1.45"/>
		<path class="st2" d="M33.08,18.2c-0.08-7.14-5.91-12.73-13.04-12.58C12.9,5.46,7.15,11.07,6.99,18.2c0,0.15,0,0.23,0,0.38h26.09
			C33.08,18.43,33.08,18.28,33.08,18.2z"/>
		<path class="st3" d="M33.08,18.5H6.99v11.66c0,1.3,1.08,2.38,2.38,2.38h21.41c1.3,0,2.38-1.08,2.38-2.38V18.5H33.08z"/>
		<circle class="st0" cx="12.37" cy="25.34" r="1.76"/>
		<circle class="st0" cx="21.8" cy="25.34" r="1.76"/>
		<rect x="15.51" y="25.34" class="st0" width="3.23" height="0.46"/>
	</g>
</g>
</svg>
