<?xml version="1.0" encoding="utf-8"?>
<!-- Generator: Adobe Illustrator 24.0.0, SVG Export Plug-In . SVG Version: 6.00 Build 0)  -->
<svg version="1.1" id="图层_1" xmlns="http://www.w3.org/2000/svg" xmlns:xlink="http://www.w3.org/1999/xlink" x="0px" y="0px"
	 viewBox="0 0 40 40" style="enable-background:new 0 0 40 40;" xml:space="preserve">
<style type="text/css">
	.st0{fill:#0FBD8C;}
	.st1{fill:#FFFFFF;}
	.st2{fill:#909AB1;}
	.st3{fill:#3C6DD1;}
	.st4{fill:#F8D966;}
</style>
<title>扩展插件配图设计</title>
<g id="_5._图像数据">
	<g>
		<rect class="st0" width="40" height="40"/>
	</g>
	<g>
		<path class="st1" d="M33.5,9.8H6.6c-0.7,0-1.3,0.5-1.3,1.3l0,0v10c1.8,1.8,4.4,2.9,6.9,3c2.9,0.1,5.8-1,7.8-3
			c2-1.8,4.6-2.8,7.3-2.8c2.8,0,5.3,1,7.5,2.8v-9.9C34.8,10.3,34.1,9.6,33.5,9.8C33.5,9.6,33.5,9.6,33.5,9.8z"/>
		<path class="st2" d="M12.6,24.3c-0.1,0-0.2,0-0.3,0c-2.7-0.1-5.2-1.2-7.2-3.1L5,21.1V10.9c0-0.4,0.2-0.9,0.5-1.1
			c0.3-0.3,0.7-0.4,1.1-0.4h26.8c0.4,0,0.9,0.1,1.1,0.4c0.2,0.3,0.4,0.6,0.4,1.1v10.5l-0.4-0.4c-2-1.7-4.6-2.7-7.3-2.7l0,0
			c-2.6,0-5.1,1-7,2.7C18.2,23.2,15.5,24.3,12.6,24.3z M5.5,20.9c1.8,1.7,4.2,2.8,6.7,2.9c2.8,0.1,5.6-1,7.6-3
			c2-1.8,4.7-2.9,7.5-2.9l0,0c2.6,0,5.1,0.9,7.2,2.5V11c0-0.3-0.1-0.5-0.3-0.7S33.7,10,33.4,10l0,0H6.6c-0.3,0-0.5,0.1-0.7,0.3
			c-0.2,0.2-0.3,0.4-0.3,0.7v10L5.5,20.9z"/>
	</g>
	<g>
		<path class="st3" d="M20.1,21c-2.1,2-4.9,3.1-7.8,3c-2.6-0.1-5.1-1.2-6.9-3v8c0,0.7,0.6,1.3,1.3,1.3l0,0h26.9
			c0.7,0,1.3-0.5,1.3-1.3l0,0v-8.1c-2.1-1.8-4.7-2.8-7.5-2.8C24.6,18.2,22.1,19.3,20.1,21z"/>
		<path class="st2" d="M33.5,30.6L33.5,30.6H6.6C5.7,30.6,5,30,5,29.1v-8.6l0.4,0.4c1.8,1.8,4.3,2.9,6.7,3c2.8,0.1,5.6-1,7.6-3l0,0
			c2-1.8,4.7-2.9,7.5-2.9l0,0c2.8,0,5.4,1,7.6,2.8l0.1,0.1v8.3c0,0.3-0.2,0.7-0.4,1.1C34.3,30.5,33.9,30.6,33.5,30.6z M33.5,30
			c0.3,0,0.5-0.1,0.7-0.3c0.2-0.2,0.3-0.4,0.3-0.7v-8c-2-1.7-4.6-2.7-7.2-2.6c-2.7,0-5.1,1-7.2,2.7c-2.1,2-5,3.2-8,3.1
			c-2.5-0.1-4.8-1.1-6.6-2.7V29c0,0.5,0.4,1,1.1,1l0,0h26.8l0,0H33.5z"/>
	</g>
	<g>
		<circle class="st4" cx="11.2" cy="14.8" r="2.9"/>
	</g>
</g>
</svg>
