<?xml version="1.0" encoding="utf-8"?>
<!-- Generator: Adobe Illustrator 24.0.0, SVG Export Plug-In . SVG Version: 6.00 Build 0)  -->
<svg version="1.1" id="图层_1" xmlns="http://www.w3.org/2000/svg" xmlns:xlink="http://www.w3.org/1999/xlink" x="0px" y="0px"
	 viewBox="0 0 40 40" style="enable-background:new 0 0 40 40;" xml:space="preserve">
<style type="text/css">
	.st0{fill:#1A1A1A;}
	.st1{fill:#FFFFFF;}
	.st2{opacity:0.5;}
	.st3{clip-path:url(#SVGID_2_);}
	.st4{clip-path:url(#SVGID_4_);}
	.st5{clip-path:url(#SVGID_8_);}
	.st6{clip-path:url(#SVGID_10_);}
	.st7{fill:#1E74F2;}
	.st8{fill:#EE78ED;}
	.st9{fill:#FDFEFD;}
	.st10{fill:#3AE6DE;}
</style>
<g id="_22._siri">
	<g>
		<circle class="st0" cx="20" cy="20" r="16.48"/>
		<path class="st1" d="M20,37c-9.42,0-17-7.58-17-17S10.58,3,20,3s17,7.58,17,17S29.42,37,20,37z M20,4.13
			C11.19,4.13,4.13,11.19,4.13,20S11.28,35.87,20,35.87c8.81,0,15.87-7.15,15.87-15.87C35.87,11.19,28.81,4.13,20,4.13z"/>
	</g>
	<g class="st2">
		<g>
			<g>
				<g>
					<defs>
						<circle id="SVGID_1_" cx="20" cy="20" r="16.48"/>
					</defs>
					<clipPath id="SVGID_2_">
						<use xlink:href="#SVGID_1_"  style="overflow:visible;"/>
					</clipPath>
					<g class="st3">
						<g>
							<g>
								<g>
									<defs>
										<rect id="SVGID_3_" x="-1.97" y="-1.97" width="44.03" height="44.03"/>
									</defs>
									<clipPath id="SVGID_4_">
										<use xlink:href="#SVGID_3_"  style="overflow:visible;"/>
									</clipPath>
									<g class="st4">
										<g>
											<g>
												<g>
													<defs>
														<rect id="SVGID_5_" x="-1.97" y="-1.97" width="44.03" height="44.03"/>
													</defs>
													<clipPath id="SVGID_6_">
														<use xlink:href="#SVGID_5_"  style="overflow:visible;"/>
													</clipPath>
												</g>
											</g>
										</g>
									</g>
								</g>
							</g>
						</g>
					</g>
				</g>
			</g>
		</g>
	</g>
	<g class="st2">
		<g>
			<g>
				<g>
					<defs>
						<circle id="SVGID_7_" cx="20" cy="20" r="14.38"/>
					</defs>
					<clipPath id="SVGID_8_">
						<use xlink:href="#SVGID_7_"  style="overflow:visible;"/>
					</clipPath>
					<g class="st5">
						<g>
							<g>
								<g>
									<defs>
										<rect id="SVGID_9_" x="0.12" y="0.12" width="39.75" height="39.75"/>
									</defs>
									<clipPath id="SVGID_10_">
										<use xlink:href="#SVGID_9_"  style="overflow:visible;"/>
									</clipPath>
									<g class="st6">
										<g>
											<g>
												<g>
													<defs>
														<rect id="SVGID_11_" x="0.12" y="0.12" width="39.75" height="39.75"/>
													</defs>
													<clipPath id="SVGID_12_">
														<use xlink:href="#SVGID_11_"  style="overflow:visible;"/>
													</clipPath>
												</g>
											</g>
										</g>
									</g>
								</g>
							</g>
						</g>
					</g>
				</g>
			</g>
		</g>
	</g>
	<g>
		<path class="st7" d="M33.95,24.45c0.09-1.66-4.45-4.1-9.07-4.45c-3.23-0.26-3.75,0.78-10.9,1.74c-6.36,0.87-7.76,0.35-8.19-0.44
			C4.83,20,6.05,17.73,6.31,17.12c1.57-2.79,4.45-4.53,7.58-4.62c4.27,0,7.58,3.84,9.07,5.49c0.52,0.7,1.39,1.74,2.96,3.57
			c1.13,1.13,2.18,2.18,3.57,3.23c1.13,0.87,1.66,1.22,2.44,1.13C32.82,25.84,33.77,25.23,33.95,24.45z"/>
	</g>
	<g>
		<path class="st8" d="M23.4,13.72c1.22,4.18,0,9.24-0.52,11.33c-0.52,1.92-0.7,3.84-0.35,5.84c0.09,0.78,0.44,2.62,1.31,2.88
			c0.26,0.09,0.52,0,0.78-0.26c0.52-0.44,0.35-1.57,0.26-2.01c-0.52-2.79-3.57-5.75-4.88-7.15c-3.05-3.05-3.05-3.05-3.84-3.84
			c-4.53-4.71-6.89-7.06-6.28-9.24c0.52-2.79,4.88-5.06,8.46-4.1S23.23,12.59,23.4,13.72z"/>
	</g>
	<g>
		<path class="st9" d="M31.33,18.87c-4.62,0.35-9.24,1.22-13.77,2.44c-3.84,1.13-11.07,3.23-11.07,5.75c0,0.44,0.26,0.87,0.52,1.13
			c1.74,1.22,7.76-4.18,9.15-5.49c0.52-0.52,1.13-0.96,1.39-1.31l-2.96,0.87c0.78-1.66,2.01-3.05,3.57-4.1
			C21.92,15.73,26.97,16.16,31.33,18.87z"/>
	</g>
	<g>
		<path class="st10" d="M30.9,10.93c2.09,2.35,3.75,6.19,2.53,7.41c-0.35,0.35-0.78,0.44-1.22,0.44h-0.87
			c-3.57,0-6.28-0.87-8.63-1.13c-2.79-0.26-5.49,0.35-7.93,1.57c-2.35,0.96-4.27,2.62-5.67,4.71c-0.78,1.31-1.74,3.75-1.22,4.1
			c0.87,0.7,6.28-4.18,10.11-10.03s4.45-9.94,7.32-10.29C27.85,7.53,29.94,9.89,30.9,10.93z"/>
	</g>
</g>
</svg>
